{"glyphs":{"0":{"ha":671,"x_min":42,"x_max":629,"o":"m 336 -11 q 135 29 196 -11 q 58 165 74 69 q 42 478 42 260 q 58 791 42 696 q 135 926 74 886 q 336 967 196 967 q 537 926 476 967 q 613 791 597 886 q 629 478 629 696 q 613 165 629 260 q 537 29 597 69 q 336 -11 476 -11 m 336 194 q 371 208 363 194 q 381 272 379 221 q 383 478 383 322 q 381 684 383 633 q 371 748 379 735 q 336 761 363 761 q 301 748 310 761 q 290 684 292 735 q 288 478 288 633 q 290 272 288 322 q 301 208 292 221 q 336 194 310 194 z "},"1":{"ha":453,"x_min":11,"x_max":399,"o":"m 149 0 l 149 692 l 11 639 l 11 851 l 215 956 l 399 956 l 399 0 l 149 0 z "},"2":{"ha":642,"x_min":42,"x_max":599,"o":"m 294 313 q 289 273 290 300 q 288 207 288 246 l 599 207 l 599 0 l 42 0 l 42 128 q 47 330 42 267 q 73 433 51 393 q 144 500 94 474 l 204 531 q 286 572 233 544 q 313 587 292 575 q 342 619 335 599 q 349 676 349 639 q 341 735 349 718 q 315 757 333 753 q 250 761 296 761 q 54 750 176 761 l 54 940 q 177 959 104 951 q 314 967 250 967 q 463 949 404 967 q 560 870 522 931 q 599 689 599 810 q 568 503 599 561 q 482 418 538 446 q 331 343 385 371 q 309 330 319 338 q 294 313 299 322 z "},"3":{"ha":625,"x_min":32,"x_max":586,"o":"m 285 -11 q 158 -3 229 -11 q 32 17 86 6 l 32 204 q 233 194 158 194 q 302 199 282 194 q 329 222 322 204 q 336 282 336 239 q 329 351 336 331 q 307 376 322 371 q 256 382 292 382 l 126 382 l 126 583 l 256 583 q 305 590 290 583 q 324 614 319 596 q 328 676 328 632 q 322 735 328 719 q 296 756 315 751 q 225 761 276 761 q 33 750 131 761 l 33 940 q 160 959 89 951 q 286 967 231 967 q 454 944 390 967 q 549 867 518 921 q 579 719 579 814 q 547 563 579 617 q 449 490 515 508 l 449 485 q 553 416 521 467 q 586 251 586 365 q 557 99 586 156 q 463 15 528 42 q 285 -11 397 -11 z "},"4":{"ha":667,"x_min":22,"x_max":653,"o":"m 336 0 l 336 174 l 22 174 l 22 354 l 189 956 l 449 956 l 264 379 l 340 379 l 414 572 l 582 572 l 582 379 l 653 379 l 653 174 l 582 174 l 582 0 l 336 0 z "},"5":{"ha":649,"x_min":60,"x_max":613,"o":"m 60 204 q 247 194 174 194 q 326 200 304 194 q 355 227 347 206 q 363 304 363 249 q 356 381 363 358 q 327 409 349 403 q 250 415 306 415 q 67 406 158 415 l 67 956 l 572 956 l 572 749 l 289 749 l 289 613 q 385 619 331 619 q 563 546 513 619 q 613 324 613 472 q 588 126 613 197 q 498 22 563 56 q 313 -11 433 -11 q 186 -3 257 -11 q 60 15 115 4 l 60 204 z "},"6":{"ha":668,"x_min":42,"x_max":633,"o":"m 344 -11 q 208 2 260 -11 q 122 53 157 15 q 65 164 88 90 q 42 481 42 254 q 75 799 42 707 q 178 929 110 892 q 371 967 246 967 q 480 958 417 967 q 599 936 543 950 l 599 747 q 415 761 483 761 q 328 748 353 761 q 295 694 303 735 q 288 554 288 654 l 300 554 q 344 599 311 579 q 431 619 376 619 q 544 599 501 619 q 610 515 586 578 q 633 329 633 453 q 609 126 633 199 q 523 22 585 54 q 344 -11 461 -11 m 340 190 q 376 197 365 190 q 392 226 388 203 q 396 304 396 249 q 391 381 396 358 q 376 409 386 403 q 340 415 365 415 q 305 409 315 415 q 291 381 294 403 q 288 306 288 358 q 292 225 288 249 q 307 196 297 201 q 340 190 317 190 z "},"7":{"ha":603,"x_min":28,"x_max":585,"o":"m 69 0 l 328 749 l 28 749 l 28 956 l 585 956 l 585 771 l 335 0 l 69 0 z "},"8":{"ha":686,"x_min":38,"x_max":649,"o":"m 343 -11 q 163 15 229 -11 q 67 99 96 42 q 38 251 38 156 q 71 415 38 364 q 175 485 104 467 l 175 490 q 77 563 108 510 q 46 719 46 617 q 77 867 46 814 q 173 944 108 921 q 343 967 238 967 q 513 944 449 967 q 608 867 578 921 q 639 719 639 814 q 608 563 639 617 q 510 490 576 510 l 510 485 q 615 415 582 467 q 649 251 649 364 q 619 99 649 156 q 522 15 589 42 q 343 -11 456 -11 m 343 574 q 379 578 369 574 q 392 601 389 583 q 394 671 394 619 q 392 741 394 722 q 379 765 389 760 q 343 771 369 771 q 306 765 317 771 q 293 741 296 760 q 290 671 290 722 q 293 602 290 621 q 306 578 296 583 q 343 574 315 574 m 343 183 q 380 190 369 183 q 394 216 390 196 q 397 288 397 236 q 394 360 397 339 q 380 387 390 381 q 343 393 369 393 q 306 386 317 393 q 291 359 294 379 q 288 288 288 339 q 291 217 288 238 q 306 190 294 196 q 343 183 317 183 z "},"9":{"ha":668,"x_min":35,"x_max":626,"o":"m 297 -11 q 185 -3 249 -11 q 69 19 121 6 l 69 208 q 253 194 183 194 q 340 208 315 194 q 373 261 365 221 q 381 401 381 301 l 369 401 q 324 356 358 375 q 238 336 289 336 q 124 357 167 336 q 58 440 82 378 q 35 626 35 503 q 59 829 35 757 q 145 934 83 901 q 324 967 207 967 q 463 954 410 967 q 549 906 515 942 q 600 800 583 869 q 626 475 626 699 q 586 146 626 243 q 485 24 553 60 q 297 -11 417 -11 m 328 540 q 363 547 353 540 q 376 575 372 553 q 379 650 379 597 q 375 731 379 707 q 361 760 371 754 q 328 765 351 765 q 292 759 303 765 q 276 730 281 753 q 272 651 272 707 q 276 575 272 597 q 291 547 281 553 q 328 540 301 540 z "},"\u0000":{"ha":0,"x_min":0,"x_max":0,"o":""},"\r":{"ha":251,"x_min":0,"x_max":0,"o":""}," ":{"ha":251,"x_min":0,"x_max":0,"o":""},"A":{"ha":718,"x_min":1,"x_max":717,"o":"m 465 0 l 443 163 l 269 163 l 247 0 l 1 0 l 176 956 l 542 956 l 717 0 l 465 0 m 361 735 l 351 735 l 300 361 l 413 361 l 361 735 z "},"Á":{"ha":718,"x_min":1,"x_max":717,"o":"m 465 0 l 443 163 l 269 163 l 247 0 l 1 0 l 176 956 l 542 956 l 717 0 l 465 0 m 361 735 l 351 735 l 300 361 l 413 361 l 361 735 m 247 1042 l 247 1049 l 319 1247 l 540 1247 l 540 1240 l 425 1042 l 247 1042 z "},"Ă":{"ha":718,"x_min":1,"x_max":717,"o":"m 465 0 l 443 163 l 269 163 l 247 0 l 1 0 l 176 956 l 542 956 l 717 0 l 465 0 m 361 735 l 351 735 l 300 361 l 413 361 l 361 735 m 551 1233 q 537 1131 551 1171 q 480 1067 522 1090 q 358 1043 438 1043 q 237 1067 279 1043 q 180 1131 194 1090 q 165 1233 165 1171 l 297 1233 q 308 1184 297 1200 q 358 1168 318 1168 q 409 1184 399 1168 q 419 1233 419 1200 l 551 1233 z "},"Ắ":{"ha":718,"x_min":1,"x_max":717,"o":"m 465 0 l 443 163 l 269 163 l 247 0 l 1 0 l 176 956 l 542 956 l 717 0 l 465 0 m 361 735 l 351 735 l 300 361 l 413 361 l 361 735 m 550 1233 q 535 1131 550 1171 q 478 1067 521 1090 q 357 1043 436 1043 q 235 1067 278 1043 q 178 1131 193 1090 q 164 1233 164 1171 l 296 1233 q 306 1184 296 1200 q 357 1168 317 1168 q 408 1184 397 1168 q 418 1233 418 1200 l 550 1233 m 257 1268 l 257 1275 l 329 1474 l 550 1474 l 550 1467 l 435 1268 l 257 1268 z "},"Ặ":{"ha":718,"x_min":1,"x_max":717,"o":"m 465 0 l 443 163 l 269 163 l 247 0 l 1 0 l 176 956 l 542 956 l 717 0 l 465 0 m 361 735 l 351 735 l 300 361 l 413 361 l 361 735 m 238 -297 l 238 -86 l 482 -86 l 482 -297 l 238 -297 m 551 1233 q 537 1131 551 1171 q 480 1067 522 1090 q 358 1043 438 1043 q 237 1067 279 1043 q 180 1131 194 1090 q 165 1233 165 1171 l 297 1233 q 308 1184 297 1200 q 358 1168 318 1168 q 409 1184 399 1168 q 419 1233 419 1200 l 551 1233 z "},"Ằ":{"ha":718,"x_min":1,"x_max":717,"o":"m 465 0 l 443 163 l 269 163 l 247 0 l 1 0 l 176 956 l 542 956 l 717 0 l 465 0 m 361 735 l 351 735 l 300 361 l 413 361 l 361 735 m 554 1233 q 540 1131 554 1171 q 483 1067 525 1090 q 361 1043 440 1043 q 240 1067 282 1043 q 183 1131 197 1090 q 168 1233 168 1171 l 300 1233 q 310 1184 300 1200 q 361 1168 321 1168 q 412 1184 401 1168 q 422 1233 422 1200 l 554 1233 m 275 1268 l 161 1467 l 161 1474 l 381 1474 l 454 1275 l 454 1268 l 275 1268 z "},"Ẳ":{"ha":718,"x_min":1,"x_max":717,"o":"m 465 0 l 443 163 l 269 163 l 247 0 l 1 0 l 176 956 l 542 956 l 717 0 l 465 0 m 361 735 l 351 735 l 300 361 l 413 361 l 361 735 m 539 1233 q 524 1131 539 1171 q 467 1067 510 1090 q 346 1043 425 1043 q 224 1067 267 1043 q 167 1131 182 1090 q 153 1233 153 1171 l 285 1233 q 295 1184 285 1200 q 346 1168 306 1168 q 397 1184 386 1168 q 407 1233 407 1200 l 539 1233 m 279 1274 q 290 1328 279 1311 q 333 1354 301 1344 l 349 1358 q 397 1377 386 1371 q 407 1399 407 1383 q 399 1416 407 1413 q 364 1419 390 1419 q 207 1417 301 1419 l 207 1532 q 382 1551 294 1551 q 479 1544 442 1551 q 541 1509 517 1536 q 565 1426 565 1482 q 549 1347 565 1371 q 483 1304 532 1324 l 469 1297 q 431 1281 442 1286 q 417 1268 419 1275 q 414 1246 414 1261 l 279 1246 l 279 1274 z "},"Ẵ":{"ha":718,"x_min":1,"x_max":717,"o":"m 465 0 l 443 163 l 269 163 l 247 0 l 1 0 l 176 956 l 542 956 l 717 0 l 465 0 m 361 735 l 351 735 l 300 361 l 413 361 l 361 735 m 549 1233 q 534 1131 549 1171 q 477 1067 519 1090 q 356 1043 435 1043 q 234 1067 276 1043 q 177 1131 192 1090 q 163 1233 163 1171 l 294 1233 q 305 1184 294 1200 q 356 1168 315 1168 q 406 1184 396 1168 q 417 1233 417 1200 l 549 1233 m 586 1497 q 581 1383 586 1421 q 551 1322 575 1344 q 471 1300 526 1300 q 346 1319 418 1300 q 313 1326 336 1321 q 278 1331 290 1331 q 259 1322 263 1331 q 256 1283 256 1313 l 131 1283 q 136 1398 131 1360 q 167 1458 142 1436 q 247 1481 192 1481 q 309 1474 275 1481 q 372 1461 343 1468 q 405 1455 382 1460 q 440 1450 428 1450 q 459 1459 456 1450 q 463 1497 463 1468 l 586 1497 z "},"Ǎ":{"ha":718,"x_min":1,"x_max":717,"o":"m 465 0 l 443 163 l 269 163 l 247 0 l 1 0 l 176 956 l 542 956 l 717 0 l 465 0 m 361 735 l 351 735 l 300 361 l 413 361 l 361 735 m 249 1051 l 147 1221 l 147 1233 l 300 1233 l 360 1149 l 419 1233 l 572 1233 l 572 1221 l 468 1051 l 249 1051 z "},"Â":{"ha":718,"x_min":1,"x_max":717,"o":"m 465 0 l 443 163 l 269 163 l 247 0 l 1 0 l 176 956 l 542 956 l 717 0 l 465 0 m 361 735 l 351 735 l 300 361 l 413 361 l 361 735 m 146 1042 l 146 1053 l 247 1224 l 467 1224 l 571 1053 l 571 1042 l 418 1042 l 357 1126 l 299 1042 l 146 1042 z "},"Ấ":{"ha":718,"x_min":1,"x_max":717,"o":"m 465 0 l 443 163 l 269 163 l 247 0 l 1 0 l 176 956 l 542 956 l 717 0 l 465 0 m 361 735 l 351 735 l 300 361 l 413 361 l 361 735 m 147 1013 l 147 1024 l 249 1194 l 468 1194 l 572 1024 l 572 1013 l 419 1013 l 358 1097 l 300 1013 l 147 1013 m 381 1229 l 381 1236 l 453 1435 l 674 1435 l 674 1428 l 558 1229 l 381 1229 z "},"Ậ":{"ha":718,"x_min":1,"x_max":717,"o":"m 465 0 l 443 163 l 269 163 l 247 0 l 1 0 l 176 956 l 542 956 l 717 0 l 465 0 m 361 735 l 351 735 l 300 361 l 413 361 l 361 735 m 238 -297 l 238 -86 l 482 -86 l 482 -297 l 238 -297 m 147 1051 l 147 1063 l 249 1233 l 468 1233 l 572 1063 l 572 1051 l 419 1051 l 358 1136 l 300 1051 l 147 1051 z "},"Ầ":{"ha":718,"x_min":1,"x_max":717,"o":"m 465 0 l 443 163 l 269 163 l 247 0 l 1 0 l 176 956 l 542 956 l 717 0 l 465 0 m 361 735 l 351 735 l 300 361 l 413 361 l 361 735 m 131 1013 l 131 1024 l 232 1194 l 451 1194 l 556 1024 l 556 1013 l 403 1013 l 342 1097 l 283 1013 l 131 1013 m 410 1229 l 296 1428 l 296 1435 l 515 1435 l 589 1236 l 589 1229 l 410 1229 z "},"Ẩ":{"ha":718,"x_min":1,"x_max":722,"o":"m 465 0 l 443 163 l 269 163 l 247 0 l 1 0 l 176 956 l 542 956 l 717 0 l 465 0 m 361 735 l 351 735 l 300 361 l 413 361 l 361 735 m 147 1014 l 147 1025 l 249 1196 l 468 1196 l 572 1025 l 572 1014 l 419 1014 l 358 1099 l 300 1014 l 147 1014 m 436 1253 q 447 1307 436 1290 q 490 1333 458 1324 l 506 1338 q 553 1356 543 1350 q 564 1378 564 1363 q 556 1395 564 1392 q 521 1399 547 1399 q 364 1396 458 1399 l 364 1511 q 539 1531 451 1531 q 636 1523 599 1531 q 698 1488 674 1515 q 722 1406 722 1461 q 706 1326 722 1350 q 640 1283 689 1303 l 626 1276 q 588 1260 599 1265 q 574 1247 576 1254 q 571 1225 571 1240 l 436 1225 l 436 1253 z "},"Ẫ":{"ha":718,"x_min":1,"x_max":717,"o":"m 465 0 l 443 163 l 269 163 l 247 0 l 1 0 l 176 956 l 542 956 l 717 0 l 465 0 m 361 735 l 351 735 l 300 361 l 413 361 l 361 735 m 144 1013 l 144 1024 l 246 1194 l 465 1194 l 569 1024 l 569 1013 l 417 1013 l 356 1097 l 297 1013 l 144 1013 m 586 1435 q 581 1320 586 1358 q 551 1260 575 1282 q 471 1238 526 1238 q 346 1257 418 1238 q 313 1263 336 1258 q 278 1268 290 1268 q 259 1259 263 1268 q 256 1221 256 1250 l 131 1221 q 136 1335 131 1297 q 167 1396 142 1374 q 247 1418 192 1418 q 309 1412 275 1418 q 372 1399 343 1406 q 405 1392 382 1397 q 440 1388 428 1388 q 459 1397 456 1388 q 463 1435 463 1406 l 586 1435 z "},"Ȁ":{"ha":718,"x_min":1,"x_max":717,"o":"m 465 0 l 443 163 l 269 163 l 247 0 l 1 0 l 176 956 l 542 956 l 717 0 l 465 0 m 361 735 l 351 735 l 300 361 l 413 361 l 361 735 m 329 1051 l 183 1051 l 94 1207 l 94 1213 l 272 1213 l 329 1057 l 329 1051 m 539 1051 l 393 1051 l 306 1207 l 306 1213 l 483 1213 l 539 1057 l 539 1051 z "},"Ä":{"ha":718,"x_min":1,"x_max":717,"o":"m 465 0 l 443 163 l 269 163 l 247 0 l 1 0 l 176 956 l 542 956 l 717 0 l 465 0 m 361 735 l 351 735 l 300 361 l 413 361 l 361 735 m 139 1079 l 139 1239 l 328 1239 l 328 1079 l 139 1079 m 390 1079 l 390 1239 l 579 1239 l 579 1079 l 390 1079 z "},"Ạ":{"ha":718,"x_min":1,"x_max":717,"o":"m 465 0 l 443 163 l 269 163 l 247 0 l 1 0 l 176 956 l 542 956 l 717 0 l 465 0 m 361 735 l 351 735 l 300 361 l 413 361 l 361 735 m 238 -297 l 238 -86 l 482 -86 l 482 -297 l 238 -297 z "},"À":{"ha":718,"x_min":1,"x_max":717,"o":"m 465 0 l 443 163 l 269 163 l 247 0 l 1 0 l 176 956 l 542 956 l 717 0 l 465 0 m 361 735 l 351 735 l 300 361 l 413 361 l 361 735 m 278 1040 l 164 1239 l 164 1246 l 383 1246 l 457 1047 l 457 1040 l 278 1040 z "},"Ả":{"ha":718,"x_min":1,"x_max":717,"o":"m 465 0 l 443 163 l 269 163 l 247 0 l 1 0 l 176 956 l 542 956 l 717 0 l 465 0 m 361 735 l 351 735 l 300 361 l 413 361 l 361 735 m 253 1038 q 264 1092 253 1075 q 307 1118 275 1108 l 322 1124 q 369 1142 358 1135 q 381 1163 381 1149 q 370 1181 381 1178 q 324 1185 360 1185 q 181 1182 267 1185 l 181 1297 q 356 1317 268 1317 q 452 1309 414 1317 q 515 1274 490 1301 q 539 1192 539 1246 q 522 1113 539 1136 q 457 1068 506 1089 l 443 1063 q 403 1045 414 1051 q 390 1032 393 1039 q 388 1010 388 1025 l 253 1010 l 253 1038 z "},"Ȃ":{"ha":718,"x_min":1,"x_max":717,"o":"m 465 0 l 443 163 l 269 163 l 247 0 l 1 0 l 176 956 l 542 956 l 717 0 l 465 0 m 361 735 l 351 735 l 300 361 l 413 361 l 361 735 m 165 1051 q 180 1154 165 1114 q 237 1218 194 1194 q 358 1242 279 1242 q 480 1218 438 1242 q 537 1154 522 1194 q 551 1051 551 1114 l 419 1051 q 409 1101 419 1085 q 358 1117 399 1117 q 308 1101 318 1117 q 297 1051 297 1085 l 165 1051 z "},"Ā":{"ha":718,"x_min":1,"x_max":717,"o":"m 465 0 l 443 163 l 269 163 l 247 0 l 1 0 l 176 956 l 542 956 l 717 0 l 465 0 m 361 735 l 351 735 l 300 361 l 413 361 l 361 735 m 208 1039 l 208 1233 l 510 1233 l 510 1039 l 208 1039 z "},"Ą":{"ha":718,"x_min":1,"x_max":717,"o":"m 571 -106 q 582 -142 571 -129 q 622 -156 593 -156 l 640 -154 l 640 -265 q 550 -272 601 -272 q 430 -237 467 -272 q 393 -147 393 -203 q 413 -70 393 -110 q 465 3 432 -31 l 443 163 l 269 163 l 247 0 l 1 0 l 176 956 l 542 956 l 717 0 l 632 0 q 590 -49 608 -19 q 571 -106 571 -79 m 300 361 l 413 361 l 361 735 l 351 735 l 300 361 z "},"Å":{"ha":718,"x_min":1,"x_max":717,"o":"m 717 0 l 465 0 l 443 163 l 269 163 l 247 0 l 1 0 l 176 957 q 160 1001 164 975 q 157 1069 157 1026 q 169 1172 157 1138 q 224 1223 181 1206 q 360 1240 267 1240 q 494 1223 451 1240 q 549 1172 538 1206 q 561 1069 561 1138 q 557 1001 561 1028 q 542 956 553 975 l 717 0 m 360 1011 q 402 1016 390 1011 q 417 1031 414 1021 q 419 1069 419 1042 q 417 1110 419 1099 q 401 1126 414 1121 q 360 1132 389 1132 q 318 1126 331 1132 q 303 1110 306 1121 q 300 1069 300 1099 q 303 1031 300 1042 q 317 1016 306 1021 q 360 1011 329 1011 m 300 361 l 413 361 l 361 735 l 351 735 l 300 361 z "},"Ǻ":{"ha":718,"x_min":1,"x_max":717,"o":"m 717 0 l 465 0 l 443 163 l 269 163 l 247 0 l 1 0 l 176 957 q 160 1001 164 975 q 157 1069 157 1026 q 169 1172 157 1138 q 224 1223 181 1206 q 360 1240 267 1240 q 494 1223 451 1240 q 549 1172 538 1206 q 561 1069 561 1138 q 557 1001 561 1028 q 542 956 553 975 l 717 0 m 360 1011 q 402 1016 390 1011 q 417 1031 414 1021 q 419 1069 419 1042 q 417 1110 419 1099 q 401 1126 414 1121 q 360 1132 389 1132 q 318 1126 331 1132 q 303 1110 306 1121 q 300 1069 300 1099 q 303 1031 300 1042 q 317 1016 306 1021 q 360 1011 329 1011 m 300 361 l 413 361 l 361 735 l 351 735 l 300 361 m 272 1313 l 272 1319 l 344 1518 l 565 1518 l 565 1511 l 450 1313 l 272 1313 z "},"Ã":{"ha":718,"x_min":1,"x_max":717,"o":"m 465 0 l 443 163 l 269 163 l 247 0 l 1 0 l 176 956 l 542 956 l 717 0 l 465 0 m 361 735 l 351 735 l 300 361 l 413 361 l 361 735 m 586 1256 q 581 1141 586 1179 q 551 1081 575 1103 q 471 1058 526 1058 q 346 1078 418 1058 q 313 1084 336 1079 q 278 1089 290 1089 q 259 1080 263 1089 q 256 1042 256 1071 l 131 1042 q 136 1156 131 1118 q 167 1217 142 1194 q 247 1239 192 1239 q 309 1233 275 1239 q 372 1219 343 1226 q 405 1213 382 1218 q 440 1208 428 1208 q 459 1217 456 1208 q 463 1256 463 1226 l 586 1256 z "},"Æ":{"ha":967,"x_min":-25,"x_max":919,"o":"m 446 0 l 433 164 l 254 164 l 221 0 l -25 0 l 226 956 l 919 956 l 919 750 l 615 750 l 631 585 l 885 585 l 885 381 l 650 381 l 667 206 l 919 206 l 919 0 l 446 0 m 389 744 l 378 744 l 299 363 l 418 363 l 389 744 z "},"Ǽ":{"ha":967,"x_min":-25,"x_max":919,"o":"m 446 0 l 433 164 l 254 164 l 221 0 l -25 0 l 226 956 l 919 956 l 919 750 l 615 750 l 631 585 l 885 585 l 885 381 l 650 381 l 667 206 l 919 206 l 919 0 l 446 0 m 389 744 l 378 744 l 299 363 l 418 363 l 389 744 m 396 1028 l 396 1035 l 468 1233 l 689 1233 l 689 1226 l 574 1028 l 396 1028 z "},"B":{"ha":683,"x_min":56,"x_max":651,"o":"m 56 956 l 413 956 q 644 715 644 956 q 613 560 644 613 q 517 490 582 508 l 517 485 q 619 418 586 467 q 651 257 651 369 q 594 63 651 126 q 413 0 536 0 l 56 0 l 56 956 m 340 576 q 381 582 369 576 q 397 604 393 588 q 400 664 400 621 q 397 726 400 710 q 382 748 393 743 q 340 753 371 753 l 301 753 l 301 576 l 340 576 m 340 203 q 382 208 371 203 q 397 230 393 213 q 400 296 400 247 q 396 360 400 342 q 381 383 392 378 q 340 389 369 389 l 301 389 l 301 203 l 340 203 z "},"C":{"ha":560,"x_min":42,"x_max":525,"o":"m 525 14 q 443 -4 493 3 q 349 -11 393 -11 q 148 34 213 -11 q 63 178 83 79 q 42 478 42 278 q 63 776 42 676 q 149 922 85 876 q 349 967 214 967 q 447 960 397 967 q 522 943 496 953 l 522 753 q 400 761 435 761 q 323 744 343 761 q 298 677 303 728 q 293 478 293 626 q 298 278 293 329 q 323 210 303 226 q 400 194 343 194 q 525 203 474 194 l 525 14 z "},"Ć":{"ha":560,"x_min":42,"x_max":525,"o":"m 525 14 q 443 -4 493 3 q 349 -11 393 -11 q 148 34 213 -11 q 63 178 83 79 q 42 478 42 278 q 63 776 42 676 q 149 922 85 876 q 349 967 214 967 q 447 960 397 967 q 522 943 496 953 l 522 753 q 400 761 435 761 q 323 744 343 761 q 298 677 303 728 q 293 478 293 626 q 298 278 293 329 q 323 210 303 226 q 400 194 343 194 q 525 203 474 194 l 525 14 m 193 1028 l 193 1035 l 265 1233 l 486 1233 l 486 1226 l 371 1028 l 193 1028 z "},"Č":{"ha":560,"x_min":42,"x_max":525,"o":"m 525 14 q 443 -4 493 3 q 349 -11 393 -11 q 148 34 213 -11 q 63 178 83 79 q 42 478 42 278 q 63 776 42 676 q 149 922 85 876 q 349 967 214 967 q 447 960 397 967 q 522 943 496 953 l 522 753 q 400 761 435 761 q 323 744 343 761 q 298 677 303 728 q 293 478 293 626 q 298 278 293 329 q 323 210 303 226 q 400 194 343 194 q 525 203 474 194 l 525 14 m 169 1051 l 68 1221 l 68 1233 l 221 1233 l 281 1149 l 340 1233 l 493 1233 l 493 1221 l 389 1051 l 169 1051 z "},"Ç":{"ha":560,"x_min":42,"x_max":525,"o":"m 525 14 q 447 -3 496 4 q 354 -11 399 -10 l 311 -261 l 114 -261 l 114 -254 l 208 6 q 101 82 138 28 q 53 228 65 136 q 42 478 42 319 q 63 776 42 676 q 149 922 85 876 q 349 967 214 967 q 447 960 397 967 q 522 943 496 953 l 522 753 q 400 761 435 761 q 323 744 343 761 q 298 677 303 728 q 293 478 293 626 q 298 278 293 329 q 323 210 303 226 q 400 194 343 194 q 525 203 474 194 l 525 14 z "},"Ĉ":{"ha":560,"x_min":42,"x_max":525,"o":"m 525 14 q 443 -4 493 3 q 349 -11 393 -11 q 148 34 213 -11 q 63 178 83 79 q 42 478 42 278 q 63 776 42 676 q 149 922 85 876 q 349 967 214 967 q 447 960 397 967 q 522 943 496 953 l 522 753 q 400 761 435 761 q 323 744 343 761 q 298 677 303 728 q 293 478 293 626 q 298 278 293 329 q 323 210 303 226 q 400 194 343 194 q 525 203 474 194 l 525 14 m 68 1051 l 68 1063 l 169 1233 l 389 1233 l 493 1063 l 493 1051 l 340 1051 l 279 1136 l 221 1051 l 68 1051 z "},"Ċ":{"ha":560,"x_min":42,"x_max":525,"o":"m 525 14 q 443 -4 493 3 q 349 -11 393 -11 q 148 34 213 -11 q 63 178 83 79 q 42 478 42 278 q 63 776 42 676 q 149 922 85 876 q 349 967 214 967 q 447 960 397 967 q 522 943 496 953 l 522 753 q 400 761 435 761 q 323 744 343 761 q 298 677 303 728 q 293 478 293 626 q 298 278 293 329 q 323 210 303 226 q 400 194 343 194 q 525 203 474 194 l 525 14 m 186 1056 l 186 1215 l 375 1215 l 375 1056 l 186 1056 z "},"D":{"ha":694,"x_min":56,"x_max":653,"o":"m 56 956 l 333 956 q 556 913 490 956 q 638 781 622 871 q 653 478 653 692 q 638 174 653 264 q 556 42 622 85 q 333 0 490 0 l 56 0 l 56 956 m 335 206 q 385 219 372 206 q 400 280 397 232 q 403 478 403 328 q 400 676 403 628 q 385 738 397 725 q 335 750 372 750 l 304 750 l 304 206 l 335 206 z "},"Ǳ":{"ha":1324,"x_min":56,"x_max":1282,"o":"m 56 956 l 333 956 q 556 913 490 956 q 638 781 622 871 q 653 478 653 692 q 638 174 653 264 q 556 42 622 85 q 333 0 490 0 l 56 0 l 56 956 m 335 206 q 385 219 372 206 q 400 280 397 232 q 403 478 403 328 q 400 676 403 628 q 385 738 397 725 q 335 750 372 750 l 304 750 l 304 206 l 335 206 m 735 0 l 735 194 l 999 750 l 744 750 l 744 956 l 1282 956 l 1282 764 l 1015 206 l 1282 206 l 1282 0 l 735 0 z "},"Ǆ":{"ha":1324,"x_min":56,"x_max":1282,"o":"m 56 956 l 333 956 q 556 913 490 956 q 638 781 622 871 q 653 478 653 692 q 638 174 653 264 q 556 42 622 85 q 333 0 490 0 l 56 0 l 56 956 m 335 206 q 385 219 372 206 q 400 280 397 232 q 403 478 403 328 q 400 676 403 628 q 385 738 397 725 q 335 750 372 750 l 304 750 l 304 206 l 335 206 m 735 0 l 735 194 l 999 750 l 744 750 l 744 956 l 1282 956 l 1282 764 l 1015 206 l 1282 206 l 1282 0 l 735 0 m 908 1051 l 807 1221 l 807 1233 l 960 1233 l 1019 1149 l 1079 1233 l 1232 1233 l 1232 1221 l 1128 1051 l 908 1051 z "},"Ð":{"ha":696,"x_min":-6,"x_max":653,"o":"m 56 388 l -6 388 l -6 579 l 56 579 l 56 956 l 333 956 q 556 913 490 956 q 638 781 622 871 q 653 478 653 692 q 638 174 653 264 q 556 42 622 85 q 333 0 490 0 l 56 0 l 56 388 m 335 206 q 385 219 372 206 q 400 280 397 232 q 403 478 403 328 q 400 676 403 628 q 385 738 397 725 q 335 750 372 750 l 304 750 l 304 579 l 364 579 l 364 388 l 304 388 l 304 206 l 335 206 z "},"Ď":{"ha":694,"x_min":56,"x_max":653,"o":"m 56 956 l 333 956 q 556 913 490 956 q 638 781 622 871 q 653 478 653 692 q 638 174 653 264 q 556 42 622 85 q 333 0 490 0 l 56 0 l 56 956 m 335 206 q 385 219 372 206 q 400 280 397 232 q 403 478 403 328 q 400 676 403 628 q 385 738 397 725 q 335 750 372 750 l 304 750 l 304 206 l 335 206 m 236 1051 l 135 1221 l 135 1233 l 288 1233 l 347 1149 l 407 1233 l 560 1233 l 560 1221 l 456 1051 l 236 1051 z "},"Đ":{"ha":696,"x_min":-6,"x_max":653,"o":"m 56 388 l -6 388 l -6 579 l 56 579 l 56 956 l 333 956 q 556 913 490 956 q 638 781 622 871 q 653 478 653 692 q 638 174 653 264 q 556 42 622 85 q 333 0 490 0 l 56 0 l 56 388 m 335 206 q 385 219 372 206 q 400 280 397 232 q 403 478 403 328 q 400 676 403 628 q 385 738 397 725 q 335 750 372 750 l 304 750 l 304 579 l 364 579 l 364 388 l 304 388 l 304 206 l 335 206 z "},"Ḍ":{"ha":694,"x_min":56,"x_max":653,"o":"m 56 956 l 333 956 q 556 913 490 956 q 638 781 622 871 q 653 478 653 692 q 638 174 653 264 q 556 42 622 85 q 333 0 490 0 l 56 0 l 56 956 m 335 206 q 385 219 372 206 q 400 280 397 232 q 403 478 403 328 q 400 676 403 628 q 385 738 397 725 q 335 750 372 750 l 304 750 l 304 206 l 335 206 m 225 -297 l 225 -86 l 469 -86 l 469 -297 l 225 -297 z "},"ǲ":{"ha":1264,"x_min":56,"x_max":1225,"o":"m 56 956 l 333 956 q 556 913 490 956 q 638 781 622 871 q 653 478 653 692 q 638 174 653 264 q 556 42 622 85 q 333 0 490 0 l 56 0 l 56 956 m 335 206 q 385 219 372 206 q 400 280 397 232 q 403 478 403 328 q 400 676 403 628 q 385 738 397 725 q 335 750 372 750 l 304 750 l 304 206 l 335 206 m 733 0 l 733 169 l 950 526 l 743 526 l 743 708 l 1222 708 l 1222 539 l 1006 182 l 1225 182 l 1225 0 l 733 0 z "},"ǅ":{"ha":1264,"x_min":56,"x_max":1225,"o":"m 56 956 l 333 956 q 556 913 490 956 q 638 781 622 871 q 653 478 653 692 q 638 174 653 264 q 556 42 622 85 q 333 0 490 0 l 56 0 l 56 956 m 335 206 q 385 219 372 206 q 400 280 397 232 q 403 478 403 328 q 400 676 403 628 q 385 738 397 725 q 335 750 372 750 l 304 750 l 304 206 l 335 206 m 733 0 l 733 169 l 950 526 l 743 526 l 743 708 l 1222 708 l 1222 539 l 1006 182 l 1225 182 l 1225 0 l 733 0 m 872 850 l 771 1019 l 771 1032 l 924 1032 l 983 947 l 1043 1032 l 1196 1032 l 1196 1019 l 1092 850 l 872 850 z "},"E":{"ha":592,"x_min":56,"x_max":546,"o":"m 56 0 l 56 956 l 546 956 l 546 750 l 306 750 l 306 585 l 510 585 l 510 381 l 306 381 l 306 206 l 546 206 l 546 0 l 56 0 z "},"É":{"ha":592,"x_min":56,"x_max":546,"o":"m 56 0 l 56 956 l 546 956 l 546 750 l 306 750 l 306 585 l 510 585 l 510 381 l 306 381 l 306 206 l 546 206 l 546 0 l 56 0 m 207 1042 l 207 1049 l 279 1247 l 500 1247 l 500 1240 l 385 1042 l 207 1042 z "},"Ĕ":{"ha":592,"x_min":56,"x_max":546,"o":"m 56 0 l 56 956 l 546 956 l 546 750 l 306 750 l 306 585 l 510 585 l 510 381 l 306 381 l 306 206 l 546 206 l 546 0 l 56 0 m 492 1233 q 477 1131 492 1171 q 420 1067 463 1090 q 299 1043 378 1043 q 177 1067 219 1043 q 120 1131 135 1090 q 106 1233 106 1171 l 238 1233 q 248 1184 238 1200 q 299 1168 258 1168 q 349 1184 339 1168 q 360 1233 360 1200 l 492 1233 z "},"Ě":{"ha":592,"x_min":56,"x_max":546,"o":"m 56 0 l 56 956 l 546 956 l 546 750 l 306 750 l 306 585 l 510 585 l 510 381 l 306 381 l 306 206 l 546 206 l 546 0 l 56 0 m 189 1051 l 88 1221 l 88 1233 l 240 1233 l 300 1149 l 360 1233 l 513 1233 l 513 1221 l 408 1051 l 189 1051 z "},"Ê":{"ha":592,"x_min":56,"x_max":546,"o":"m 56 0 l 56 956 l 546 956 l 546 750 l 306 750 l 306 585 l 510 585 l 510 381 l 306 381 l 306 206 l 546 206 l 546 0 l 56 0 m 88 1042 l 88 1053 l 189 1224 l 408 1224 l 513 1053 l 513 1042 l 360 1042 l 299 1126 l 240 1042 l 88 1042 z "},"Ế":{"ha":592,"x_min":56,"x_max":614,"o":"m 56 0 l 56 956 l 546 956 l 546 750 l 306 750 l 306 585 l 510 585 l 510 381 l 306 381 l 306 206 l 546 206 l 546 0 l 56 0 m 88 1013 l 88 1024 l 189 1194 l 408 1194 l 513 1024 l 513 1013 l 360 1013 l 299 1097 l 240 1013 l 88 1013 m 321 1229 l 321 1236 l 393 1435 l 614 1435 l 614 1428 l 499 1229 l 321 1229 z "},"Ệ":{"ha":592,"x_min":56,"x_max":546,"o":"m 56 0 l 56 956 l 546 956 l 546 750 l 306 750 l 306 585 l 510 585 l 510 381 l 306 381 l 306 206 l 546 206 l 546 0 l 56 0 m 178 -297 l 178 -86 l 422 -86 l 422 -297 l 178 -297 m 88 1051 l 88 1063 l 189 1233 l 408 1233 l 513 1063 l 513 1051 l 360 1051 l 299 1136 l 240 1051 l 88 1051 z "},"Ề":{"ha":592,"x_min":56,"x_max":546,"o":"m 56 0 l 56 956 l 546 956 l 546 750 l 306 750 l 306 585 l 510 585 l 510 381 l 306 381 l 306 206 l 546 206 l 546 0 l 56 0 m 71 1013 l 71 1024 l 172 1194 l 392 1194 l 496 1024 l 496 1013 l 343 1013 l 282 1097 l 224 1013 l 71 1013 m 350 1229 l 236 1428 l 236 1435 l 456 1435 l 529 1236 l 529 1229 l 350 1229 z "},"Ể":{"ha":592,"x_min":56,"x_max":663,"o":"m 56 0 l 56 956 l 546 956 l 546 750 l 306 750 l 306 585 l 510 585 l 510 381 l 306 381 l 306 206 l 546 206 l 546 0 l 56 0 m 88 1014 l 88 1025 l 189 1196 l 408 1196 l 513 1025 l 513 1014 l 360 1014 l 299 1099 l 240 1014 l 88 1014 m 376 1253 q 388 1307 376 1290 q 431 1333 399 1324 l 446 1338 q 494 1356 483 1350 q 504 1378 504 1363 q 496 1395 504 1392 q 461 1399 488 1399 q 304 1396 399 1399 l 304 1511 q 479 1531 392 1531 q 576 1523 539 1531 q 638 1488 614 1515 q 663 1406 663 1461 q 646 1326 663 1350 q 581 1283 629 1303 l 567 1276 q 528 1260 539 1265 q 514 1247 517 1254 q 511 1225 511 1240 l 376 1225 l 376 1253 z "},"Ễ":{"ha":592,"x_min":56,"x_max":546,"o":"m 56 0 l 56 956 l 546 956 l 546 750 l 306 750 l 306 585 l 510 585 l 510 381 l 306 381 l 306 206 l 546 206 l 546 0 l 56 0 m 85 1013 l 85 1024 l 186 1194 l 406 1194 l 510 1024 l 510 1013 l 357 1013 l 296 1097 l 238 1013 l 85 1013 m 526 1435 q 521 1320 526 1358 q 491 1260 515 1282 q 411 1238 467 1238 q 286 1257 358 1238 q 253 1263 276 1258 q 218 1268 231 1268 q 199 1259 203 1268 q 196 1221 196 1250 l 71 1221 q 76 1335 71 1297 q 107 1396 82 1374 q 188 1418 132 1418 q 249 1412 215 1418 q 313 1399 283 1406 q 345 1392 322 1397 q 381 1388 368 1388 q 399 1397 396 1388 q 403 1435 403 1406 l 526 1435 z "},"Ȅ":{"ha":592,"x_min":35,"x_max":546,"o":"m 56 0 l 56 956 l 546 956 l 546 750 l 306 750 l 306 585 l 510 585 l 510 381 l 306 381 l 306 206 l 546 206 l 546 0 l 56 0 m 269 1051 l 124 1051 l 35 1207 l 35 1213 l 213 1213 l 269 1057 l 269 1051 m 479 1051 l 333 1051 l 246 1207 l 246 1213 l 424 1213 l 479 1057 l 479 1051 z "},"Ë":{"ha":592,"x_min":56,"x_max":546,"o":"m 56 0 l 56 956 l 546 956 l 546 750 l 306 750 l 306 585 l 510 585 l 510 381 l 306 381 l 306 206 l 546 206 l 546 0 l 56 0 m 82 1067 l 82 1226 l 271 1226 l 271 1067 l 82 1067 m 333 1067 l 333 1226 l 522 1226 l 522 1067 l 333 1067 z "},"Ė":{"ha":592,"x_min":56,"x_max":546,"o":"m 56 0 l 56 956 l 546 956 l 546 750 l 306 750 l 306 585 l 510 585 l 510 381 l 306 381 l 306 206 l 546 206 l 546 0 l 56 0 m 206 1056 l 206 1215 l 394 1215 l 394 1056 l 206 1056 z "},"Ẹ":{"ha":592,"x_min":56,"x_max":546,"o":"m 56 0 l 56 956 l 546 956 l 546 750 l 306 750 l 306 585 l 510 585 l 510 381 l 306 381 l 306 206 l 546 206 l 546 0 l 56 0 m 178 -297 l 178 -86 l 422 -86 l 422 -297 l 178 -297 z "},"È":{"ha":592,"x_min":56,"x_max":546,"o":"m 56 0 l 56 956 l 546 956 l 546 750 l 306 750 l 306 585 l 510 585 l 510 381 l 306 381 l 306 206 l 546 206 l 546 0 l 56 0 m 235 1042 l 121 1240 l 121 1247 l 340 1247 l 414 1049 l 414 1042 l 235 1042 z "},"Ẻ":{"ha":592,"x_min":56,"x_max":546,"o":"m 56 0 l 56 956 l 546 956 l 546 750 l 306 750 l 306 585 l 510 585 l 510 381 l 306 381 l 306 206 l 546 206 l 546 0 l 56 0 m 193 1038 q 204 1092 193 1075 q 247 1118 215 1108 l 263 1124 q 310 1142 299 1135 q 321 1163 321 1149 q 310 1181 321 1178 q 264 1185 300 1185 q 121 1182 207 1185 l 121 1297 q 296 1317 208 1317 q 392 1309 354 1317 q 455 1274 431 1301 q 479 1192 479 1246 q 463 1113 479 1136 q 397 1068 446 1089 l 383 1063 q 344 1045 354 1051 q 331 1032 333 1039 q 328 1010 328 1025 l 193 1010 l 193 1038 z "},"Ȇ":{"ha":592,"x_min":56,"x_max":546,"o":"m 56 0 l 56 956 l 546 956 l 546 750 l 306 750 l 306 585 l 510 585 l 510 381 l 306 381 l 306 206 l 546 206 l 546 0 l 56 0 m 106 1051 q 120 1154 106 1114 q 177 1218 135 1194 q 299 1242 219 1242 q 420 1218 378 1242 q 477 1154 463 1194 q 492 1051 492 1114 l 360 1051 q 349 1101 360 1085 q 299 1117 339 1117 q 248 1101 258 1117 q 238 1051 238 1085 l 106 1051 z "},"Ē":{"ha":592,"x_min":56,"x_max":546,"o":"m 56 0 l 56 956 l 546 956 l 546 750 l 306 750 l 306 585 l 510 585 l 510 381 l 306 381 l 306 206 l 546 206 l 546 0 l 56 0 m 149 1039 l 149 1233 l 450 1233 l 450 1039 l 149 1039 z "},"Ę":{"ha":592,"x_min":56,"x_max":546,"o":"m 444 -272 q 323 -237 360 -272 q 286 -153 286 -203 q 376 0 286 -74 l 56 0 l 56 956 l 546 956 l 546 750 l 306 750 l 306 585 l 510 585 l 510 381 l 306 381 l 306 206 l 546 206 l 546 0 q 488 -49 514 -19 q 463 -111 463 -78 q 515 -156 463 -156 l 532 -154 l 532 -265 q 444 -272 494 -272 z "},"Ẽ":{"ha":592,"x_min":56,"x_max":546,"o":"m 56 0 l 56 956 l 546 956 l 546 750 l 306 750 l 306 585 l 510 585 l 510 381 l 306 381 l 306 206 l 546 206 l 546 0 l 56 0 m 526 1233 q 521 1119 526 1157 q 491 1058 515 1081 q 411 1036 467 1036 q 286 1056 358 1036 q 253 1062 276 1057 q 218 1067 231 1067 q 199 1058 203 1067 q 196 1019 196 1049 l 71 1019 q 76 1134 71 1096 q 107 1194 82 1172 q 188 1217 132 1217 q 249 1210 215 1217 q 313 1197 283 1204 q 345 1191 322 1196 q 381 1186 368 1186 q 399 1195 396 1186 q 403 1233 403 1204 l 526 1233 z "},"F":{"ha":551,"x_min":56,"x_max":524,"o":"m 56 0 l 56 956 l 524 956 l 524 750 l 306 750 l 306 558 l 494 558 l 494 353 l 306 353 l 306 0 l 56 0 z "},"G":{"ha":686,"x_min":42,"x_max":636,"o":"m 356 378 l 356 574 l 636 574 l 636 19 q 508 -3 583 6 q 367 -11 432 -11 q 163 30 231 -11 q 68 173 94 71 q 42 478 42 275 q 69 783 42 681 q 169 926 97 885 q 383 967 240 967 q 508 958 438 967 q 633 938 579 950 l 633 747 q 453 761 500 761 q 337 748 367 761 q 297 681 307 735 q 288 478 288 626 q 293 282 288 339 q 316 206 299 225 q 376 188 333 188 l 415 189 l 415 378 l 356 378 z "},"Ǵ":{"ha":686,"x_min":42,"x_max":636,"o":"m 356 378 l 356 574 l 636 574 l 636 19 q 508 -3 583 6 q 367 -11 432 -11 q 163 30 231 -11 q 68 173 94 71 q 42 478 42 275 q 69 783 42 681 q 169 926 97 885 q 383 967 240 967 q 508 958 438 967 q 633 938 579 950 l 633 747 q 453 761 500 761 q 337 748 367 761 q 297 681 307 735 q 288 478 288 626 q 293 282 288 339 q 316 206 299 225 q 376 188 333 188 l 415 189 l 415 378 l 356 378 m 254 1028 l 254 1035 l 326 1233 l 547 1233 l 547 1226 l 432 1028 l 254 1028 z "},"Ğ":{"ha":686,"x_min":42,"x_max":636,"o":"m 356 378 l 356 574 l 636 574 l 636 19 q 508 -3 583 6 q 367 -11 432 -11 q 163 30 231 -11 q 68 173 94 71 q 42 478 42 275 q 69 783 42 681 q 169 926 97 885 q 383 967 240 967 q 508 958 438 967 q 633 938 579 950 l 633 747 q 453 761 500 761 q 337 748 367 761 q 297 681 307 735 q 288 478 288 626 q 293 282 288 339 q 316 206 299 225 q 376 188 333 188 l 415 189 l 415 378 l 356 378 m 533 1233 q 519 1131 533 1171 q 462 1067 504 1090 q 340 1043 419 1043 q 219 1067 261 1043 q 162 1131 176 1090 q 147 1233 147 1171 l 279 1233 q 290 1184 279 1200 q 340 1168 300 1168 q 391 1184 381 1168 q 401 1233 401 1200 l 533 1233 z "},"Ǧ":{"ha":686,"x_min":42,"x_max":636,"o":"m 356 378 l 356 574 l 636 574 l 636 19 q 508 -3 583 6 q 367 -11 432 -11 q 163 30 231 -11 q 68 173 94 71 q 42 478 42 275 q 69 783 42 681 q 169 926 97 885 q 383 967 240 967 q 508 958 438 967 q 633 938 579 950 l 633 747 q 453 761 500 761 q 337 748 367 761 q 297 681 307 735 q 288 478 288 626 q 293 282 288 339 q 316 206 299 225 q 376 188 333 188 l 415 189 l 415 378 l 356 378 m 231 1051 l 129 1221 l 129 1233 l 282 1233 l 342 1149 l 401 1233 l 554 1233 l 554 1221 l 450 1051 l 231 1051 z "},"Ĝ":{"ha":686,"x_min":42,"x_max":636,"o":"m 356 378 l 356 574 l 636 574 l 636 19 q 508 -3 583 6 q 367 -11 432 -11 q 163 30 231 -11 q 68 173 94 71 q 42 478 42 275 q 69 783 42 681 q 169 926 97 885 q 383 967 240 967 q 508 958 438 967 q 633 938 579 950 l 633 747 q 453 761 500 761 q 337 748 367 761 q 297 681 307 735 q 288 478 288 626 q 293 282 288 339 q 316 206 299 225 q 376 188 333 188 l 415 189 l 415 378 l 356 378 m 129 1051 l 129 1063 l 231 1233 l 450 1233 l 554 1063 l 554 1051 l 401 1051 l 340 1136 l 282 1051 l 129 1051 z "},"Ģ":{"ha":686,"x_min":42,"x_max":636,"o":"m 356 378 l 356 574 l 636 574 l 636 19 q 508 -3 583 6 q 367 -11 432 -11 q 163 30 231 -11 q 68 173 94 71 q 42 478 42 275 q 69 783 42 681 q 169 926 97 885 q 383 967 240 967 q 508 958 438 967 q 633 938 579 950 l 633 747 q 453 761 500 761 q 337 748 367 761 q 297 681 307 735 q 288 478 288 626 q 293 282 288 339 q 316 206 299 225 q 376 188 333 188 l 415 189 l 415 378 l 356 378 m 231 -308 q 295 -297 281 -308 q 310 -250 310 -285 l 310 -235 l 228 -235 l 228 -83 l 457 -83 l 457 -174 q 442 -315 457 -269 q 379 -381 426 -361 q 231 -401 332 -401 l 231 -308 z "},"Ġ":{"ha":686,"x_min":42,"x_max":636,"o":"m 356 378 l 356 574 l 636 574 l 636 19 q 508 -3 583 6 q 367 -11 432 -11 q 163 30 231 -11 q 68 173 94 71 q 42 478 42 275 q 69 783 42 681 q 169 926 97 885 q 383 967 240 967 q 508 958 438 967 q 633 938 579 950 l 633 747 q 453 761 500 761 q 337 748 367 761 q 297 681 307 735 q 288 478 288 626 q 293 282 288 339 q 316 206 299 225 q 376 188 333 188 l 415 189 l 415 378 l 356 378 m 247 1056 l 247 1215 l 436 1215 l 436 1056 l 247 1056 z "},"H":{"ha":722,"x_min":56,"x_max":667,"o":"m 417 0 l 417 369 l 306 369 l 306 0 l 56 0 l 56 956 l 306 956 l 306 592 l 417 592 l 417 956 l 667 956 l 667 0 l 417 0 z "},"Ħ":{"ha":722,"x_min":56,"x_max":667,"o":"m 417 956 l 667 956 l 667 0 l 417 0 l 417 314 l 306 314 l 306 0 l 56 0 l 56 956 l 306 956 l 306 850 l 417 850 l 417 956 m 306 536 l 417 536 l 417 657 l 306 657 l 306 536 z "},"Ĥ":{"ha":722,"x_min":56,"x_max":667,"o":"m 417 0 l 417 369 l 306 369 l 306 0 l 56 0 l 56 956 l 306 956 l 306 592 l 417 592 l 417 956 l 667 956 l 667 0 l 417 0 m 149 1051 l 149 1063 l 250 1233 l 469 1233 l 574 1063 l 574 1051 l 421 1051 l 360 1136 l 301 1051 l 149 1051 z "},"Ḥ":{"ha":722,"x_min":56,"x_max":667,"o":"m 417 0 l 417 369 l 306 369 l 306 0 l 56 0 l 56 956 l 306 956 l 306 592 l 417 592 l 417 956 l 667 956 l 667 0 l 417 0 m 239 -297 l 239 -86 l 483 -86 l 483 -297 l 239 -297 z "},"I":{"ha":361,"x_min":56,"x_max":306,"o":"m 56 0 l 56 956 l 306 956 l 306 0 l 56 0 z "},"Ĳ":{"ha":814,"x_min":56,"x_max":763,"o":"m 56 0 l 56 956 l 306 956 l 306 0 l 56 0 m 374 193 q 469 202 443 193 q 503 240 496 211 q 511 347 511 269 l 511 956 l 763 956 l 763 456 q 742 134 763 219 q 648 24 721 49 q 374 0 575 0 l 374 193 z "},"Í":{"ha":361,"x_min":56,"x_max":353,"o":"m 56 0 l 56 956 l 306 956 l 306 0 l 56 0 m 60 1042 l 60 1049 l 132 1247 l 353 1247 l 353 1240 l 238 1042 l 60 1042 z "},"Ĭ":{"ha":361,"x_min":-14,"x_max":372,"o":"m 56 0 l 56 956 l 306 956 l 306 0 l 56 0 m 372 1233 q 358 1131 372 1171 q 301 1067 343 1090 q 179 1043 258 1043 q 58 1067 100 1043 q 1 1131 15 1090 q -14 1233 -14 1171 l 118 1233 q 128 1184 118 1200 q 179 1168 139 1168 q 230 1184 219 1168 q 240 1233 240 1200 l 372 1233 z "},"Ǐ":{"ha":361,"x_min":-32,"x_max":393,"o":"m 56 0 l 56 956 l 306 956 l 306 0 l 56 0 m 69 1051 l -32 1221 l -32 1233 l 121 1233 l 181 1149 l 240 1233 l 393 1233 l 393 1221 l 289 1051 l 69 1051 z "},"Î":{"ha":361,"x_min":-32,"x_max":393,"o":"m 56 0 l 56 956 l 306 956 l 306 0 l 56 0 m -32 1042 l -32 1053 l 69 1224 l 289 1224 l 393 1053 l 393 1042 l 240 1042 l 179 1126 l 121 1042 l -32 1042 z "},"Ȉ":{"ha":361,"x_min":-85,"x_max":360,"o":"m 56 0 l 56 956 l 306 956 l 306 0 l 56 0 m 150 1051 l 4 1051 l -85 1207 l -85 1213 l 93 1213 l 150 1057 l 150 1051 m 360 1051 l 214 1051 l 126 1207 l 126 1213 l 304 1213 l 360 1057 l 360 1051 z "},"Ï":{"ha":361,"x_min":-40,"x_max":400,"o":"m 56 0 l 56 956 l 306 956 l 306 0 l 56 0 m -40 1079 l -40 1239 l 149 1239 l 149 1079 l -40 1079 m 211 1079 l 211 1239 l 400 1239 l 400 1079 l 211 1079 z "},"İ":{"ha":361,"x_min":56,"x_max":306,"o":"m 56 0 l 56 956 l 306 956 l 306 0 l 56 0 m 86 1056 l 86 1215 l 275 1215 l 275 1056 l 86 1056 z "},"Ị":{"ha":361,"x_min":56,"x_max":306,"o":"m 56 0 l 56 956 l 306 956 l 306 0 l 56 0 m 58 -297 l 58 -86 l 303 -86 l 303 -297 l 58 -297 z "},"Ì":{"ha":361,"x_min":13,"x_max":306,"o":"m 56 0 l 56 956 l 306 956 l 306 0 l 56 0 m 126 1042 l 13 1240 l 13 1247 l 232 1247 l 306 1049 l 306 1042 l 126 1042 z "},"Ỉ":{"ha":361,"x_min":1,"x_max":360,"o":"m 56 0 l 56 956 l 306 956 l 306 0 l 56 0 m 74 1038 q 85 1092 74 1075 q 128 1118 96 1108 l 143 1124 q 190 1142 179 1135 q 201 1163 201 1149 q 191 1181 201 1178 q 144 1185 181 1185 q 1 1182 88 1185 l 1 1297 q 176 1317 89 1317 q 273 1309 235 1317 q 335 1274 311 1301 q 360 1192 360 1246 q 343 1113 360 1136 q 278 1068 326 1089 l 264 1063 q 224 1045 235 1051 q 211 1032 214 1039 q 208 1010 208 1025 l 74 1010 l 74 1038 z "},"Ȋ":{"ha":361,"x_min":-14,"x_max":372,"o":"m 56 0 l 56 956 l 306 956 l 306 0 l 56 0 m -14 1051 q 1 1154 -14 1114 q 58 1218 15 1194 q 179 1242 100 1242 q 301 1218 258 1242 q 358 1154 343 1194 q 372 1051 372 1114 l 240 1051 q 230 1101 240 1085 q 179 1117 219 1117 q 128 1101 139 1117 q 118 1051 118 1085 l -14 1051 z "},"Ī":{"ha":361,"x_min":29,"x_max":331,"o":"m 56 0 l 56 956 l 306 956 l 306 0 l 56 0 m 29 1039 l 29 1233 l 331 1233 l 331 1039 l 29 1039 z "},"Į":{"ha":361,"x_min":56,"x_max":307,"o":"m 217 -272 q 97 -237 133 -272 q 60 -147 60 -203 q 81 -72 60 -111 q 136 0 101 -33 l 56 0 l 56 956 l 306 956 l 306 0 q 259 -48 281 -18 q 238 -107 238 -78 q 290 -156 238 -156 l 307 -154 l 307 -265 q 217 -272 269 -272 z "},"Ĩ":{"ha":361,"x_min":-49,"x_max":407,"o":"m 56 0 l 56 956 l 306 956 l 306 0 l 56 0 m 407 1233 q 401 1119 407 1157 q 372 1058 396 1081 q 292 1036 347 1036 q 167 1056 239 1036 q 134 1062 157 1057 q 99 1067 111 1067 q 80 1058 83 1067 q 76 1019 76 1049 l -49 1019 q -43 1134 -49 1096 q -12 1194 -37 1172 q 68 1217 13 1217 q 130 1210 96 1217 q 193 1197 164 1204 q 226 1191 203 1196 q 261 1186 249 1186 q 280 1195 276 1186 q 283 1233 283 1204 l 407 1233 z "},"J":{"ha":453,"x_min":13,"x_max":401,"o":"m 13 193 q 108 202 82 193 q 142 240 135 211 q 150 347 150 269 l 150 956 l 401 956 l 401 456 q 381 134 401 219 q 287 24 360 49 q 13 0 214 0 l 13 193 z "},"Ĵ":{"ha":453,"x_min":13,"x_max":488,"o":"m 13 193 q 108 202 82 193 q 142 240 135 211 q 150 347 150 269 l 150 956 l 401 956 l 401 456 q 381 134 401 219 q 287 24 360 49 q 13 0 214 0 l 13 193 m 63 1051 l 63 1063 l 164 1233 l 383 1233 l 488 1063 l 488 1051 l 335 1051 l 274 1136 l 215 1051 l 63 1051 z "},"K":{"ha":707,"x_min":56,"x_max":704,"o":"m 439 0 l 324 379 l 306 379 l 306 0 l 56 0 l 56 956 l 306 956 l 306 590 l 324 590 l 443 956 l 701 956 l 522 500 l 704 0 l 439 0 z "},"Ķ":{"ha":707,"x_min":56,"x_max":704,"o":"m 439 0 l 324 379 l 306 379 l 306 0 l 56 0 l 56 956 l 306 956 l 306 590 l 324 590 l 443 956 l 701 956 l 522 500 l 704 0 l 439 0 m 243 -308 q 308 -297 293 -308 q 322 -250 322 -285 l 322 -235 l 240 -235 l 240 -83 l 469 -83 l 469 -174 q 454 -315 469 -269 q 392 -381 439 -361 q 243 -401 344 -401 l 243 -308 z "},"L":{"ha":535,"x_min":56,"x_max":517,"o":"m 56 0 l 56 956 l 306 956 l 306 213 l 517 213 l 517 0 l 56 0 z "},"Ǉ":{"ha":988,"x_min":56,"x_max":936,"o":"m 56 0 l 56 956 l 306 956 l 306 213 l 517 213 l 517 0 l 56 0 m 547 193 q 643 202 617 193 q 677 240 669 211 q 685 347 685 269 l 685 956 l 936 956 l 936 456 q 915 134 936 219 q 822 24 894 49 q 547 0 749 0 l 547 193 z "},"Ĺ":{"ha":535,"x_min":56,"x_max":517,"o":"m 56 0 l 56 956 l 306 956 l 306 213 l 517 213 l 517 0 l 56 0 m 93 1028 l 93 1035 l 165 1233 l 386 1233 l 386 1226 l 271 1028 l 93 1028 z "},"Ľ":{"ha":535,"x_min":56,"x_max":604,"o":"m 56 0 l 56 956 l 306 956 l 306 213 l 517 213 l 517 0 l 56 0 m 376 583 l 394 894 l 394 956 l 604 956 l 604 894 l 540 583 l 376 583 z "},"Ļ":{"ha":535,"x_min":56,"x_max":517,"o":"m 56 0 l 56 956 l 306 956 l 306 213 l 517 213 l 517 0 l 56 0 m 161 -308 q 226 -297 211 -308 q 240 -250 240 -285 l 240 -235 l 158 -235 l 158 -83 l 388 -83 l 388 -174 q 372 -315 388 -269 q 310 -381 357 -361 q 161 -401 263 -401 l 161 -308 z "},"Ŀ":{"ha":597,"x_min":56,"x_max":603,"o":"m 56 0 l 56 956 l 306 956 l 306 213 l 517 213 l 517 0 l 56 0 m 358 425 l 358 636 l 603 636 l 603 425 l 358 425 z "},"ǈ":{"ha":865,"x_min":56,"x_max":817,"o":"m 56 0 l 56 956 l 306 956 l 306 213 l 517 213 l 517 0 l 56 0 m 583 839 l 583 1032 l 817 1032 l 817 839 l 583 839 m 507 -111 q 559 -104 543 -111 q 579 -83 575 -97 q 583 -40 583 -69 l 583 708 l 817 708 l 817 49 q 792 -169 817 -103 q 707 -255 768 -235 q 507 -275 646 -275 l 507 -111 z "},"Ł":{"ha":535,"x_min":0,"x_max":517,"o":"m 306 213 l 517 213 l 517 0 l 56 0 l 56 344 l 0 324 l 0 508 l 56 529 l 56 956 l 306 956 l 306 622 l 431 668 l 431 483 l 306 438 l 306 213 z "},"M":{"ha":1004,"x_min":56,"x_max":950,"o":"m 710 0 l 710 649 l 697 649 l 606 0 l 393 0 l 303 649 l 289 649 l 289 0 l 56 0 l 56 956 l 425 956 l 500 375 l 511 375 l 585 956 l 950 956 l 950 0 l 710 0 z "},"N":{"ha":731,"x_min":56,"x_max":675,"o":"m 454 0 l 300 431 l 293 431 l 293 0 l 56 0 l 56 956 l 296 956 l 429 585 l 438 585 l 438 956 l 675 956 l 675 0 l 454 0 z "},"Ǌ":{"ha":1183,"x_min":56,"x_max":1132,"o":"m 454 0 l 300 431 l 293 431 l 293 0 l 56 0 l 56 956 l 296 956 l 429 585 l 438 585 l 438 956 l 675 956 l 675 0 l 454 0 m 743 193 q 839 202 813 193 q 873 240 865 211 q 881 347 881 269 l 881 956 l 1132 956 l 1132 456 q 1111 134 1132 219 q 1017 24 1090 49 q 743 0 944 0 l 743 193 z "},"Ń":{"ha":731,"x_min":56,"x_max":675,"o":"m 454 0 l 300 431 l 293 431 l 293 0 l 56 0 l 56 956 l 296 956 l 429 585 l 438 585 l 438 956 l 675 956 l 675 0 l 454 0 m 279 1028 l 279 1035 l 351 1233 l 572 1233 l 572 1226 l 457 1028 l 279 1028 z "},"Ň":{"ha":731,"x_min":56,"x_max":675,"o":"m 454 0 l 300 431 l 293 431 l 293 0 l 56 0 l 56 956 l 296 956 l 429 585 l 438 585 l 438 956 l 675 956 l 675 0 l 454 0 m 256 1051 l 154 1221 l 154 1233 l 307 1233 l 367 1149 l 426 1233 l 579 1233 l 579 1221 l 475 1051 l 256 1051 z "},"Ņ":{"ha":731,"x_min":56,"x_max":675,"o":"m 454 0 l 300 431 l 293 431 l 293 0 l 56 0 l 56 956 l 296 956 l 429 585 l 438 585 l 438 956 l 675 956 l 675 0 l 454 0 m 256 -308 q 320 -297 306 -308 q 335 -250 335 -285 l 335 -235 l 253 -235 l 253 -83 l 482 -83 l 482 -174 q 467 -315 482 -269 q 404 -381 451 -361 q 256 -401 357 -401 l 256 -308 z "},"Ṅ":{"ha":731,"x_min":56,"x_max":675,"o":"m 454 0 l 300 431 l 293 431 l 293 0 l 56 0 l 56 956 l 296 956 l 429 585 l 438 585 l 438 956 l 675 956 l 675 0 l 454 0 m 272 1056 l 272 1215 l 461 1215 l 461 1056 l 272 1056 z "},"Ŋ":{"ha":731,"x_min":56,"x_max":675,"o":"m 675 956 l 675 17 q 647 -178 672 -118 q 559 -257 621 -239 q 361 -275 497 -275 l 361 -111 q 415 -104 399 -111 q 435 -83 431 -97 q 439 -40 439 -69 l 439 49 l 300 431 l 293 431 l 293 0 l 56 0 l 56 956 l 296 956 l 429 585 l 438 585 l 438 956 l 675 956 z "},"Ɲ":{"ha":731,"x_min":-21,"x_max":675,"o":"m 675 956 l 675 0 l 454 0 l 300 431 l 293 431 l 293 49 q 269 -169 293 -103 q 183 -255 244 -235 q -21 -275 121 -275 l -21 -111 q 31 -104 15 -111 q 51 -83 47 -97 q 56 -40 56 -69 l 56 956 l 296 956 l 429 585 l 438 585 l 438 956 l 675 956 z "},"ǋ":{"ha":1061,"x_min":56,"x_max":1013,"o":"m 454 0 l 300 431 l 293 431 l 293 0 l 56 0 l 56 956 l 296 956 l 429 585 l 438 585 l 438 956 l 675 956 l 675 0 l 454 0 m 779 839 l 779 1032 l 1013 1032 l 1013 839 l 779 839 m 703 -111 q 755 -104 739 -111 q 775 -83 771 -97 q 779 -40 779 -69 l 779 708 l 1013 708 l 1013 49 q 988 -169 1013 -103 q 903 -255 964 -235 q 703 -275 842 -275 l 703 -111 z "},"Ñ":{"ha":731,"x_min":56,"x_max":675,"o":"m 454 0 l 300 431 l 293 431 l 293 0 l 56 0 l 56 956 l 296 956 l 429 585 l 438 585 l 438 956 l 675 956 l 675 0 l 454 0 m 593 1257 q 588 1142 593 1181 q 558 1082 582 1104 q 478 1060 533 1060 q 353 1079 425 1060 q 320 1085 343 1081 q 285 1090 297 1090 q 266 1081 269 1090 q 263 1043 263 1072 l 138 1043 q 143 1158 138 1119 q 174 1218 149 1196 q 254 1240 199 1240 q 316 1234 282 1240 q 379 1221 350 1228 q 412 1215 389 1219 q 447 1210 435 1210 q 466 1219 463 1210 q 469 1257 469 1228 l 593 1257 z "},"O":{"ha":707,"x_min":42,"x_max":665,"o":"m 353 -11 q 135 33 200 -11 q 56 169 71 76 q 42 478 42 261 q 56 788 42 696 q 135 923 71 879 q 353 967 200 967 q 570 923 506 967 q 650 787 635 879 q 665 478 665 694 q 650 169 665 261 q 570 33 635 78 q 353 -11 506 -11 m 353 194 q 397 208 386 194 q 411 272 408 221 q 414 478 414 322 q 411 684 414 633 q 397 748 408 735 q 353 761 386 761 q 309 748 319 761 q 296 684 299 735 q 293 478 293 633 q 296 272 293 322 q 309 208 299 221 q 353 194 319 194 z "},"Ó":{"ha":707,"x_min":42,"x_max":665,"o":"m 353 -11 q 135 33 200 -11 q 56 169 71 76 q 42 478 42 261 q 56 788 42 696 q 135 923 71 879 q 353 967 200 967 q 570 923 506 967 q 650 787 635 879 q 665 478 665 694 q 650 169 665 261 q 570 33 635 78 q 353 -11 506 -11 m 353 194 q 397 208 386 194 q 411 272 408 221 q 414 478 414 322 q 411 684 414 633 q 397 748 408 735 q 353 761 386 761 q 309 748 319 761 q 296 684 299 735 q 293 478 293 633 q 296 272 293 322 q 309 208 299 221 q 353 194 319 194 m 254 1042 l 254 1049 l 326 1247 l 547 1247 l 547 1240 l 432 1042 l 254 1042 z "},"Ŏ":{"ha":707,"x_min":42,"x_max":665,"o":"m 353 -11 q 135 33 200 -11 q 56 169 71 76 q 42 478 42 261 q 56 788 42 696 q 135 923 71 879 q 353 967 200 967 q 570 923 506 967 q 650 787 635 879 q 665 478 665 694 q 650 169 665 261 q 570 33 635 78 q 353 -11 506 -11 m 353 194 q 397 208 386 194 q 411 272 408 221 q 414 478 414 322 q 411 684 414 633 q 397 748 408 735 q 353 761 386 761 q 309 748 319 761 q 296 684 299 735 q 293 478 293 633 q 296 272 293 322 q 309 208 299 221 q 353 194 319 194 m 546 1233 q 531 1131 546 1171 q 474 1067 517 1090 q 353 1043 432 1043 q 231 1067 274 1043 q 174 1131 189 1090 q 160 1233 160 1171 l 292 1233 q 302 1184 292 1200 q 353 1168 313 1168 q 403 1184 393 1168 q 414 1233 414 1200 l 546 1233 z "},"Ǒ":{"ha":707,"x_min":42,"x_max":665,"o":"m 353 -11 q 135 33 200 -11 q 56 169 71 76 q 42 478 42 261 q 56 788 42 696 q 135 923 71 879 q 353 967 200 967 q 570 923 506 967 q 650 787 635 879 q 665 478 665 694 q 650 169 665 261 q 570 33 635 78 q 353 -11 506 -11 m 353 194 q 397 208 386 194 q 411 272 408 221 q 414 478 414 322 q 411 684 414 633 q 397 748 408 735 q 353 761 386 761 q 309 748 319 761 q 296 684 299 735 q 293 478 293 633 q 296 272 293 322 q 309 208 299 221 q 353 194 319 194 m 243 1051 l 142 1221 l 142 1233 l 294 1233 l 354 1149 l 414 1233 l 567 1233 l 567 1221 l 463 1051 l 243 1051 z "},"Ô":{"ha":707,"x_min":42,"x_max":665,"o":"m 353 -11 q 135 33 200 -11 q 56 169 71 76 q 42 478 42 261 q 56 788 42 696 q 135 923 71 879 q 353 967 200 967 q 570 923 506 967 q 650 787 635 879 q 665 478 665 694 q 650 169 665 261 q 570 33 635 78 q 353 -11 506 -11 m 353 194 q 397 208 386 194 q 411 272 408 221 q 414 478 414 322 q 411 684 414 633 q 397 748 408 735 q 353 761 386 761 q 309 748 319 761 q 296 684 299 735 q 293 478 293 633 q 296 272 293 322 q 309 208 299 221 q 353 194 319 194 m 140 1042 l 140 1053 l 242 1224 l 461 1224 l 565 1053 l 565 1042 l 413 1042 l 351 1126 l 293 1042 l 140 1042 z "},"Ố":{"ha":707,"x_min":42,"x_max":668,"o":"m 353 -11 q 135 33 200 -11 q 56 169 71 76 q 42 478 42 261 q 56 788 42 696 q 135 923 71 879 q 353 967 200 967 q 570 923 506 967 q 650 787 635 879 q 665 478 665 694 q 650 169 665 261 q 570 33 635 78 q 353 -11 506 -11 m 353 194 q 397 208 386 194 q 411 272 408 221 q 414 478 414 322 q 411 684 414 633 q 397 748 408 735 q 353 761 386 761 q 309 748 319 761 q 296 684 299 735 q 293 478 293 633 q 296 272 293 322 q 309 208 299 221 q 353 194 319 194 m 142 1013 l 142 1024 l 243 1194 l 463 1194 l 567 1024 l 567 1013 l 414 1013 l 353 1097 l 294 1013 l 142 1013 m 375 1229 l 375 1236 l 447 1435 l 668 1435 l 668 1428 l 553 1229 l 375 1229 z "},"Ộ":{"ha":707,"x_min":42,"x_max":665,"o":"m 353 -11 q 135 33 200 -11 q 56 169 71 76 q 42 478 42 261 q 56 788 42 696 q 135 923 71 879 q 353 967 200 967 q 570 923 506 967 q 650 787 635 879 q 665 478 665 694 q 650 169 665 261 q 570 33 635 78 q 353 -11 506 -11 m 353 194 q 397 208 386 194 q 411 272 408 221 q 414 478 414 322 q 411 684 414 633 q 397 748 408 735 q 353 761 386 761 q 309 748 319 761 q 296 684 299 735 q 293 478 293 633 q 296 272 293 322 q 309 208 299 221 q 353 194 319 194 m 232 -297 l 232 -86 l 476 -86 l 476 -297 l 232 -297 m 142 1051 l 142 1063 l 243 1233 l 463 1233 l 567 1063 l 567 1051 l 414 1051 l 353 1136 l 294 1051 l 142 1051 z "},"Ồ":{"ha":707,"x_min":42,"x_max":665,"o":"m 353 -11 q 135 33 200 -11 q 56 169 71 76 q 42 478 42 261 q 56 788 42 696 q 135 923 71 879 q 353 967 200 967 q 570 923 506 967 q 650 787 635 879 q 665 478 665 694 q 650 169 665 261 q 570 33 635 78 q 353 -11 506 -11 m 353 194 q 397 208 386 194 q 411 272 408 221 q 414 478 414 322 q 411 684 414 633 q 397 748 408 735 q 353 761 386 761 q 309 748 319 761 q 296 684 299 735 q 293 478 293 633 q 296 272 293 322 q 309 208 299 221 q 353 194 319 194 m 125 1013 l 125 1024 l 226 1194 l 446 1194 l 550 1024 l 550 1013 l 397 1013 l 336 1097 l 278 1013 l 125 1013 m 404 1229 l 290 1428 l 290 1435 l 510 1435 l 583 1236 l 583 1229 l 404 1229 z "},"Ổ":{"ha":707,"x_min":42,"x_max":717,"o":"m 353 -11 q 135 33 200 -11 q 56 169 71 76 q 42 478 42 261 q 56 788 42 696 q 135 923 71 879 q 353 967 200 967 q 570 923 506 967 q 650 787 635 879 q 665 478 665 694 q 650 169 665 261 q 570 33 635 78 q 353 -11 506 -11 m 353 194 q 397 208 386 194 q 411 272 408 221 q 414 478 414 322 q 411 684 414 633 q 397 748 408 735 q 353 761 386 761 q 309 748 319 761 q 296 684 299 735 q 293 478 293 633 q 296 272 293 322 q 309 208 299 221 q 353 194 319 194 m 142 1014 l 142 1025 l 243 1196 l 463 1196 l 567 1025 l 567 1014 l 414 1014 l 353 1099 l 294 1014 l 142 1014 m 431 1253 q 442 1307 431 1290 q 485 1333 453 1324 l 500 1338 q 548 1356 538 1350 q 558 1378 558 1363 q 550 1395 558 1392 q 515 1399 542 1399 q 358 1396 453 1399 l 358 1511 q 533 1531 446 1531 q 631 1523 593 1531 q 692 1488 668 1515 q 717 1406 717 1461 q 700 1326 717 1350 q 635 1283 683 1303 l 621 1276 q 582 1260 593 1265 q 568 1247 571 1254 q 565 1225 565 1240 l 431 1225 l 431 1253 z "},"Ỗ":{"ha":707,"x_min":42,"x_max":665,"o":"m 353 -11 q 135 33 200 -11 q 56 169 71 76 q 42 478 42 261 q 56 788 42 696 q 135 923 71 879 q 353 967 200 967 q 570 923 506 967 q 650 787 635 879 q 665 478 665 694 q 650 169 665 261 q 570 33 635 78 q 353 -11 506 -11 m 353 194 q 397 208 386 194 q 411 272 408 221 q 414 478 414 322 q 411 684 414 633 q 397 748 408 735 q 353 761 386 761 q 309 748 319 761 q 296 684 299 735 q 293 478 293 633 q 296 272 293 322 q 309 208 299 221 q 353 194 319 194 m 139 1013 l 139 1024 l 240 1194 l 460 1194 l 564 1024 l 564 1013 l 411 1013 l 350 1097 l 292 1013 l 139 1013 m 581 1435 q 575 1320 581 1358 q 545 1260 569 1282 q 465 1238 521 1238 q 340 1257 413 1238 q 308 1263 331 1258 q 272 1268 285 1268 q 253 1259 257 1268 q 250 1221 250 1250 l 125 1221 q 131 1335 125 1297 q 161 1396 136 1374 q 242 1418 186 1418 q 303 1412 269 1418 q 367 1399 338 1406 q 399 1392 376 1397 q 435 1388 422 1388 q 453 1397 450 1388 q 457 1435 457 1406 l 581 1435 z "},"Ȍ":{"ha":707,"x_min":42,"x_max":665,"o":"m 353 -11 q 135 33 200 -11 q 56 169 71 76 q 42 478 42 261 q 56 788 42 696 q 135 923 71 879 q 353 967 200 967 q 570 923 506 967 q 650 787 635 879 q 665 478 665 694 q 650 169 665 261 q 570 33 635 78 q 353 -11 506 -11 m 353 194 q 397 208 386 194 q 411 272 408 221 q 414 478 414 322 q 411 684 414 633 q 397 748 408 735 q 353 761 386 761 q 309 748 319 761 q 296 684 299 735 q 293 478 293 633 q 296 272 293 322 q 309 208 299 221 q 353 194 319 194 m 324 1051 l 178 1051 l 89 1207 l 89 1213 l 267 1213 l 324 1057 l 324 1051 m 533 1051 l 388 1051 l 300 1207 l 300 1213 l 478 1213 l 533 1057 l 533 1051 z "},"Ö":{"ha":707,"x_min":42,"x_max":665,"o":"m 353 -11 q 135 33 200 -11 q 56 169 71 76 q 42 478 42 261 q 56 788 42 696 q 135 923 71 879 q 353 967 200 967 q 570 923 506 967 q 650 787 635 879 q 665 478 665 694 q 650 169 665 261 q 570 33 635 78 q 353 -11 506 -11 m 353 194 q 397 208 386 194 q 411 272 408 221 q 414 478 414 322 q 411 684 414 633 q 397 748 408 735 q 353 761 386 761 q 309 748 319 761 q 296 684 299 735 q 293 478 293 633 q 296 272 293 322 q 309 208 299 221 q 353 194 319 194 m 132 1079 l 132 1239 l 321 1239 l 321 1079 l 132 1079 m 383 1079 l 383 1239 l 572 1239 l 572 1079 l 383 1079 z "},"Ọ":{"ha":707,"x_min":42,"x_max":665,"o":"m 353 -11 q 135 33 200 -11 q 56 169 71 76 q 42 478 42 261 q 56 788 42 696 q 135 923 71 879 q 353 967 200 967 q 570 923 506 967 q 650 787 635 879 q 665 478 665 694 q 650 169 665 261 q 570 33 635 78 q 353 -11 506 -11 m 353 194 q 397 208 386 194 q 411 272 408 221 q 414 478 414 322 q 411 684 414 633 q 397 748 408 735 q 353 761 386 761 q 309 748 319 761 q 296 684 299 735 q 293 478 293 633 q 296 272 293 322 q 309 208 299 221 q 353 194 319 194 m 232 -297 l 232 -86 l 476 -86 l 476 -297 l 232 -297 z "},"Ò":{"ha":707,"x_min":42,"x_max":665,"o":"m 353 -11 q 135 33 200 -11 q 56 169 71 76 q 42 478 42 261 q 56 788 42 696 q 135 923 71 879 q 353 967 200 967 q 570 923 506 967 q 650 787 635 879 q 665 478 665 694 q 650 169 665 261 q 570 33 635 78 q 353 -11 506 -11 m 353 194 q 397 208 386 194 q 411 272 408 221 q 414 478 414 322 q 411 684 414 633 q 397 748 408 735 q 353 761 386 761 q 309 748 319 761 q 296 684 299 735 q 293 478 293 633 q 296 272 293 322 q 309 208 299 221 q 353 194 319 194 m 271 1042 l 157 1240 l 157 1247 l 376 1247 l 450 1049 l 450 1042 l 271 1042 z "},"Ỏ":{"ha":707,"x_min":42,"x_max":665,"o":"m 353 -11 q 135 33 200 -11 q 56 169 71 76 q 42 478 42 261 q 56 788 42 696 q 135 923 71 879 q 353 967 200 967 q 570 923 506 967 q 650 787 635 879 q 665 478 665 694 q 650 169 665 261 q 570 33 635 78 q 353 -11 506 -11 m 353 194 q 397 208 386 194 q 411 272 408 221 q 414 478 414 322 q 411 684 414 633 q 397 748 408 735 q 353 761 386 761 q 309 748 319 761 q 296 684 299 735 q 293 478 293 633 q 296 272 293 322 q 309 208 299 221 q 353 194 319 194 m 247 1038 q 258 1092 247 1075 q 301 1118 269 1108 l 317 1124 q 364 1142 353 1135 q 375 1163 375 1149 q 365 1181 375 1178 q 318 1185 354 1185 q 175 1182 261 1185 l 175 1297 q 350 1317 263 1317 q 447 1309 408 1317 q 509 1274 485 1301 q 533 1192 533 1246 q 517 1113 533 1136 q 451 1068 500 1089 l 438 1063 q 398 1045 408 1051 q 385 1032 388 1039 q 382 1010 382 1025 l 247 1010 l 247 1038 z "},"Ơ":{"ha":707,"x_min":42,"x_max":733,"o":"m 733 1078 l 733 1058 q 725 958 733 994 q 692 901 717 922 q 619 871 668 879 q 658 734 650 818 q 665 478 665 650 q 650 169 665 261 q 570 33 635 78 q 353 -11 506 -11 q 135 33 200 -11 q 56 169 71 76 q 42 478 42 261 q 56 788 42 696 q 135 923 71 879 q 353 967 200 967 q 486 956 428 967 l 507 956 q 571 973 556 956 q 586 1038 586 990 l 586 1078 l 733 1078 m 353 194 q 397 208 386 194 q 411 272 408 221 q 414 478 414 322 q 411 684 414 633 q 397 748 408 735 q 353 761 386 761 q 309 748 319 761 q 296 684 299 735 q 293 478 293 633 q 296 272 293 322 q 309 208 299 221 q 353 194 319 194 z "},"Ớ":{"ha":707,"x_min":42,"x_max":733,"o":"m 733 1078 l 733 1058 q 725 958 733 994 q 692 901 717 922 q 619 871 668 879 q 658 734 650 818 q 665 478 665 650 q 650 169 665 261 q 570 33 635 78 q 353 -11 506 -11 q 135 33 200 -11 q 56 169 71 76 q 42 478 42 261 q 56 788 42 696 q 135 923 71 879 q 353 967 200 967 q 486 956 428 967 l 507 956 q 571 973 556 956 q 586 1038 586 990 l 586 1078 l 733 1078 m 353 194 q 397 208 386 194 q 411 272 408 221 q 414 478 414 322 q 411 684 414 633 q 397 748 408 735 q 353 761 386 761 q 309 748 319 761 q 296 684 299 735 q 293 478 293 633 q 296 272 293 322 q 309 208 299 221 q 353 194 319 194 m 267 1028 l 267 1035 l 339 1233 l 560 1233 l 560 1226 l 444 1028 l 267 1028 z "},"Ợ":{"ha":707,"x_min":42,"x_max":733,"o":"m 733 1078 l 733 1058 q 725 958 733 994 q 692 901 717 922 q 619 871 668 879 q 658 734 650 818 q 665 478 665 650 q 650 169 665 261 q 570 33 635 78 q 353 -11 506 -11 q 135 33 200 -11 q 56 169 71 76 q 42 478 42 261 q 56 788 42 696 q 135 923 71 879 q 353 967 200 967 q 486 956 428 967 l 507 956 q 571 973 556 956 q 586 1038 586 990 l 586 1078 l 733 1078 m 353 194 q 397 208 386 194 q 411 272 408 221 q 414 478 414 322 q 411 684 414 633 q 397 748 408 735 q 353 761 386 761 q 309 748 319 761 q 296 684 299 735 q 293 478 293 633 q 296 272 293 322 q 309 208 299 221 q 353 194 319 194 m 232 -297 l 232 -86 l 476 -86 l 476 -297 l 232 -297 z "},"Ờ":{"ha":707,"x_min":42,"x_max":733,"o":"m 733 1078 l 733 1058 q 725 958 733 994 q 692 901 717 922 q 619 871 668 879 q 658 734 650 818 q 665 478 665 650 q 650 169 665 261 q 570 33 635 78 q 353 -11 506 -11 q 135 33 200 -11 q 56 169 71 76 q 42 478 42 261 q 56 788 42 696 q 135 923 71 879 q 353 967 200 967 q 486 956 428 967 l 507 956 q 571 973 556 956 q 586 1038 586 990 l 586 1078 l 733 1078 m 353 194 q 397 208 386 194 q 411 272 408 221 q 414 478 414 322 q 411 684 414 633 q 397 748 408 735 q 353 761 386 761 q 309 748 319 761 q 296 684 299 735 q 293 478 293 633 q 296 272 293 322 q 309 208 299 221 q 353 194 319 194 m 271 1028 l 157 1226 l 157 1233 l 376 1233 l 450 1035 l 450 1028 l 271 1028 z "},"Ở":{"ha":707,"x_min":42,"x_max":733,"o":"m 733 1078 l 733 1058 q 725 958 733 994 q 692 901 717 922 q 619 871 668 879 q 658 734 650 818 q 665 478 665 650 q 650 169 665 261 q 570 33 635 78 q 353 -11 506 -11 q 135 33 200 -11 q 56 169 71 76 q 42 478 42 261 q 56 788 42 696 q 135 923 71 879 q 353 967 200 967 q 486 956 428 967 l 507 956 q 571 973 556 956 q 586 1038 586 990 l 586 1078 l 733 1078 m 353 194 q 397 208 386 194 q 411 272 408 221 q 414 478 414 322 q 411 684 414 633 q 397 748 408 735 q 353 761 386 761 q 309 748 319 761 q 296 684 299 735 q 293 478 293 633 q 296 272 293 322 q 309 208 299 221 q 353 194 319 194 m 247 1038 q 258 1092 247 1075 q 301 1118 269 1108 l 317 1124 q 364 1142 353 1135 q 375 1163 375 1149 q 365 1181 375 1178 q 318 1185 354 1185 q 175 1182 261 1185 l 175 1297 q 350 1317 263 1317 q 447 1309 408 1317 q 509 1274 485 1301 q 533 1192 533 1246 q 517 1113 533 1136 q 451 1068 500 1089 l 438 1063 q 398 1045 408 1051 q 385 1032 388 1039 q 382 1010 382 1025 l 247 1010 l 247 1038 z "},"Ỡ":{"ha":707,"x_min":42,"x_max":733,"o":"m 733 1078 l 733 1058 q 725 958 733 994 q 692 901 717 922 q 619 871 668 879 q 658 734 650 818 q 665 478 665 650 q 650 169 665 261 q 570 33 635 78 q 353 -11 506 -11 q 135 33 200 -11 q 56 169 71 76 q 42 478 42 261 q 56 788 42 696 q 135 923 71 879 q 353 967 200 967 q 486 956 428 967 l 507 956 q 571 973 556 956 q 586 1038 586 990 l 586 1078 l 733 1078 m 353 194 q 397 208 386 194 q 411 272 408 221 q 414 478 414 322 q 411 684 414 633 q 397 748 408 735 q 353 761 386 761 q 309 748 319 761 q 296 684 299 735 q 293 478 293 633 q 296 272 293 322 q 309 208 299 221 q 353 194 319 194 m 581 1233 q 575 1119 581 1157 q 545 1058 569 1081 q 465 1036 521 1036 q 340 1056 413 1036 q 308 1062 331 1057 q 272 1067 285 1067 q 253 1058 257 1067 q 250 1019 250 1049 l 125 1019 q 131 1134 125 1096 q 161 1194 136 1172 q 242 1217 186 1217 q 303 1210 269 1217 q 367 1197 338 1204 q 399 1191 376 1196 q 435 1186 422 1186 q 453 1195 450 1186 q 457 1233 457 1204 l 581 1233 z "},"Ő":{"ha":707,"x_min":42,"x_max":665,"o":"m 353 -11 q 135 33 200 -11 q 56 169 71 76 q 42 478 42 261 q 56 788 42 696 q 135 923 71 879 q 353 967 200 967 q 570 923 506 967 q 650 787 635 879 q 665 478 665 694 q 650 169 665 261 q 570 33 635 78 q 353 -11 506 -11 m 353 194 q 397 208 386 194 q 411 272 408 221 q 414 478 414 322 q 411 684 414 633 q 397 748 408 735 q 353 761 386 761 q 309 748 319 761 q 296 684 299 735 q 293 478 293 633 q 296 272 293 322 q 309 208 299 221 q 353 194 319 194 m 186 1051 l 186 1057 l 242 1213 l 419 1213 l 419 1207 l 332 1051 l 186 1051 m 396 1051 l 396 1057 l 453 1213 l 631 1213 l 631 1207 l 542 1051 l 396 1051 z "},"Ȏ":{"ha":707,"x_min":42,"x_max":665,"o":"m 353 -11 q 135 33 200 -11 q 56 169 71 76 q 42 478 42 261 q 56 788 42 696 q 135 923 71 879 q 353 967 200 967 q 570 923 506 967 q 650 787 635 879 q 665 478 665 694 q 650 169 665 261 q 570 33 635 78 q 353 -11 506 -11 m 353 194 q 397 208 386 194 q 411 272 408 221 q 414 478 414 322 q 411 684 414 633 q 397 748 408 735 q 353 761 386 761 q 309 748 319 761 q 296 684 299 735 q 293 478 293 633 q 296 272 293 322 q 309 208 299 221 q 353 194 319 194 m 160 1051 q 174 1154 160 1114 q 231 1218 189 1194 q 353 1242 274 1242 q 474 1218 432 1242 q 531 1154 517 1194 q 546 1051 546 1114 l 414 1051 q 403 1101 414 1085 q 353 1117 393 1117 q 302 1101 313 1117 q 292 1051 292 1085 l 160 1051 z "},"Ō":{"ha":707,"x_min":42,"x_max":665,"o":"m 353 -11 q 135 33 200 -11 q 56 169 71 76 q 42 478 42 261 q 56 788 42 696 q 135 923 71 879 q 353 967 200 967 q 570 923 506 967 q 650 787 635 879 q 665 478 665 694 q 650 169 665 261 q 570 33 635 78 q 353 -11 506 -11 m 353 194 q 397 208 386 194 q 411 272 408 221 q 414 478 414 322 q 411 684 414 633 q 397 748 408 735 q 353 761 386 761 q 309 748 319 761 q 296 684 299 735 q 293 478 293 633 q 296 272 293 322 q 309 208 299 221 q 353 194 319 194 m 203 1039 l 203 1233 l 504 1233 l 504 1039 l 203 1039 z "},"Ǫ":{"ha":707,"x_min":42,"x_max":665,"o":"m 469 -272 q 347 -237 385 -272 q 310 -149 310 -203 q 363 -11 310 -82 l 353 -11 q 135 33 200 -11 q 56 169 71 76 q 42 478 42 261 q 56 788 42 696 q 135 923 71 879 q 353 967 200 967 q 570 923 506 967 q 650 787 635 879 q 665 478 665 694 q 661 258 665 333 q 638 127 657 182 q 578 40 619 72 q 514 -26 540 14 q 488 -108 488 -67 q 539 -156 488 -156 l 557 -154 l 557 -265 q 469 -272 518 -272 m 353 194 q 397 208 386 194 q 411 272 408 221 q 414 478 414 322 q 411 684 414 633 q 397 748 408 735 q 353 761 386 761 q 309 748 319 761 q 296 684 299 735 q 293 478 293 633 q 296 272 293 322 q 309 208 299 221 q 353 194 319 194 z "},"Ø":{"ha":707,"x_min":42,"x_max":665,"o":"m 608 888 q 656 750 646 838 q 665 478 665 663 q 650 169 665 261 q 570 33 635 78 q 353 -11 506 -11 q 265 -7 306 -11 l 240 -76 l 42 -76 l 97 68 q 51 204 60 118 q 42 478 42 290 q 56 788 42 696 q 135 923 71 879 q 353 967 200 967 q 439 963 401 967 l 467 1032 l 665 1032 l 608 888 m 353 194 q 397 208 386 194 q 411 272 408 221 q 414 478 414 322 q 411 684 414 633 q 397 748 408 735 q 353 761 386 761 q 309 748 319 761 q 296 684 299 735 q 293 478 293 633 q 296 272 293 322 q 309 208 299 221 q 353 194 319 194 z "},"Ǿ":{"ha":707,"x_min":42,"x_max":665,"o":"m 608 888 q 656 750 646 838 q 665 478 665 663 q 650 169 665 261 q 570 33 635 78 q 353 -11 506 -11 q 265 -7 306 -11 l 240 -76 l 42 -76 l 97 68 q 51 204 60 118 q 42 478 42 290 q 56 788 42 696 q 135 923 71 879 q 353 967 200 967 q 439 963 401 967 l 467 1032 l 665 1032 l 608 888 m 353 194 q 397 208 386 194 q 411 272 408 221 q 414 478 414 322 q 411 684 414 633 q 397 748 408 735 q 353 761 386 761 q 309 748 319 761 q 296 684 299 735 q 293 478 293 633 q 296 272 293 322 q 309 208 299 221 q 353 194 319 194 m 229 1028 l 229 1035 l 301 1233 l 522 1233 l 522 1226 l 407 1028 l 229 1028 z "},"Õ":{"ha":707,"x_min":42,"x_max":665,"o":"m 353 -11 q 135 33 200 -11 q 56 169 71 76 q 42 478 42 261 q 56 788 42 696 q 135 923 71 879 q 353 967 200 967 q 570 923 506 967 q 650 787 635 879 q 665 478 665 694 q 650 169 665 261 q 570 33 635 78 q 353 -11 506 -11 m 353 194 q 397 208 386 194 q 411 272 408 221 q 414 478 414 322 q 411 684 414 633 q 397 748 408 735 q 353 761 386 761 q 309 748 319 761 q 296 684 299 735 q 293 478 293 633 q 296 272 293 322 q 309 208 299 221 q 353 194 319 194 m 583 1256 q 578 1141 583 1179 q 548 1081 572 1103 q 468 1058 524 1058 q 343 1078 415 1058 q 310 1084 333 1079 q 275 1089 288 1089 q 256 1080 260 1089 q 253 1042 253 1071 l 128 1042 q 133 1156 128 1118 q 164 1217 139 1194 q 244 1239 189 1239 q 306 1233 272 1239 q 369 1219 340 1226 q 402 1213 379 1218 q 438 1208 425 1208 q 456 1217 453 1208 q 460 1256 460 1226 l 583 1256 z "},"Œ":{"ha":989,"x_min":42,"x_max":942,"o":"m 353 0 q 135 43 200 0 q 56 176 71 86 q 42 478 42 265 q 56 780 42 690 q 135 913 71 869 q 353 956 200 956 l 942 956 l 942 750 l 724 750 q 644 757 672 750 q 664 585 657 706 l 907 585 l 907 381 l 664 381 q 644 199 664 267 q 724 206 679 206 l 942 206 l 942 0 l 353 0 m 353 206 q 397 219 386 206 q 411 280 408 232 q 414 478 414 328 q 411 676 414 628 q 397 737 408 724 q 353 750 386 750 q 309 737 319 750 q 296 676 299 724 q 293 478 293 628 q 296 280 293 328 q 309 219 299 232 q 353 206 319 206 z "},"P":{"ha":671,"x_min":56,"x_max":650,"o":"m 56 956 l 400 956 q 559 920 506 956 q 631 815 613 885 q 650 621 650 744 q 633 435 650 504 q 563 326 617 365 q 400 286 508 286 l 306 286 l 306 0 l 56 0 l 56 956 m 335 490 q 378 497 367 490 q 394 530 390 504 q 399 621 399 556 q 394 713 399 688 q 378 745 390 739 q 335 751 367 751 l 306 751 l 306 490 l 335 490 z "},"Þ":{"ha":671,"x_min":56,"x_max":650,"o":"m 56 956 l 306 956 l 306 824 l 400 824 q 559 788 506 824 q 631 683 613 753 q 650 490 650 614 q 633 303 650 374 q 563 194 617 233 q 400 156 508 156 l 306 156 l 306 0 l 56 0 l 56 956 m 335 360 q 378 366 367 360 q 394 398 390 372 q 399 490 399 424 q 394 582 399 557 q 378 613 390 607 q 335 619 367 619 l 306 619 l 306 360 l 335 360 z "},"Q":{"ha":707,"x_min":42,"x_max":729,"o":"m 386 -10 q 353 -11 375 -11 q 135 33 200 -11 q 56 169 71 76 q 42 478 42 261 q 56 788 42 696 q 135 923 71 879 q 353 967 200 967 q 570 923 506 967 q 650 787 635 879 q 665 478 665 694 q 653 203 665 296 q 597 63 640 111 l 729 -150 l 729 -160 l 474 -160 l 386 -10 m 353 194 q 397 208 386 194 q 411 272 408 221 q 414 478 414 322 q 411 684 414 633 q 397 748 408 735 q 353 761 386 761 q 309 748 319 761 q 296 684 299 735 q 293 478 293 633 q 296 272 293 322 q 309 208 299 221 q 353 194 319 194 z "},"R":{"ha":696,"x_min":56,"x_max":681,"o":"m 424 0 l 349 314 l 306 314 l 306 0 l 56 0 l 56 956 l 407 956 q 567 922 513 956 q 640 820 621 888 q 658 635 658 753 q 642 462 658 528 q 575 358 625 396 l 681 0 l 424 0 m 306 511 l 343 511 q 386 517 374 511 q 403 547 399 524 q 407 632 407 571 q 403 716 407 693 q 388 745 400 739 q 343 751 375 751 l 306 751 l 306 511 z "},"Ŕ":{"ha":696,"x_min":56,"x_max":681,"o":"m 424 0 l 349 314 l 306 314 l 306 0 l 56 0 l 56 956 l 407 956 q 567 922 513 956 q 640 820 621 888 q 658 635 658 753 q 642 462 658 528 q 575 358 625 396 l 681 0 l 424 0 m 306 511 l 343 511 q 386 517 374 511 q 403 547 399 524 q 407 632 407 571 q 403 716 407 693 q 388 745 400 739 q 343 751 375 751 l 306 751 l 306 511 m 261 1028 l 261 1035 l 333 1233 l 554 1233 l 554 1226 l 439 1028 l 261 1028 z "},"Ř":{"ha":696,"x_min":56,"x_max":681,"o":"m 424 0 l 349 314 l 306 314 l 306 0 l 56 0 l 56 956 l 407 956 q 567 922 513 956 q 640 820 621 888 q 658 635 658 753 q 642 462 658 528 q 575 358 625 396 l 681 0 l 424 0 m 306 511 l 343 511 q 386 517 374 511 q 403 547 399 524 q 407 632 407 571 q 403 716 407 693 q 388 745 400 739 q 343 751 375 751 l 306 751 l 306 511 m 238 1051 l 136 1221 l 136 1233 l 289 1233 l 349 1149 l 408 1233 l 561 1233 l 561 1221 l 457 1051 l 238 1051 z "},"Ŗ":{"ha":696,"x_min":56,"x_max":681,"o":"m 424 0 l 349 314 l 306 314 l 306 0 l 56 0 l 56 956 l 407 956 q 567 922 513 956 q 640 820 621 888 q 658 635 658 753 q 642 462 658 528 q 575 358 625 396 l 681 0 l 424 0 m 306 511 l 343 511 q 386 517 374 511 q 403 547 399 524 q 407 632 407 571 q 403 716 407 693 q 388 745 400 739 q 343 751 375 751 l 306 751 l 306 511 m 238 -308 q 302 -297 288 -308 q 317 -250 317 -285 l 317 -235 l 235 -235 l 235 -83 l 464 -83 l 464 -174 q 449 -315 464 -269 q 386 -381 433 -361 q 238 -401 339 -401 l 238 -308 z "},"Ȑ":{"ha":696,"x_min":56,"x_max":681,"o":"m 424 0 l 349 314 l 306 314 l 306 0 l 56 0 l 56 956 l 407 956 q 567 922 513 956 q 640 820 621 888 q 658 635 658 753 q 642 462 658 528 q 575 358 625 396 l 681 0 l 424 0 m 306 511 l 343 511 q 386 517 374 511 q 403 547 399 524 q 407 632 407 571 q 403 716 407 693 q 388 745 400 739 q 343 751 375 751 l 306 751 l 306 511 m 318 1051 l 172 1051 l 83 1207 l 83 1213 l 261 1213 l 318 1057 l 318 1051 m 528 1051 l 382 1051 l 294 1207 l 294 1213 l 472 1213 l 528 1057 l 528 1051 z "},"Ṛ":{"ha":696,"x_min":56,"x_max":681,"o":"m 424 0 l 349 314 l 306 314 l 306 0 l 56 0 l 56 956 l 407 956 q 567 922 513 956 q 640 820 621 888 q 658 635 658 753 q 642 462 658 528 q 575 358 625 396 l 681 0 l 424 0 m 306 511 l 343 511 q 386 517 374 511 q 403 547 399 524 q 407 632 407 571 q 403 716 407 693 q 388 745 400 739 q 343 751 375 751 l 306 751 l 306 511 m 226 -297 l 226 -86 l 471 -86 l 471 -297 l 226 -297 z "},"Ȓ":{"ha":696,"x_min":56,"x_max":681,"o":"m 424 0 l 349 314 l 306 314 l 306 0 l 56 0 l 56 956 l 407 956 q 567 922 513 956 q 640 820 621 888 q 658 635 658 753 q 642 462 658 528 q 575 358 625 396 l 681 0 l 424 0 m 306 511 l 343 511 q 386 517 374 511 q 403 547 399 524 q 407 632 407 571 q 403 716 407 693 q 388 745 400 739 q 343 751 375 751 l 306 751 l 306 511 m 154 1051 q 169 1154 154 1114 q 226 1218 183 1194 q 347 1242 268 1242 q 469 1218 426 1242 q 526 1154 511 1194 q 540 1051 540 1114 l 408 1051 q 398 1101 408 1085 q 347 1117 388 1117 q 297 1101 307 1117 q 286 1051 286 1085 l 154 1051 z "},"S":{"ha":624,"x_min":32,"x_max":594,"o":"m 313 -11 q 175 -3 249 -11 q 50 15 101 4 l 50 204 q 240 194 179 194 q 303 197 283 194 q 331 210 322 200 q 342 233 339 218 q 344 276 344 249 q 339 335 344 318 q 317 361 333 353 q 257 376 300 369 l 139 399 q 56 478 81 410 q 32 672 32 547 q 69 859 32 794 q 169 945 106 924 q 328 967 232 967 q 461 958 400 967 q 557 942 522 950 l 557 751 q 386 761 474 761 q 327 759 346 761 q 299 749 308 757 q 285 725 289 740 q 282 681 282 710 q 285 632 282 647 q 300 610 289 617 q 338 597 311 603 l 439 578 q 519 547 486 568 q 572 474 551 526 q 594 310 594 413 q 559 100 594 169 q 465 10 524 31 q 313 -11 407 -11 z "},"Ś":{"ha":624,"x_min":32,"x_max":594,"o":"m 313 -11 q 175 -3 249 -11 q 50 15 101 4 l 50 204 q 240 194 179 194 q 303 197 283 194 q 331 210 322 200 q 342 233 339 218 q 344 276 344 249 q 339 335 344 318 q 317 361 333 353 q 257 376 300 369 l 139 399 q 56 478 81 410 q 32 672 32 547 q 69 859 32 794 q 169 945 106 924 q 328 967 232 967 q 461 958 400 967 q 557 942 522 950 l 557 751 q 386 761 474 761 q 327 759 346 761 q 299 749 308 757 q 285 725 289 740 q 282 681 282 710 q 285 632 282 647 q 300 610 289 617 q 338 597 311 603 l 439 578 q 519 547 486 568 q 572 474 551 526 q 594 310 594 413 q 559 100 594 169 q 465 10 524 31 q 313 -11 407 -11 m 225 1028 l 225 1035 l 297 1233 l 518 1233 l 518 1226 l 403 1028 l 225 1028 z "},"Ꞌ":{"ha":278,"x_min":33,"x_max":243,"o":"m 33 361 l 33 956 l 243 956 l 243 728 l 199 361 l 33 361 z "},"Š":{"ha":624,"x_min":32,"x_max":594,"o":"m 313 -11 q 175 -3 249 -11 q 50 15 101 4 l 50 204 q 240 194 179 194 q 303 197 283 194 q 331 210 322 200 q 342 233 339 218 q 344 276 344 249 q 339 335 344 318 q 317 361 333 353 q 257 376 300 369 l 139 399 q 56 478 81 410 q 32 672 32 547 q 69 859 32 794 q 169 945 106 924 q 328 967 232 967 q 461 958 400 967 q 557 942 522 950 l 557 751 q 386 761 474 761 q 327 759 346 761 q 299 749 308 757 q 285 725 289 740 q 282 681 282 710 q 285 632 282 647 q 300 610 289 617 q 338 597 311 603 l 439 578 q 519 547 486 568 q 572 474 551 526 q 594 310 594 413 q 559 100 594 169 q 465 10 524 31 q 313 -11 407 -11 m 206 1042 l 104 1211 l 104 1224 l 257 1224 l 317 1139 l 376 1224 l 529 1224 l 529 1211 l 425 1042 l 206 1042 z "},"Ş":{"ha":624,"x_min":32,"x_max":594,"o":"m 594 310 q 569 124 594 192 q 498 27 543 56 q 386 -8 453 -1 l 343 -261 l 146 -261 l 146 -254 l 235 -8 q 50 15 122 -1 l 50 204 q 240 194 179 194 q 303 197 283 194 q 331 210 322 200 q 342 233 339 218 q 344 276 344 249 q 339 335 344 318 q 317 361 333 353 q 257 376 300 369 l 139 399 q 56 478 81 410 q 32 672 32 547 q 69 859 32 794 q 169 945 106 924 q 328 967 232 967 q 461 958 400 967 q 557 942 522 950 l 557 751 q 386 761 474 761 q 327 759 346 761 q 299 749 308 757 q 285 725 289 740 q 282 681 282 710 q 285 632 282 647 q 300 610 289 617 q 338 597 311 603 l 439 578 q 519 547 486 568 q 572 474 551 526 q 594 310 594 413 z "},"Ŝ":{"ha":624,"x_min":32,"x_max":594,"o":"m 313 -11 q 175 -3 249 -11 q 50 15 101 4 l 50 204 q 240 194 179 194 q 303 197 283 194 q 331 210 322 200 q 342 233 339 218 q 344 276 344 249 q 339 335 344 318 q 317 361 333 353 q 257 376 300 369 l 139 399 q 56 478 81 410 q 32 672 32 547 q 69 859 32 794 q 169 945 106 924 q 328 967 232 967 q 461 958 400 967 q 557 942 522 950 l 557 751 q 386 761 474 761 q 327 759 346 761 q 299 749 308 757 q 285 725 289 740 q 282 681 282 710 q 285 632 282 647 q 300 610 289 617 q 338 597 311 603 l 439 578 q 519 547 486 568 q 572 474 551 526 q 594 310 594 413 q 559 100 594 169 q 465 10 524 31 q 313 -11 407 -11 m 100 1051 l 100 1063 l 201 1233 l 421 1233 l 525 1063 l 525 1051 l 372 1051 l 311 1136 l 253 1051 l 100 1051 z "},"Ș":{"ha":624,"x_min":32,"x_max":594,"o":"m 313 -11 q 175 -3 249 -11 q 50 15 101 4 l 50 204 q 240 194 179 194 q 303 197 283 194 q 331 210 322 200 q 342 233 339 218 q 344 276 344 249 q 339 335 344 318 q 317 361 333 353 q 257 376 300 369 l 139 399 q 56 478 81 410 q 32 672 32 547 q 69 859 32 794 q 169 945 106 924 q 328 967 232 967 q 461 958 400 967 q 557 942 522 950 l 557 751 q 386 761 474 761 q 327 759 346 761 q 299 749 308 757 q 285 725 289 740 q 282 681 282 710 q 285 632 282 647 q 300 610 289 617 q 338 597 311 603 l 439 578 q 519 547 486 568 q 572 474 551 526 q 594 310 594 413 q 559 100 594 169 q 465 10 524 31 q 313 -11 407 -11 m 201 -308 q 266 -297 251 -308 q 281 -250 281 -285 l 281 -235 l 199 -235 l 199 -83 l 428 -83 l 428 -174 q 413 -315 428 -269 q 350 -381 397 -361 q 201 -401 303 -401 l 201 -308 z "},"Ṣ":{"ha":624,"x_min":32,"x_max":594,"o":"m 313 -11 q 175 -3 249 -11 q 50 15 101 4 l 50 204 q 240 194 179 194 q 303 197 283 194 q 331 210 322 200 q 342 233 339 218 q 344 276 344 249 q 339 335 344 318 q 317 361 333 353 q 257 376 300 369 l 139 399 q 56 478 81 410 q 32 672 32 547 q 69 859 32 794 q 169 945 106 924 q 328 967 232 967 q 461 958 400 967 q 557 942 522 950 l 557 751 q 386 761 474 761 q 327 759 346 761 q 299 749 308 757 q 285 725 289 740 q 282 681 282 710 q 285 632 282 647 q 300 610 289 617 q 338 597 311 603 l 439 578 q 519 547 486 568 q 572 474 551 526 q 594 310 594 413 q 559 100 594 169 q 465 10 524 31 q 313 -11 407 -11 m 190 -297 l 190 -86 l 435 -86 l 435 -297 l 190 -297 z "},"ẞ":{"ha":833,"x_min":51,"x_max":801,"o":"m 617 528 q 756 450 710 513 q 801 251 801 388 q 774 99 801 156 q 685 15 747 42 q 518 -11 624 -11 q 440 -3 485 -11 q 364 17 396 6 l 364 204 q 447 194 417 194 q 516 199 496 194 q 543 222 536 204 q 550 282 550 239 q 542 351 550 331 q 513 376 533 371 q 446 382 493 382 l 374 382 l 374 551 l 499 757 q 428 761 457 761 q 338 743 363 761 q 308 670 314 725 q 301 468 301 615 l 301 0 l 51 0 l 51 468 q 75 781 51 679 q 172 924 99 882 q 404 967 246 967 q 586 957 488 967 q 763 933 685 947 l 763 764 l 617 528 z "},"Ə":{"ha":707,"x_min":42,"x_max":660,"o":"m 319 967 q 542 920 471 967 q 637 774 614 874 q 660 478 660 675 q 645 169 660 261 q 566 33 631 76 q 349 -11 501 -11 q 135 33 199 -11 q 56 169 71 76 q 42 478 42 261 l 42 585 l 408 585 q 394 703 406 668 q 354 750 383 739 q 260 761 325 761 q 117 753 175 761 l 117 942 q 208 960 153 953 q 319 967 263 967 m 349 194 q 397 203 383 194 q 417 249 411 213 q 424 381 422 286 l 279 381 q 285 249 281 286 q 303 203 290 213 q 349 194 315 194 z "},"T":{"ha":601,"x_min":10,"x_max":592,"o":"m 175 0 l 175 743 l 10 743 l 10 956 l 592 956 l 592 743 l 426 743 l 426 0 l 175 0 z "},"Ŧ":{"ha":601,"x_min":10,"x_max":592,"o":"m 592 743 l 426 743 l 426 567 l 560 567 l 560 390 l 426 390 l 426 0 l 175 0 l 175 390 l 42 390 l 42 567 l 175 567 l 175 743 l 10 743 l 10 956 l 592 956 l 592 743 z "},"Ť":{"ha":601,"x_min":10,"x_max":592,"o":"m 175 0 l 175 743 l 10 743 l 10 956 l 592 956 l 592 743 l 426 743 l 426 0 l 175 0 m 190 1051 l 89 1221 l 89 1233 l 242 1233 l 301 1149 l 361 1233 l 514 1233 l 514 1221 l 410 1051 l 190 1051 z "},"Ţ":{"ha":601,"x_min":10,"x_max":592,"o":"m 10 956 l 592 956 l 592 743 l 426 743 l 426 0 l 376 0 l 332 -261 l 135 -261 l 135 -254 l 226 0 l 175 0 l 175 743 l 10 743 l 10 956 z "},"Ț":{"ha":601,"x_min":10,"x_max":592,"o":"m 175 0 l 175 743 l 10 743 l 10 956 l 592 956 l 592 743 l 426 743 l 426 0 l 175 0 m 190 -308 q 255 -297 240 -308 q 269 -250 269 -285 l 269 -235 l 188 -235 l 188 -83 l 417 -83 l 417 -174 q 401 -315 417 -269 q 339 -381 386 -361 q 190 -401 292 -401 l 190 -308 z "},"Ṭ":{"ha":601,"x_min":10,"x_max":592,"o":"m 175 0 l 175 743 l 10 743 l 10 956 l 592 956 l 592 743 l 426 743 l 426 0 l 175 0 m 179 -297 l 179 -86 l 424 -86 l 424 -297 l 179 -297 z "},"U":{"ha":703,"x_min":51,"x_max":651,"o":"m 651 956 l 651 429 q 637 152 651 236 q 560 28 622 68 q 351 -11 497 -11 q 143 28 206 -11 q 66 151 81 68 q 51 429 51 235 l 51 956 l 301 956 l 301 363 q 303 242 301 272 q 315 204 306 213 q 351 196 324 196 q 387 204 378 196 q 399 243 396 213 q 401 363 401 274 l 401 956 l 651 956 z "},"Ú":{"ha":703,"x_min":51,"x_max":651,"o":"m 651 956 l 651 429 q 637 152 651 236 q 560 28 622 68 q 351 -11 497 -11 q 143 28 206 -11 q 66 151 81 68 q 51 429 51 235 l 51 956 l 301 956 l 301 363 q 303 242 301 272 q 315 204 306 213 q 351 196 324 196 q 387 204 378 196 q 399 243 396 213 q 401 363 401 274 l 401 956 l 651 956 m 256 1042 l 256 1049 l 328 1247 l 549 1247 l 549 1240 l 433 1042 l 256 1042 z "},"Ŭ":{"ha":703,"x_min":51,"x_max":651,"o":"m 651 956 l 651 429 q 637 152 651 236 q 560 28 622 68 q 351 -11 497 -11 q 143 28 206 -11 q 66 151 81 68 q 51 429 51 235 l 51 956 l 301 956 l 301 363 q 303 242 301 272 q 315 204 306 213 q 351 196 324 196 q 387 204 378 196 q 399 243 396 213 q 401 363 401 274 l 401 956 l 651 956 m 543 1233 q 528 1131 543 1171 q 472 1067 514 1090 q 350 1043 429 1043 q 228 1067 271 1043 q 172 1131 186 1090 q 157 1233 157 1171 l 289 1233 q 299 1184 289 1200 q 350 1168 310 1168 q 401 1184 390 1168 q 411 1233 411 1200 l 543 1233 z "},"Ǔ":{"ha":703,"x_min":51,"x_max":651,"o":"m 651 956 l 651 429 q 637 152 651 236 q 560 28 622 68 q 351 -11 497 -11 q 143 28 206 -11 q 66 151 81 68 q 51 429 51 235 l 51 956 l 301 956 l 301 363 q 303 242 301 272 q 315 204 306 213 q 351 196 324 196 q 387 204 378 196 q 399 243 396 213 q 401 363 401 274 l 401 956 l 651 956 m 240 1051 l 139 1221 l 139 1233 l 292 1233 l 351 1149 l 411 1233 l 564 1233 l 564 1221 l 460 1051 l 240 1051 z "},"Û":{"ha":703,"x_min":51,"x_max":651,"o":"m 651 956 l 651 429 q 637 152 651 236 q 560 28 622 68 q 351 -11 497 -11 q 143 28 206 -11 q 66 151 81 68 q 51 429 51 235 l 51 956 l 301 956 l 301 363 q 303 242 301 272 q 315 204 306 213 q 351 196 324 196 q 387 204 378 196 q 399 243 396 213 q 401 363 401 274 l 401 956 l 651 956 m 139 1042 l 139 1053 l 240 1224 l 460 1224 l 564 1053 l 564 1042 l 411 1042 l 350 1126 l 292 1042 l 139 1042 z "},"Ȕ":{"ha":703,"x_min":51,"x_max":651,"o":"m 651 956 l 651 429 q 637 152 651 236 q 560 28 622 68 q 351 -11 497 -11 q 143 28 206 -11 q 66 151 81 68 q 51 429 51 235 l 51 956 l 301 956 l 301 363 q 303 242 301 272 q 315 204 306 213 q 351 196 324 196 q 387 204 378 196 q 399 243 396 213 q 401 363 401 274 l 401 956 l 651 956 m 321 1051 l 175 1051 l 86 1207 l 86 1213 l 264 1213 l 321 1057 l 321 1051 m 531 1051 l 385 1051 l 297 1207 l 297 1213 l 475 1213 l 531 1057 l 531 1051 z "},"Ü":{"ha":703,"x_min":51,"x_max":651,"o":"m 651 956 l 651 429 q 637 152 651 236 q 560 28 622 68 q 351 -11 497 -11 q 143 28 206 -11 q 66 151 81 68 q 51 429 51 235 l 51 956 l 301 956 l 301 363 q 303 242 301 272 q 315 204 306 213 q 351 196 324 196 q 387 204 378 196 q 399 243 396 213 q 401 363 401 274 l 401 956 l 651 956 m 131 1079 l 131 1239 l 319 1239 l 319 1079 l 131 1079 m 382 1079 l 382 1239 l 571 1239 l 571 1079 l 382 1079 z "},"Ǘ":{"ha":703,"x_min":51,"x_max":651,"o":"m 319 1204 l 319 1056 l 131 1056 l 131 1215 l 268 1215 l 339 1410 l 560 1410 l 560 1403 l 451 1215 l 571 1215 l 571 1056 l 382 1056 l 382 1204 l 319 1204 m 651 956 l 651 429 q 637 152 651 236 q 560 28 622 68 q 351 -11 497 -11 q 143 28 206 -11 q 66 151 81 68 q 51 429 51 235 l 51 956 l 301 956 l 301 363 q 303 242 301 272 q 315 204 306 213 q 351 196 324 196 q 387 204 378 196 q 399 243 396 213 q 401 363 401 274 l 401 956 l 651 956 z "},"Ǚ":{"ha":703,"x_min":51,"x_max":651,"o":"m 651 956 l 651 429 q 637 152 651 236 q 560 28 622 68 q 351 -11 497 -11 q 143 28 206 -11 q 66 151 81 68 q 51 429 51 235 l 51 956 l 301 956 l 301 363 q 303 242 301 272 q 315 204 306 213 q 351 196 324 196 q 387 204 378 196 q 399 243 396 213 q 401 363 401 274 l 401 956 l 651 956 m 131 1056 l 131 1215 l 319 1215 l 319 1056 l 131 1056 m 382 1056 l 382 1215 l 571 1215 l 571 1056 l 382 1056 m 243 1228 l 142 1397 l 142 1410 l 294 1410 l 354 1325 l 414 1410 l 567 1410 l 567 1397 l 463 1228 l 243 1228 z "},"Ǜ":{"ha":703,"x_min":51,"x_max":651,"o":"m 319 1204 l 319 1056 l 131 1056 l 131 1215 l 264 1215 l 157 1403 l 157 1410 l 376 1410 l 449 1215 l 571 1215 l 571 1056 l 382 1056 l 382 1204 l 319 1204 m 651 956 l 651 429 q 637 152 651 236 q 560 28 622 68 q 351 -11 497 -11 q 143 28 206 -11 q 66 151 81 68 q 51 429 51 235 l 51 956 l 301 956 l 301 363 q 303 242 301 272 q 315 204 306 213 q 351 196 324 196 q 387 204 378 196 q 399 243 396 213 q 401 363 401 274 l 401 956 l 651 956 z "},"Ǖ":{"ha":703,"x_min":51,"x_max":651,"o":"m 319 1196 l 319 1056 l 131 1056 l 131 1215 l 203 1215 l 203 1346 l 504 1346 l 504 1215 l 571 1215 l 571 1056 l 382 1056 l 382 1196 l 319 1196 m 651 956 l 651 429 q 637 152 651 236 q 560 28 622 68 q 351 -11 497 -11 q 143 28 206 -11 q 66 151 81 68 q 51 429 51 235 l 51 956 l 301 956 l 301 363 q 303 242 301 272 q 315 204 306 213 q 351 196 324 196 q 387 204 378 196 q 399 243 396 213 q 401 363 401 274 l 401 956 l 651 956 z "},"Ụ":{"ha":703,"x_min":51,"x_max":651,"o":"m 651 956 l 651 429 q 637 152 651 236 q 560 28 622 68 q 351 -11 497 -11 q 143 28 206 -11 q 66 151 81 68 q 51 429 51 235 l 51 956 l 301 956 l 301 363 q 303 242 301 272 q 315 204 306 213 q 351 196 324 196 q 387 204 378 196 q 399 243 396 213 q 401 363 401 274 l 401 956 l 651 956 m 229 -297 l 229 -86 l 474 -86 l 474 -297 l 229 -297 z "},"Ù":{"ha":703,"x_min":51,"x_max":651,"o":"m 651 956 l 651 429 q 637 152 651 236 q 560 28 622 68 q 351 -11 497 -11 q 143 28 206 -11 q 66 151 81 68 q 51 429 51 235 l 51 956 l 301 956 l 301 363 q 303 242 301 272 q 315 204 306 213 q 351 196 324 196 q 387 204 378 196 q 399 243 396 213 q 401 363 401 274 l 401 956 l 651 956 m 268 1042 l 154 1240 l 154 1247 l 374 1247 l 447 1049 l 447 1042 l 268 1042 z "},"Ủ":{"ha":703,"x_min":51,"x_max":651,"o":"m 651 956 l 651 429 q 637 152 651 236 q 560 28 622 68 q 351 -11 497 -11 q 143 28 206 -11 q 66 151 81 68 q 51 429 51 235 l 51 956 l 301 956 l 301 363 q 303 242 301 272 q 315 204 306 213 q 351 196 324 196 q 387 204 378 196 q 399 243 396 213 q 401 363 401 274 l 401 956 l 651 956 m 244 1038 q 256 1092 244 1075 q 299 1118 267 1108 l 314 1124 q 361 1142 350 1135 q 372 1163 372 1149 q 362 1181 372 1178 q 315 1185 351 1185 q 172 1182 258 1185 l 172 1297 q 347 1317 260 1317 q 444 1309 406 1317 q 506 1274 482 1301 q 531 1192 531 1246 q 514 1113 531 1136 q 449 1068 497 1089 l 435 1063 q 395 1045 406 1051 q 382 1032 385 1039 q 379 1010 379 1025 l 244 1010 l 244 1038 z "},"Ư":{"ha":703,"x_min":51,"x_max":736,"o":"m 736 1078 l 736 1058 q 719 933 736 974 q 651 876 703 893 l 651 429 q 637 152 651 236 q 560 28 622 68 q 351 -11 497 -11 q 143 28 206 -11 q 66 151 81 68 q 51 429 51 235 l 51 956 l 301 956 l 301 363 q 303 242 301 272 q 315 204 306 213 q 351 196 324 196 q 387 204 378 196 q 399 243 396 213 q 401 363 401 274 l 401 956 l 510 956 q 574 973 558 956 q 589 1038 589 990 l 589 1078 l 736 1078 z "},"Ứ":{"ha":703,"x_min":51,"x_max":736,"o":"m 736 1078 l 736 1058 q 719 933 736 974 q 651 876 703 893 l 651 429 q 637 152 651 236 q 560 28 622 68 q 351 -11 497 -11 q 143 28 206 -11 q 66 151 81 68 q 51 429 51 235 l 51 956 l 301 956 l 301 363 q 303 242 301 272 q 315 204 306 213 q 351 196 324 196 q 387 204 378 196 q 399 243 396 213 q 401 363 401 274 l 401 956 l 510 956 q 574 973 558 956 q 589 1038 589 990 l 589 1078 l 736 1078 m 264 1028 l 264 1035 l 336 1233 l 557 1233 l 557 1226 l 442 1028 l 264 1028 z "},"Ự":{"ha":703,"x_min":51,"x_max":736,"o":"m 736 1078 l 736 1058 q 719 933 736 974 q 651 876 703 893 l 651 429 q 637 152 651 236 q 560 28 622 68 q 351 -11 497 -11 q 143 28 206 -11 q 66 151 81 68 q 51 429 51 235 l 51 956 l 301 956 l 301 363 q 303 242 301 272 q 315 204 306 213 q 351 196 324 196 q 387 204 378 196 q 399 243 396 213 q 401 363 401 274 l 401 956 l 510 956 q 574 973 558 956 q 589 1038 589 990 l 589 1078 l 736 1078 m 229 -297 l 229 -86 l 474 -86 l 474 -297 l 229 -297 z "},"Ừ":{"ha":703,"x_min":51,"x_max":736,"o":"m 736 1078 l 736 1058 q 719 933 736 974 q 651 876 703 893 l 651 429 q 637 152 651 236 q 560 28 622 68 q 351 -11 497 -11 q 143 28 206 -11 q 66 151 81 68 q 51 429 51 235 l 51 956 l 301 956 l 301 363 q 303 242 301 272 q 315 204 306 213 q 351 196 324 196 q 387 204 378 196 q 399 243 396 213 q 401 363 401 274 l 401 956 l 510 956 q 574 973 558 956 q 589 1038 589 990 l 589 1078 l 736 1078 m 268 1028 l 154 1226 l 154 1233 l 374 1233 l 447 1035 l 447 1028 l 268 1028 z "},"Ử":{"ha":703,"x_min":51,"x_max":736,"o":"m 736 1078 l 736 1058 q 719 933 736 974 q 651 876 703 893 l 651 429 q 637 152 651 236 q 560 28 622 68 q 351 -11 497 -11 q 143 28 206 -11 q 66 151 81 68 q 51 429 51 235 l 51 956 l 301 956 l 301 363 q 303 242 301 272 q 315 204 306 213 q 351 196 324 196 q 387 204 378 196 q 399 243 396 213 q 401 363 401 274 l 401 956 l 510 956 q 574 973 558 956 q 589 1038 589 990 l 589 1078 l 736 1078 m 244 1038 q 256 1092 244 1075 q 299 1118 267 1108 l 314 1124 q 361 1142 350 1135 q 372 1163 372 1149 q 362 1181 372 1178 q 315 1185 351 1185 q 172 1182 258 1185 l 172 1297 q 347 1317 260 1317 q 444 1309 406 1317 q 506 1274 482 1301 q 531 1192 531 1246 q 514 1113 531 1136 q 449 1068 497 1089 l 435 1063 q 395 1045 406 1051 q 382 1032 385 1039 q 379 1010 379 1025 l 244 1010 l 244 1038 z "},"Ữ":{"ha":703,"x_min":51,"x_max":736,"o":"m 736 1078 l 736 1058 q 719 933 736 974 q 651 876 703 893 l 651 429 q 637 152 651 236 q 560 28 622 68 q 351 -11 497 -11 q 143 28 206 -11 q 66 151 81 68 q 51 429 51 235 l 51 956 l 301 956 l 301 363 q 303 242 301 272 q 315 204 306 213 q 351 196 324 196 q 387 204 378 196 q 399 243 396 213 q 401 363 401 274 l 401 956 l 510 956 q 574 973 558 956 q 589 1038 589 990 l 589 1078 l 736 1078 m 578 1233 q 572 1119 578 1157 q 542 1058 567 1081 q 463 1036 518 1036 q 338 1056 410 1036 q 305 1062 328 1057 q 269 1067 282 1067 q 251 1058 254 1067 q 247 1019 247 1049 l 122 1019 q 128 1134 122 1096 q 158 1194 133 1172 q 239 1217 183 1217 q 301 1210 267 1217 q 364 1197 335 1204 q 397 1191 374 1196 q 432 1186 419 1186 q 451 1195 447 1186 q 454 1233 454 1204 l 578 1233 z "},"Ű":{"ha":703,"x_min":51,"x_max":651,"o":"m 651 956 l 651 429 q 637 152 651 236 q 560 28 622 68 q 351 -11 497 -11 q 143 28 206 -11 q 66 151 81 68 q 51 429 51 235 l 51 956 l 301 956 l 301 363 q 303 242 301 272 q 315 204 306 213 q 351 196 324 196 q 387 204 378 196 q 399 243 396 213 q 401 363 401 274 l 401 956 l 651 956 m 183 1051 l 183 1057 l 239 1213 l 417 1213 l 417 1207 l 329 1051 l 183 1051 m 393 1051 l 393 1057 l 450 1213 l 628 1213 l 628 1207 l 539 1051 l 393 1051 z "},"Ȗ":{"ha":703,"x_min":51,"x_max":651,"o":"m 651 956 l 651 429 q 637 152 651 236 q 560 28 622 68 q 351 -11 497 -11 q 143 28 206 -11 q 66 151 81 68 q 51 429 51 235 l 51 956 l 301 956 l 301 363 q 303 242 301 272 q 315 204 306 213 q 351 196 324 196 q 387 204 378 196 q 399 243 396 213 q 401 363 401 274 l 401 956 l 651 956 m 157 1051 q 172 1154 157 1114 q 228 1218 186 1194 q 350 1242 271 1242 q 472 1218 429 1242 q 528 1154 514 1194 q 543 1051 543 1114 l 411 1051 q 401 1101 411 1085 q 350 1117 390 1117 q 299 1101 310 1117 q 289 1051 289 1085 l 157 1051 z "},"Ū":{"ha":703,"x_min":51,"x_max":651,"o":"m 651 956 l 651 429 q 637 152 651 236 q 560 28 622 68 q 351 -11 497 -11 q 143 28 206 -11 q 66 151 81 68 q 51 429 51 235 l 51 956 l 301 956 l 301 363 q 303 242 301 272 q 315 204 306 213 q 351 196 324 196 q 387 204 378 196 q 399 243 396 213 q 401 363 401 274 l 401 956 l 651 956 m 200 1039 l 200 1233 l 501 1233 l 501 1039 l 200 1039 z "},"Ų":{"ha":703,"x_min":51,"x_max":651,"o":"m 651 956 l 651 429 q 647 225 651 294 q 622 106 642 156 q 558 29 603 56 q 495 -28 519 4 q 471 -106 471 -60 q 482 -142 471 -129 q 524 -156 493 -156 l 540 -154 l 540 -265 q 450 -272 503 -272 q 330 -237 367 -272 q 293 -147 293 -203 q 354 -11 293 -79 l 350 -11 q 142 28 204 -11 q 66 151 81 68 q 51 429 51 235 l 51 956 l 301 956 l 301 363 q 303 242 301 272 q 315 204 306 213 q 351 196 324 196 q 387 204 378 196 q 399 243 396 213 q 401 363 401 274 l 401 956 l 651 956 z "},"Ů":{"ha":703,"x_min":51,"x_max":651,"o":"m 651 956 l 651 429 q 637 152 651 236 q 560 28 622 68 q 351 -11 497 -11 q 143 28 206 -11 q 66 151 81 68 q 51 429 51 235 l 51 956 l 301 956 l 301 363 q 303 242 301 272 q 315 204 306 213 q 351 196 324 196 q 387 204 378 196 q 399 243 396 213 q 401 363 401 274 l 401 956 l 651 956 m 351 999 q 224 1015 264 999 q 172 1063 183 1032 q 161 1157 161 1094 q 172 1254 161 1222 q 224 1302 183 1286 q 351 1318 264 1318 q 478 1302 439 1318 q 529 1254 518 1286 q 540 1157 540 1222 q 529 1063 540 1094 q 478 1015 518 1032 q 351 999 439 999 m 351 1103 q 390 1107 379 1103 q 404 1121 401 1111 q 407 1157 407 1131 q 404 1194 407 1183 q 390 1210 401 1206 q 351 1215 379 1215 q 313 1210 324 1215 q 299 1194 301 1206 q 296 1157 296 1183 q 299 1121 296 1131 q 313 1107 301 1111 q 351 1103 324 1103 z "},"Ũ":{"ha":703,"x_min":51,"x_max":651,"o":"m 651 956 l 651 429 q 637 152 651 236 q 560 28 622 68 q 351 -11 497 -11 q 143 28 206 -11 q 66 151 81 68 q 51 429 51 235 l 51 956 l 301 956 l 301 363 q 303 242 301 272 q 315 204 306 213 q 351 196 324 196 q 387 204 378 196 q 399 243 396 213 q 401 363 401 274 l 401 956 l 651 956 m 578 1233 q 572 1119 578 1157 q 542 1058 567 1081 q 463 1036 518 1036 q 338 1056 410 1036 q 305 1062 328 1057 q 269 1067 282 1067 q 251 1058 254 1067 q 247 1019 247 1049 l 122 1019 q 128 1134 122 1096 q 158 1194 133 1172 q 239 1217 183 1217 q 301 1210 267 1217 q 364 1197 335 1204 q 397 1191 374 1196 q 432 1186 419 1186 q 451 1195 447 1186 q 454 1233 454 1204 l 578 1233 z "},"V":{"ha":693,"x_min":7,"x_max":686,"o":"m 167 0 l 7 956 l 260 956 l 343 256 l 358 256 l 438 956 l 686 956 l 526 0 l 167 0 z "},"W":{"ha":1085,"x_min":14,"x_max":1071,"o":"m 614 0 l 547 586 l 536 586 l 469 0 l 131 0 l 14 956 l 264 956 l 313 258 l 325 258 l 403 956 l 689 956 l 769 258 l 782 258 l 824 956 l 1071 956 l 953 0 l 614 0 z "},"Ẃ":{"ha":1085,"x_min":14,"x_max":1071,"o":"m 614 0 l 547 586 l 536 586 l 469 0 l 131 0 l 14 956 l 264 956 l 313 258 l 325 258 l 403 956 l 689 956 l 769 258 l 782 258 l 824 956 l 1071 956 l 953 0 l 614 0 m 456 1028 l 456 1035 l 528 1233 l 749 1233 l 749 1226 l 633 1028 l 456 1028 z "},"Ŵ":{"ha":1085,"x_min":14,"x_max":1071,"o":"m 614 0 l 547 586 l 536 586 l 469 0 l 131 0 l 14 956 l 264 956 l 313 258 l 325 258 l 403 956 l 689 956 l 769 258 l 782 258 l 824 956 l 1071 956 l 953 0 l 614 0 m 331 1051 l 331 1063 l 432 1233 l 651 1233 l 756 1063 l 756 1051 l 603 1051 l 542 1136 l 483 1051 l 331 1051 z "},"Ẅ":{"ha":1085,"x_min":14,"x_max":1071,"o":"m 614 0 l 547 586 l 536 586 l 469 0 l 131 0 l 14 956 l 264 956 l 313 258 l 325 258 l 403 956 l 689 956 l 769 258 l 782 258 l 824 956 l 1071 956 l 953 0 l 614 0 m 322 1056 l 322 1215 l 511 1215 l 511 1056 l 322 1056 m 574 1056 l 574 1215 l 763 1215 l 763 1056 l 574 1056 z "},"Ẁ":{"ha":1085,"x_min":14,"x_max":1071,"o":"m 614 0 l 547 586 l 536 586 l 469 0 l 131 0 l 14 956 l 264 956 l 313 258 l 325 258 l 403 956 l 689 956 l 769 258 l 782 258 l 824 956 l 1071 956 l 953 0 l 614 0 m 460 1028 l 346 1226 l 346 1233 l 565 1233 l 639 1035 l 639 1028 l 460 1028 z "},"X":{"ha":724,"x_min":8,"x_max":715,"o":"m 446 0 l 364 307 l 351 307 l 268 0 l 8 0 l 189 481 l 13 956 l 281 956 l 358 663 l 371 663 l 451 956 l 711 956 l 536 488 l 715 0 l 446 0 z "},"Y":{"ha":681,"x_min":-3,"x_max":683,"o":"m 215 0 l 215 318 l -3 956 l 249 956 l 339 569 l 351 569 l 438 956 l 683 956 l 465 318 l 465 0 l 215 0 z "},"Ý":{"ha":681,"x_min":-3,"x_max":683,"o":"m 215 0 l 215 318 l -3 956 l 249 956 l 339 569 l 351 569 l 438 956 l 683 956 l 465 318 l 465 0 l 215 0 m 253 1042 l 253 1049 l 325 1247 l 546 1247 l 546 1240 l 431 1042 l 253 1042 z "},"Ŷ":{"ha":681,"x_min":-3,"x_max":683,"o":"m 215 0 l 215 318 l -3 956 l 249 956 l 339 569 l 351 569 l 438 956 l 683 956 l 465 318 l 465 0 l 215 0 m 128 1051 l 128 1063 l 229 1233 l 449 1233 l 553 1063 l 553 1051 l 400 1051 l 339 1136 l 281 1051 l 128 1051 z "},"Ÿ":{"ha":681,"x_min":-3,"x_max":683,"o":"m 215 0 l 215 318 l -3 956 l 249 956 l 339 569 l 351 569 l 438 956 l 683 956 l 465 318 l 465 0 l 215 0 m 125 1079 l 125 1239 l 314 1239 l 314 1079 l 125 1079 m 376 1079 l 376 1239 l 565 1239 l 565 1079 l 376 1079 z "},"Ỵ":{"ha":681,"x_min":-3,"x_max":683,"o":"m 215 0 l 215 318 l -3 956 l 249 956 l 339 569 l 351 569 l 438 956 l 683 956 l 465 318 l 465 0 l 215 0 m 218 -297 l 218 -86 l 463 -86 l 463 -297 l 218 -297 z "},"Ỳ":{"ha":681,"x_min":-3,"x_max":683,"o":"m 215 0 l 215 318 l -3 956 l 249 956 l 339 569 l 351 569 l 438 956 l 683 956 l 465 318 l 465 0 l 215 0 m 257 1028 l 143 1226 l 143 1233 l 363 1233 l 436 1035 l 436 1028 l 257 1028 z "},"Ỷ":{"ha":681,"x_min":-3,"x_max":683,"o":"m 215 0 l 215 318 l -3 956 l 249 956 l 339 569 l 351 569 l 438 956 l 683 956 l 465 318 l 465 0 l 215 0 m 233 1038 q 244 1092 233 1075 q 288 1118 256 1108 l 303 1124 q 350 1142 339 1135 q 361 1163 361 1149 q 351 1181 361 1178 q 304 1185 340 1185 q 161 1182 247 1185 l 161 1297 q 336 1317 249 1317 q 433 1309 394 1317 q 495 1274 471 1301 q 519 1192 519 1246 q 503 1113 519 1136 q 438 1068 486 1089 l 424 1063 q 384 1045 394 1051 q 371 1032 374 1039 q 368 1010 368 1025 l 233 1010 l 233 1038 z "},"Ȳ":{"ha":681,"x_min":-3,"x_max":683,"o":"m 215 0 l 215 318 l -3 956 l 249 956 l 339 569 l 351 569 l 438 956 l 683 956 l 465 318 l 465 0 l 215 0 m 189 1039 l 189 1233 l 490 1233 l 490 1039 l 189 1039 z "},"Ỹ":{"ha":681,"x_min":-3,"x_max":683,"o":"m 215 0 l 215 318 l -3 956 l 249 956 l 339 569 l 351 569 l 438 956 l 683 956 l 465 318 l 465 0 l 215 0 m 567 1233 q 561 1119 567 1157 q 531 1058 556 1081 q 451 1036 507 1036 q 326 1056 399 1036 q 294 1062 317 1057 q 258 1067 271 1067 q 240 1058 243 1067 q 236 1019 236 1049 l 111 1019 q 117 1134 111 1096 q 147 1194 122 1172 q 228 1217 172 1217 q 290 1210 256 1217 q 353 1197 324 1204 q 385 1191 363 1196 q 421 1186 408 1186 q 440 1195 436 1186 q 443 1233 443 1204 l 567 1233 z "},"Z":{"ha":629,"x_min":40,"x_max":588,"o":"m 40 0 l 40 194 l 304 750 l 50 750 l 50 956 l 588 956 l 588 764 l 321 206 l 588 206 l 588 0 l 40 0 z "},"Ź":{"ha":629,"x_min":40,"x_max":588,"o":"m 40 0 l 40 194 l 304 750 l 50 750 l 50 956 l 588 956 l 588 764 l 321 206 l 588 206 l 588 0 l 40 0 m 228 1028 l 228 1035 l 300 1233 l 521 1233 l 521 1226 l 406 1028 l 228 1028 z "},"Ž":{"ha":629,"x_min":40,"x_max":588,"o":"m 40 0 l 40 194 l 304 750 l 50 750 l 50 956 l 588 956 l 588 764 l 321 206 l 588 206 l 588 0 l 40 0 m 213 1043 l 111 1213 l 111 1225 l 264 1225 l 324 1140 l 383 1225 l 536 1225 l 536 1213 l 432 1043 l 213 1043 z "},"Ż":{"ha":629,"x_min":40,"x_max":588,"o":"m 40 0 l 40 194 l 304 750 l 50 750 l 50 956 l 588 956 l 588 764 l 321 206 l 588 206 l 588 0 l 40 0 m 221 1056 l 221 1215 l 410 1215 l 410 1056 l 221 1056 z "},"Ẓ":{"ha":629,"x_min":40,"x_max":588,"o":"m 40 0 l 40 194 l 304 750 l 50 750 l 50 956 l 588 956 l 588 764 l 321 206 l 588 206 l 588 0 l 40 0 m 193 -297 l 193 -86 l 438 -86 l 438 -297 l 193 -297 z "},"a":{"ha":606,"x_min":26,"x_max":560,"o":"m 182 -11 q 62 43 97 -11 q 26 208 26 97 q 43 337 26 290 q 101 404 60 383 q 217 425 142 425 q 328 419 264 425 l 328 447 q 321 510 328 492 q 292 533 314 528 q 214 538 271 538 q 58 531 125 538 l 58 699 q 286 719 165 719 q 460 690 401 719 q 540 600 519 661 q 560 426 560 539 l 560 0 l 335 0 l 329 79 l 315 79 q 182 -11 278 -11 m 285 172 q 309 177 300 172 q 322 193 318 182 q 328 258 328 210 l 328 296 l 288 296 q 253 283 261 296 q 244 229 244 271 q 251 184 244 196 q 285 172 257 172 z "},"á":{"ha":606,"x_min":26,"x_max":560,"o":"m 182 -11 q 62 43 97 -11 q 26 208 26 97 q 43 337 26 290 q 101 404 60 383 q 217 425 142 425 q 328 419 264 425 l 328 447 q 321 510 328 492 q 292 533 314 528 q 214 538 271 538 q 58 531 125 538 l 58 699 q 286 719 165 719 q 460 690 401 719 q 540 600 519 661 q 560 426 560 539 l 560 0 l 335 0 l 329 79 l 315 79 q 182 -11 278 -11 m 285 172 q 309 177 300 172 q 322 193 318 182 q 328 258 328 210 l 328 296 l 288 296 q 253 283 261 296 q 244 229 244 271 q 251 184 244 196 q 285 172 257 172 m 213 826 l 213 833 l 285 1032 l 506 1032 l 506 1025 l 390 826 l 213 826 z "},"ă":{"ha":606,"x_min":26,"x_max":560,"o":"m 182 -11 q 62 43 97 -11 q 26 208 26 97 q 43 337 26 290 q 101 404 60 383 q 217 425 142 425 q 328 419 264 425 l 328 447 q 321 510 328 492 q 292 533 314 528 q 214 538 271 538 q 58 531 125 538 l 58 699 q 286 719 165 719 q 460 690 401 719 q 540 600 519 661 q 560 426 560 539 l 560 0 l 335 0 l 329 79 l 315 79 q 182 -11 278 -11 m 285 172 q 309 177 300 172 q 322 193 318 182 q 328 258 328 210 l 328 296 l 288 296 q 253 283 261 296 q 244 229 244 271 q 251 184 244 196 q 285 172 257 172 m 496 1032 q 481 929 496 969 q 424 865 467 889 q 303 842 382 842 q 181 865 224 842 q 124 929 139 889 q 110 1032 110 969 l 242 1032 q 252 983 242 999 q 303 967 263 967 q 353 983 343 967 q 364 1032 364 999 l 496 1032 z "},"ắ":{"ha":606,"x_min":26,"x_max":560,"o":"m 182 -11 q 62 43 97 -11 q 26 208 26 97 q 43 337 26 290 q 101 404 60 383 q 217 425 142 425 q 328 419 264 425 l 328 447 q 321 510 328 492 q 292 533 314 528 q 214 538 271 538 q 58 531 125 538 l 58 699 q 286 719 165 719 q 460 690 401 719 q 540 600 519 661 q 560 426 560 539 l 560 0 l 335 0 l 329 79 l 315 79 q 182 -11 278 -11 m 285 172 q 309 177 300 172 q 322 193 318 182 q 328 258 328 210 l 328 296 l 288 296 q 253 283 261 296 q 244 229 244 271 q 251 184 244 196 q 285 172 257 172 m 489 1032 q 474 929 489 969 q 417 865 460 889 q 296 842 375 842 q 174 865 217 842 q 117 929 132 889 q 103 1032 103 969 l 235 1032 q 245 983 235 999 q 296 967 256 967 q 347 983 336 967 q 357 1032 357 999 l 489 1032 m 196 1067 l 196 1074 l 268 1272 l 489 1272 l 489 1265 l 374 1067 l 196 1067 z "},"ặ":{"ha":606,"x_min":26,"x_max":560,"o":"m 182 -11 q 62 43 97 -11 q 26 208 26 97 q 43 337 26 290 q 101 404 60 383 q 217 425 142 425 q 328 419 264 425 l 328 447 q 321 510 328 492 q 292 533 314 528 q 214 538 271 538 q 58 531 125 538 l 58 699 q 286 719 165 719 q 460 690 401 719 q 540 600 519 661 q 560 426 560 539 l 560 0 l 335 0 l 329 79 l 315 79 q 182 -11 278 -11 m 285 172 q 309 177 300 172 q 322 193 318 182 q 328 258 328 210 l 328 296 l 288 296 q 253 283 261 296 q 244 229 244 271 q 251 184 244 196 q 285 172 257 172 m 182 -297 l 182 -86 l 426 -86 l 426 -297 l 182 -297 m 496 1032 q 481 929 496 969 q 424 865 467 889 q 303 842 382 842 q 181 865 224 842 q 124 929 139 889 q 110 1032 110 969 l 242 1032 q 252 983 242 999 q 303 967 263 967 q 353 983 343 967 q 364 1032 364 999 l 496 1032 z "},"ằ":{"ha":606,"x_min":26,"x_max":560,"o":"m 182 -11 q 62 43 97 -11 q 26 208 26 97 q 43 337 26 290 q 101 404 60 383 q 217 425 142 425 q 328 419 264 425 l 328 447 q 321 510 328 492 q 292 533 314 528 q 214 538 271 538 q 58 531 125 538 l 58 699 q 286 719 165 719 q 460 690 401 719 q 540 600 519 661 q 560 426 560 539 l 560 0 l 335 0 l 329 79 l 315 79 q 182 -11 278 -11 m 285 172 q 309 177 300 172 q 322 193 318 182 q 328 258 328 210 l 328 296 l 288 296 q 253 283 261 296 q 244 229 244 271 q 251 184 244 196 q 285 172 257 172 m 507 1032 q 492 929 507 969 q 435 865 478 889 q 314 842 393 842 q 192 865 235 842 q 135 929 150 889 q 121 1032 121 969 l 253 1032 q 263 983 253 999 q 314 967 274 967 q 365 983 354 967 q 375 1032 375 999 l 507 1032 m 228 1067 l 114 1265 l 114 1272 l 333 1272 l 407 1074 l 407 1067 l 228 1067 z "},"ẳ":{"ha":606,"x_min":26,"x_max":560,"o":"m 182 -11 q 62 43 97 -11 q 26 208 26 97 q 43 337 26 290 q 101 404 60 383 q 217 425 142 425 q 328 419 264 425 l 328 447 q 321 510 328 492 q 292 533 314 528 q 214 538 271 538 q 58 531 125 538 l 58 699 q 286 719 165 719 q 460 690 401 719 q 540 600 519 661 q 560 426 560 539 l 560 0 l 335 0 l 329 79 l 315 79 q 182 -11 278 -11 m 285 172 q 309 177 300 172 q 322 193 318 182 q 328 258 328 210 l 328 296 l 288 296 q 253 283 261 296 q 244 229 244 271 q 251 184 244 196 q 285 172 257 172 m 483 1032 q 469 929 483 969 q 412 865 454 889 q 290 842 369 842 q 169 865 211 842 q 112 929 126 889 q 97 1032 97 969 l 229 1032 q 240 983 229 999 q 290 967 250 967 q 341 983 331 967 q 351 1032 351 999 l 483 1032 m 224 1072 q 235 1126 224 1110 q 278 1153 246 1143 l 293 1157 q 341 1176 331 1169 q 351 1197 351 1182 q 343 1215 351 1211 q 308 1218 335 1218 q 151 1215 246 1218 l 151 1331 q 326 1350 239 1350 q 424 1342 386 1350 q 485 1308 461 1335 q 510 1225 510 1281 q 493 1146 510 1169 q 428 1103 476 1122 l 414 1096 q 375 1079 386 1085 q 361 1067 364 1074 q 358 1044 358 1060 l 224 1044 l 224 1072 z "},"ẵ":{"ha":606,"x_min":26,"x_max":560,"o":"m 182 -11 q 62 43 97 -11 q 26 208 26 97 q 43 337 26 290 q 101 404 60 383 q 217 425 142 425 q 328 419 264 425 l 328 447 q 321 510 328 492 q 292 533 314 528 q 214 538 271 538 q 58 531 125 538 l 58 699 q 286 719 165 719 q 460 690 401 719 q 540 600 519 661 q 560 426 560 539 l 560 0 l 335 0 l 329 79 l 315 79 q 182 -11 278 -11 m 285 172 q 309 177 300 172 q 322 193 318 182 q 328 258 328 210 l 328 296 l 288 296 q 253 283 261 296 q 244 229 244 271 q 251 184 244 196 q 285 172 257 172 m 493 1032 q 478 929 493 969 q 422 865 464 889 q 300 842 379 842 q 178 865 221 842 q 122 929 136 889 q 107 1032 107 969 l 239 1032 q 249 983 239 999 q 300 967 260 967 q 351 983 340 967 q 361 1032 361 999 l 493 1032 m 531 1296 q 525 1181 531 1219 q 495 1121 519 1143 q 415 1099 471 1099 q 290 1118 363 1099 q 258 1124 281 1119 q 222 1129 235 1129 q 203 1120 207 1129 q 200 1082 200 1111 l 75 1082 q 81 1197 75 1158 q 111 1257 86 1235 q 192 1279 136 1279 q 253 1273 219 1279 q 317 1260 288 1267 q 349 1253 326 1258 q 385 1249 372 1249 q 403 1258 400 1249 q 407 1296 407 1267 l 531 1296 z "},"ǎ":{"ha":606,"x_min":26,"x_max":560,"o":"m 182 -11 q 62 43 97 -11 q 26 208 26 97 q 43 337 26 290 q 101 404 60 383 q 217 425 142 425 q 328 419 264 425 l 328 447 q 321 510 328 492 q 292 533 314 528 q 214 538 271 538 q 58 531 125 538 l 58 699 q 286 719 165 719 q 460 690 401 719 q 540 600 519 661 q 560 426 560 539 l 560 0 l 335 0 l 329 79 l 315 79 q 182 -11 278 -11 m 285 172 q 309 177 300 172 q 322 193 318 182 q 328 258 328 210 l 328 296 l 288 296 q 253 283 261 296 q 244 229 244 271 q 251 184 244 196 q 285 172 257 172 m 193 850 l 92 1019 l 92 1032 l 244 1032 l 304 947 l 364 1032 l 517 1032 l 517 1019 l 413 850 l 193 850 z "},"â":{"ha":606,"x_min":26,"x_max":560,"o":"m 182 -11 q 62 43 97 -11 q 26 208 26 97 q 43 337 26 290 q 101 404 60 383 q 217 425 142 425 q 328 419 264 425 l 328 447 q 321 510 328 492 q 292 533 314 528 q 214 538 271 538 q 58 531 125 538 l 58 699 q 286 719 165 719 q 460 690 401 719 q 540 600 519 661 q 560 426 560 539 l 560 0 l 335 0 l 329 79 l 315 79 q 182 -11 278 -11 m 285 172 q 309 177 300 172 q 322 193 318 182 q 328 258 328 210 l 328 296 l 288 296 q 253 283 261 296 q 244 229 244 271 q 251 184 244 196 q 285 172 257 172 m 94 850 l 94 861 l 196 1032 l 415 1032 l 519 861 l 519 850 l 367 850 l 306 935 l 247 850 l 94 850 z "},"ấ":{"ha":606,"x_min":26,"x_max":618,"o":"m 182 -11 q 62 43 97 -11 q 26 208 26 97 q 43 337 26 290 q 101 404 60 383 q 217 425 142 425 q 328 419 264 425 l 328 447 q 321 510 328 492 q 292 533 314 528 q 214 538 271 538 q 58 531 125 538 l 58 699 q 286 719 165 719 q 460 690 401 719 q 540 600 519 661 q 560 426 560 539 l 560 0 l 335 0 l 329 79 l 315 79 q 182 -11 278 -11 m 285 172 q 309 177 300 172 q 322 193 318 182 q 328 258 328 210 l 328 296 l 288 296 q 253 283 261 296 q 244 229 244 271 q 251 184 244 196 q 285 172 257 172 m 92 850 l 92 861 l 193 1032 l 413 1032 l 517 861 l 517 850 l 364 850 l 303 935 l 244 850 l 92 850 m 325 1067 l 325 1074 l 397 1272 l 618 1272 l 618 1265 l 503 1067 l 325 1067 z "},"ậ":{"ha":606,"x_min":26,"x_max":560,"o":"m 182 -11 q 62 43 97 -11 q 26 208 26 97 q 43 337 26 290 q 101 404 60 383 q 217 425 142 425 q 328 419 264 425 l 328 447 q 321 510 328 492 q 292 533 314 528 q 214 538 271 538 q 58 531 125 538 l 58 699 q 286 719 165 719 q 460 690 401 719 q 540 600 519 661 q 560 426 560 539 l 560 0 l 335 0 l 329 79 l 315 79 q 182 -11 278 -11 m 285 172 q 309 177 300 172 q 322 193 318 182 q 328 258 328 210 l 328 296 l 288 296 q 253 283 261 296 q 244 229 244 271 q 251 184 244 196 q 285 172 257 172 m 182 -297 l 182 -86 l 426 -86 l 426 -297 l 182 -297 m 92 850 l 92 861 l 193 1032 l 413 1032 l 517 861 l 517 850 l 364 850 l 303 935 l 244 850 l 92 850 z "},"ầ":{"ha":606,"x_min":26,"x_max":560,"o":"m 182 -11 q 62 43 97 -11 q 26 208 26 97 q 43 337 26 290 q 101 404 60 383 q 217 425 142 425 q 328 419 264 425 l 328 447 q 321 510 328 492 q 292 533 314 528 q 214 538 271 538 q 58 531 125 538 l 58 699 q 286 719 165 719 q 460 690 401 719 q 540 600 519 661 q 560 426 560 539 l 560 0 l 335 0 l 329 79 l 315 79 q 182 -11 278 -11 m 285 172 q 309 177 300 172 q 322 193 318 182 q 328 258 328 210 l 328 296 l 288 296 q 253 283 261 296 q 244 229 244 271 q 251 184 244 196 q 285 172 257 172 m 75 850 l 75 861 l 176 1032 l 396 1032 l 500 861 l 500 850 l 347 850 l 286 935 l 228 850 l 75 850 m 354 1067 l 240 1265 l 240 1272 l 460 1272 l 533 1074 l 533 1067 l 354 1067 z "},"ẩ":{"ha":606,"x_min":26,"x_max":667,"o":"m 182 -11 q 62 43 97 -11 q 26 208 26 97 q 43 337 26 290 q 101 404 60 383 q 217 425 142 425 q 328 419 264 425 l 328 447 q 321 510 328 492 q 292 533 314 528 q 214 538 271 538 q 58 531 125 538 l 58 699 q 286 719 165 719 q 460 690 401 719 q 540 600 519 661 q 560 426 560 539 l 560 0 l 335 0 l 329 79 l 315 79 q 182 -11 278 -11 m 285 172 q 309 177 300 172 q 322 193 318 182 q 328 258 328 210 l 328 296 l 288 296 q 253 283 261 296 q 244 229 244 271 q 251 184 244 196 q 285 172 257 172 m 92 850 l 92 861 l 193 1032 l 413 1032 l 517 861 l 517 850 l 364 850 l 303 935 l 244 850 l 92 850 m 381 1089 q 392 1143 381 1126 q 435 1169 403 1160 l 450 1174 q 498 1192 488 1186 q 508 1214 508 1199 q 500 1231 508 1228 q 465 1235 492 1235 q 308 1232 403 1235 l 308 1347 q 483 1367 396 1367 q 581 1359 543 1367 q 642 1324 618 1351 q 667 1242 667 1297 q 650 1163 667 1186 q 585 1119 633 1139 l 571 1113 q 532 1096 543 1101 q 518 1083 521 1090 q 515 1061 515 1076 l 381 1061 l 381 1089 z "},"ẫ":{"ha":606,"x_min":26,"x_max":560,"o":"m 182 -11 q 62 43 97 -11 q 26 208 26 97 q 43 337 26 290 q 101 404 60 383 q 217 425 142 425 q 328 419 264 425 l 328 447 q 321 510 328 492 q 292 533 314 528 q 214 538 271 538 q 58 531 125 538 l 58 699 q 286 719 165 719 q 460 690 401 719 q 540 600 519 661 q 560 426 560 539 l 560 0 l 335 0 l 329 79 l 315 79 q 182 -11 278 -11 m 285 172 q 309 177 300 172 q 322 193 318 182 q 328 258 328 210 l 328 296 l 288 296 q 253 283 261 296 q 244 229 244 271 q 251 184 244 196 q 285 172 257 172 m 89 850 l 89 861 l 190 1032 l 410 1032 l 514 861 l 514 850 l 361 850 l 300 935 l 242 850 l 89 850 m 531 1272 q 525 1158 531 1196 q 495 1097 519 1119 q 415 1075 471 1075 q 290 1094 363 1075 q 258 1101 281 1096 q 222 1106 235 1106 q 203 1097 207 1106 q 200 1058 200 1088 l 75 1058 q 81 1173 75 1135 q 111 1233 86 1211 q 192 1256 136 1256 q 253 1249 219 1256 q 317 1236 288 1243 q 349 1230 326 1235 q 385 1225 372 1225 q 403 1234 400 1225 q 407 1272 407 1243 l 531 1272 z "},"ȁ":{"ha":606,"x_min":26,"x_max":560,"o":"m 182 -11 q 62 43 97 -11 q 26 208 26 97 q 43 337 26 290 q 101 404 60 383 q 217 425 142 425 q 328 419 264 425 l 328 447 q 321 510 328 492 q 292 533 314 528 q 214 538 271 538 q 58 531 125 538 l 58 699 q 286 719 165 719 q 460 690 401 719 q 540 600 519 661 q 560 426 560 539 l 560 0 l 335 0 l 329 79 l 315 79 q 182 -11 278 -11 m 285 172 q 309 177 300 172 q 322 193 318 182 q 328 258 328 210 l 328 296 l 288 296 q 253 283 261 296 q 244 229 244 271 q 251 184 244 196 q 285 172 257 172 m 274 850 l 128 850 l 39 1006 l 39 1011 l 217 1011 l 274 856 l 274 850 m 483 850 l 338 850 l 250 1006 l 250 1011 l 428 1011 l 483 856 l 483 850 z "},"ä":{"ha":606,"x_min":26,"x_max":560,"o":"m 182 -11 q 62 43 97 -11 q 26 208 26 97 q 43 337 26 290 q 101 404 60 383 q 217 425 142 425 q 328 419 264 425 l 328 447 q 321 510 328 492 q 292 533 314 528 q 214 538 271 538 q 58 531 125 538 l 58 699 q 286 719 165 719 q 460 690 401 719 q 540 600 519 661 q 560 426 560 539 l 560 0 l 335 0 l 329 79 l 315 79 q 182 -11 278 -11 m 285 172 q 309 177 300 172 q 322 193 318 182 q 328 258 328 210 l 328 296 l 288 296 q 253 283 261 296 q 244 229 244 271 q 251 184 244 196 q 285 172 257 172 m 86 854 l 86 1014 l 275 1014 l 275 854 l 86 854 m 338 854 l 338 1014 l 526 1014 l 526 854 l 338 854 z "},"ạ":{"ha":606,"x_min":26,"x_max":560,"o":"m 182 -11 q 62 43 97 -11 q 26 208 26 97 q 43 337 26 290 q 101 404 60 383 q 217 425 142 425 q 328 419 264 425 l 328 447 q 321 510 328 492 q 292 533 314 528 q 214 538 271 538 q 58 531 125 538 l 58 699 q 286 719 165 719 q 460 690 401 719 q 540 600 519 661 q 560 426 560 539 l 560 0 l 335 0 l 329 79 l 315 79 q 182 -11 278 -11 m 285 172 q 309 177 300 172 q 322 193 318 182 q 328 258 328 210 l 328 296 l 288 296 q 253 283 261 296 q 244 229 244 271 q 251 184 244 196 q 285 172 257 172 m 182 -297 l 182 -86 l 426 -86 l 426 -297 l 182 -297 z "},"à":{"ha":606,"x_min":26,"x_max":560,"o":"m 182 -11 q 62 43 97 -11 q 26 208 26 97 q 43 337 26 290 q 101 404 60 383 q 217 425 142 425 q 328 419 264 425 l 328 447 q 321 510 328 492 q 292 533 314 528 q 214 538 271 538 q 58 531 125 538 l 58 699 q 286 719 165 719 q 460 690 401 719 q 540 600 519 661 q 560 426 560 539 l 560 0 l 335 0 l 329 79 l 315 79 q 182 -11 278 -11 m 285 172 q 309 177 300 172 q 322 193 318 182 q 328 258 328 210 l 328 296 l 288 296 q 253 283 261 296 q 244 229 244 271 q 251 184 244 196 q 285 172 257 172 m 225 826 l 111 1025 l 111 1032 l 331 1032 l 404 833 l 404 826 l 225 826 z "},"ả":{"ha":606,"x_min":26,"x_max":560,"o":"m 182 -11 q 62 43 97 -11 q 26 208 26 97 q 43 337 26 290 q 101 404 60 383 q 217 425 142 425 q 328 419 264 425 l 328 447 q 321 510 328 492 q 292 533 314 528 q 214 538 271 538 q 58 531 125 538 l 58 699 q 286 719 165 719 q 460 690 401 719 q 540 600 519 661 q 560 426 560 539 l 560 0 l 335 0 l 329 79 l 315 79 q 182 -11 278 -11 m 285 172 q 309 177 300 172 q 322 193 318 182 q 328 258 328 210 l 328 296 l 288 296 q 253 283 261 296 q 244 229 244 271 q 251 184 244 196 q 285 172 257 172 m 197 881 q 208 935 197 918 q 251 961 219 951 l 267 965 q 315 984 304 978 q 325 1006 325 990 q 317 1023 325 1019 q 282 1026 308 1026 q 125 1024 219 1026 l 125 1139 q 300 1158 213 1158 q 397 1151 360 1158 q 459 1116 435 1143 q 483 1033 483 1089 q 467 954 483 978 q 401 911 450 931 l 388 904 q 349 888 360 893 q 335 875 338 882 q 332 853 332 868 l 197 853 l 197 881 z "},"ȃ":{"ha":606,"x_min":26,"x_max":560,"o":"m 182 -11 q 62 43 97 -11 q 26 208 26 97 q 43 337 26 290 q 101 404 60 383 q 217 425 142 425 q 328 419 264 425 l 328 447 q 321 510 328 492 q 292 533 314 528 q 214 538 271 538 q 58 531 125 538 l 58 699 q 286 719 165 719 q 460 690 401 719 q 540 600 519 661 q 560 426 560 539 l 560 0 l 335 0 l 329 79 l 315 79 q 182 -11 278 -11 m 285 172 q 309 177 300 172 q 322 193 318 182 q 328 258 328 210 l 328 296 l 288 296 q 253 283 261 296 q 244 229 244 271 q 251 184 244 196 q 285 172 257 172 m 110 850 q 124 953 110 913 q 181 1017 139 993 q 303 1040 224 1040 q 424 1017 382 1040 q 481 953 467 993 q 496 850 496 913 l 364 850 q 353 899 364 883 q 303 915 343 915 q 252 899 263 915 q 242 850 242 883 l 110 850 z "},"ā":{"ha":606,"x_min":26,"x_max":560,"o":"m 182 -11 q 62 43 97 -11 q 26 208 26 97 q 43 337 26 290 q 101 404 60 383 q 217 425 142 425 q 328 419 264 425 l 328 447 q 321 510 328 492 q 292 533 314 528 q 214 538 271 538 q 58 531 125 538 l 58 699 q 286 719 165 719 q 460 690 401 719 q 540 600 519 661 q 560 426 560 539 l 560 0 l 335 0 l 329 79 l 315 79 q 182 -11 278 -11 m 285 172 q 309 177 300 172 q 322 193 318 182 q 328 258 328 210 l 328 296 l 288 296 q 253 283 261 296 q 244 229 244 271 q 251 184 244 196 q 285 172 257 172 m 153 838 l 153 1032 l 454 1032 l 454 838 l 153 838 z "},"ą":{"ha":606,"x_min":26,"x_max":560,"o":"m 560 0 q 510 -47 532 -17 q 489 -110 489 -76 q 542 -156 489 -156 l 558 -154 l 558 -265 q 471 -272 521 -272 q 349 -238 386 -272 q 311 -151 311 -204 q 390 0 311 -75 l 335 0 l 329 79 l 315 79 q 182 -11 278 -11 q 62 43 97 -11 q 26 208 26 97 q 43 337 26 290 q 101 404 60 383 q 217 425 142 425 q 328 419 264 425 l 328 447 q 321 510 328 492 q 292 533 314 528 q 214 538 271 538 q 115 534 165 538 q 58 531 64 531 l 58 699 q 286 719 165 719 q 460 690 401 719 q 540 600 519 661 q 560 426 560 539 l 560 0 m 328 296 l 288 296 q 253 283 261 296 q 244 229 244 271 q 251 184 244 196 q 285 172 257 172 q 309 177 300 172 q 322 193 318 182 q 328 258 328 210 l 328 296 z "},"å":{"ha":606,"x_min":26,"x_max":560,"o":"m 182 -11 q 62 43 97 -11 q 26 208 26 97 q 43 337 26 290 q 101 404 60 383 q 217 425 142 425 q 328 419 264 425 l 328 447 q 321 510 328 492 q 292 533 314 528 q 214 538 271 538 q 58 531 125 538 l 58 699 q 286 719 165 719 q 460 690 401 719 q 540 600 519 661 q 560 426 560 539 l 560 0 l 335 0 l 329 79 l 315 79 q 182 -11 278 -11 m 285 172 q 309 177 300 172 q 322 193 318 182 q 328 258 328 210 l 328 296 l 288 296 q 253 283 261 296 q 244 229 244 271 q 251 184 244 196 q 285 172 257 172 m 307 808 q 179 825 219 808 q 128 873 139 842 q 117 967 117 904 q 128 1064 117 1032 q 179 1112 139 1096 q 307 1128 219 1128 q 434 1112 394 1128 q 485 1064 474 1096 q 496 967 496 1032 q 485 873 496 904 q 434 825 474 842 q 307 808 394 808 m 307 913 q 346 917 335 913 q 360 931 357 921 q 363 967 363 940 q 360 1004 363 993 q 346 1020 357 1015 q 307 1025 335 1025 q 268 1020 279 1025 q 254 1004 257 1015 q 251 967 251 993 q 254 931 251 940 q 268 917 257 921 q 307 913 279 913 z "},"ǻ":{"ha":606,"x_min":26,"x_max":560,"o":"m 182 -11 q 62 43 97 -11 q 26 208 26 97 q 43 337 26 290 q 101 404 60 383 q 217 425 142 425 q 328 419 264 425 l 328 447 q 321 510 328 492 q 292 533 314 528 q 214 538 271 538 q 58 531 125 538 l 58 699 q 286 719 165 719 q 460 690 401 719 q 540 600 519 661 q 560 426 560 539 l 560 0 l 335 0 l 329 79 l 315 79 q 182 -11 278 -11 m 285 172 q 309 177 300 172 q 322 193 318 182 q 328 258 328 210 l 328 296 l 288 296 q 253 283 261 296 q 244 229 244 271 q 251 184 244 196 q 285 172 257 172 m 304 839 q 176 856 217 839 q 125 903 136 872 q 114 997 114 935 q 125 1094 114 1063 q 176 1142 136 1126 q 304 1158 217 1158 q 431 1142 392 1158 q 482 1094 471 1126 q 493 997 493 1063 q 482 903 493 935 q 431 856 471 872 q 304 839 392 839 m 304 943 q 343 947 332 943 q 357 961 354 951 q 360 997 360 971 q 357 1035 360 1024 q 343 1051 354 1046 q 304 1056 332 1056 q 265 1051 276 1056 q 251 1035 254 1046 q 249 997 249 1024 q 251 961 249 971 q 265 947 254 951 q 304 943 276 943 m 217 1193 l 217 1200 l 289 1399 l 510 1399 l 510 1392 l 394 1193 l 217 1193 z "},"ã":{"ha":606,"x_min":26,"x_max":560,"o":"m 182 -11 q 62 43 97 -11 q 26 208 26 97 q 43 337 26 290 q 101 404 60 383 q 217 425 142 425 q 328 419 264 425 l 328 447 q 321 510 328 492 q 292 533 314 528 q 214 538 271 538 q 58 531 125 538 l 58 699 q 286 719 165 719 q 460 690 401 719 q 540 600 519 661 q 560 426 560 539 l 560 0 l 335 0 l 329 79 l 315 79 q 182 -11 278 -11 m 285 172 q 309 177 300 172 q 322 193 318 182 q 328 258 328 210 l 328 296 l 288 296 q 253 283 261 296 q 244 229 244 271 q 251 184 244 196 q 285 172 257 172 m 532 1032 q 526 917 532 956 q 497 857 521 879 q 417 835 472 835 q 292 854 364 835 q 259 860 282 856 q 224 865 236 865 q 205 856 208 865 q 201 818 201 847 l 76 818 q 82 933 76 894 q 113 993 88 971 q 193 1015 138 1015 q 255 1009 221 1015 q 318 996 289 1003 q 351 990 328 994 q 386 985 374 985 q 405 994 401 985 q 408 1032 408 1003 l 532 1032 z "},"æ":{"ha":894,"x_min":26,"x_max":857,"o":"m 857 296 l 560 296 q 565 208 560 231 q 592 178 571 185 q 672 171 614 171 q 840 176 738 171 l 840 11 q 739 -5 803 1 q 617 -11 675 -11 q 428 35 486 -11 q 233 -11 351 -11 q 105 13 150 -11 q 43 85 60 38 q 26 208 26 132 q 43 337 26 290 q 101 404 60 383 q 217 425 142 425 q 328 419 264 425 l 328 447 q 321 510 328 492 q 292 533 314 528 q 214 538 271 538 q 58 531 133 538 l 58 699 q 278 719 163 719 q 446 675 388 719 q 610 719 504 719 q 782 685 731 719 q 845 581 833 650 q 857 353 857 513 l 857 296 m 600 544 q 573 538 581 544 q 563 508 565 532 q 560 424 560 483 l 643 424 q 640 509 643 486 q 630 538 638 532 q 600 544 622 544 m 328 296 l 288 296 q 253 283 261 296 q 244 229 244 271 q 251 178 244 192 q 285 165 257 165 q 313 172 304 165 q 325 197 322 179 q 328 254 328 213 l 328 296 z "},"ǽ":{"ha":894,"x_min":26,"x_max":857,"o":"m 857 296 l 560 296 q 565 208 560 231 q 592 178 571 185 q 672 171 614 171 q 840 176 738 171 l 840 11 q 739 -5 803 1 q 617 -11 675 -11 q 428 35 486 -11 q 233 -11 351 -11 q 105 13 150 -11 q 43 85 60 38 q 26 208 26 132 q 43 337 26 290 q 101 404 60 383 q 217 425 142 425 q 328 419 264 425 l 328 447 q 321 510 328 492 q 292 533 314 528 q 214 538 271 538 q 58 531 133 538 l 58 699 q 278 719 163 719 q 446 675 388 719 q 610 719 504 719 q 782 685 731 719 q 845 581 833 650 q 857 353 857 513 l 857 296 m 600 544 q 573 538 581 544 q 563 508 565 532 q 560 424 560 483 l 643 424 q 640 509 643 486 q 630 538 638 532 q 600 544 622 544 m 328 296 l 288 296 q 253 283 261 296 q 244 229 244 271 q 251 178 244 192 q 285 165 257 165 q 313 172 304 165 q 325 197 322 179 q 328 254 328 213 l 328 296 m 357 826 l 357 833 l 429 1032 l 650 1032 l 650 1025 l 535 826 l 357 826 z "},"b":{"ha":631,"x_min":49,"x_max":596,"o":"m 426 -11 q 344 10 381 -11 q 292 78 307 31 l 278 78 l 272 0 l 49 0 l 49 1032 l 281 1032 l 281 636 l 293 636 q 344 699 311 679 q 426 719 378 719 q 528 685 492 719 q 581 573 565 651 q 596 353 596 494 q 579 129 596 207 q 526 20 563 51 q 426 -11 490 -11 m 322 185 q 353 192 346 185 q 362 231 360 200 q 364 354 364 261 q 362 478 364 447 q 353 516 360 508 q 322 524 346 524 q 297 519 304 524 q 285 496 289 514 q 281 354 281 474 q 285 217 281 242 q 296 190 288 196 q 322 185 304 185 z "},"c":{"ha":482,"x_min":35,"x_max":451,"o":"m 451 11 q 283 -11 367 -11 q 120 29 174 -11 q 51 144 67 69 q 35 354 35 219 q 51 566 35 490 q 122 681 68 642 q 283 719 175 719 q 449 700 374 719 l 449 532 q 353 538 393 538 q 295 527 311 538 q 274 481 279 517 q 268 354 268 444 q 273 227 268 263 q 294 181 278 192 q 353 171 311 171 q 451 176 388 171 l 451 11 z "},"ć":{"ha":482,"x_min":35,"x_max":451,"o":"m 451 11 q 283 -11 367 -11 q 120 29 174 -11 q 51 144 67 69 q 35 354 35 219 q 51 566 35 490 q 122 681 68 642 q 283 719 175 719 q 449 700 374 719 l 449 532 q 353 538 393 538 q 295 527 311 538 q 274 481 279 517 q 268 354 268 444 q 273 227 268 263 q 294 181 278 192 q 353 171 311 171 q 451 176 388 171 l 451 11 m 151 826 l 151 833 l 224 1032 l 444 1032 l 444 1025 l 329 826 l 151 826 z "},"č":{"ha":482,"x_min":29,"x_max":454,"o":"m 451 11 q 283 -11 367 -11 q 120 29 174 -11 q 51 144 67 69 q 35 354 35 219 q 51 566 35 490 q 122 681 68 642 q 283 719 175 719 q 449 700 374 719 l 449 532 q 353 538 393 538 q 295 527 311 538 q 274 481 279 517 q 268 354 268 444 q 273 227 268 263 q 294 181 278 192 q 353 171 311 171 q 451 176 388 171 l 451 11 m 131 850 l 29 1019 l 29 1032 l 182 1032 l 242 947 l 301 1032 l 454 1032 l 454 1019 l 350 850 l 131 850 z "},"ç":{"ha":482,"x_min":35,"x_max":451,"o":"m 451 11 q 315 -10 381 -8 l 272 -261 l 75 -261 l 75 -254 l 168 6 q 82 70 111 25 q 44 181 53 115 q 35 354 35 247 q 51 566 35 490 q 122 681 68 642 q 283 719 175 719 q 449 700 374 719 l 449 532 q 353 538 393 538 q 295 527 311 538 q 274 481 279 517 q 268 354 268 444 q 273 227 268 263 q 294 181 278 192 q 353 171 311 171 q 451 176 388 171 l 451 11 z "},"ĉ":{"ha":482,"x_min":29,"x_max":454,"o":"m 451 11 q 283 -11 367 -11 q 120 29 174 -11 q 51 144 67 69 q 35 354 35 219 q 51 566 35 490 q 122 681 68 642 q 283 719 175 719 q 449 700 374 719 l 449 532 q 353 538 393 538 q 295 527 311 538 q 274 481 279 517 q 268 354 268 444 q 273 227 268 263 q 294 181 278 192 q 353 171 311 171 q 451 176 388 171 l 451 11 m 29 850 l 29 861 l 131 1032 l 350 1032 l 454 861 l 454 850 l 301 850 l 240 935 l 182 850 l 29 850 z "},"ċ":{"ha":482,"x_min":35,"x_max":451,"o":"m 451 11 q 283 -11 367 -11 q 120 29 174 -11 q 51 144 67 69 q 35 354 35 219 q 51 566 35 490 q 122 681 68 642 q 283 719 175 719 q 449 700 374 719 l 449 532 q 353 538 393 538 q 295 527 311 538 q 274 481 279 517 q 268 354 268 444 q 273 227 268 263 q 294 181 278 192 q 353 171 311 171 q 451 176 388 171 l 451 11 m 147 854 l 147 1014 l 336 1014 l 336 854 l 147 854 z "},"d":{"ha":631,"x_min":35,"x_max":582,"o":"m 204 -11 q 104 19 140 -11 q 51 128 68 50 q 35 353 35 207 q 50 573 35 494 q 101 685 65 651 q 203 719 138 719 q 286 700 253 719 q 338 636 319 681 l 350 636 l 350 1032 l 582 1032 l 582 0 l 358 0 l 353 78 l 339 78 q 286 9 322 29 q 204 -11 250 -11 m 308 185 q 337 192 329 185 q 347 224 344 199 q 350 354 350 256 q 347 478 350 454 q 337 516 344 508 q 308 524 329 524 q 277 516 285 524 q 267 477 269 508 q 265 354 265 446 q 267 231 265 263 q 277 192 269 200 q 308 185 285 185 z "},"ð":{"ha":615,"x_min":35,"x_max":582,"o":"m 308 -11 q 124 21 181 -11 q 51 124 67 53 q 35 353 35 196 q 48 565 35 489 q 102 680 61 640 q 228 719 143 719 q 307 711 267 719 l 313 717 q 283 815 300 771 l 150 797 l 150 924 l 219 933 q 150 1026 200 965 l 150 1032 l 388 1032 q 438 964 410 1006 l 572 983 l 572 857 l 506 846 q 565 621 543 753 q 582 350 582 514 q 566 123 582 194 q 493 20 550 51 q 308 -11 436 -11 m 308 171 q 338 181 331 171 q 348 224 346 190 q 350 354 350 258 q 348 484 350 450 q 338 528 346 518 q 308 538 331 538 q 278 528 286 538 q 267 484 269 518 q 265 354 265 450 q 267 224 265 258 q 278 181 269 190 q 308 171 286 171 z "},"ď":{"ha":788,"x_min":35,"x_max":851,"o":"m 204 -11 q 104 19 140 -11 q 51 128 68 50 q 35 353 35 207 q 50 573 35 494 q 101 685 65 651 q 203 719 138 719 q 286 700 253 719 q 338 636 319 681 l 350 636 l 350 1032 l 582 1032 l 582 0 l 358 0 l 353 78 l 339 78 q 286 9 322 29 q 204 -11 250 -11 m 308 185 q 337 192 329 185 q 347 224 344 199 q 350 354 350 256 q 347 478 350 454 q 337 516 344 508 q 308 524 329 524 q 277 516 285 524 q 267 477 269 508 q 265 354 265 446 q 267 231 265 263 q 277 192 269 200 q 308 185 285 185 m 624 583 l 642 894 l 642 956 l 851 956 l 851 894 l 788 583 l 624 583 z "},"đ":{"ha":631,"x_min":35,"x_max":635,"o":"m 635 779 l 582 779 l 582 0 l 358 0 l 353 78 l 339 78 q 286 9 322 29 q 204 -11 250 -11 q 104 19 140 -11 q 51 128 68 50 q 35 353 35 207 q 50 573 35 494 q 101 685 65 651 q 203 719 138 719 q 286 700 253 719 q 338 636 319 681 l 350 636 l 350 779 l 225 779 l 225 956 l 350 956 l 350 1032 l 582 1032 l 582 956 l 635 956 l 635 779 m 347 224 q 350 354 350 256 q 347 478 350 454 q 337 516 344 508 q 308 524 329 524 q 277 516 285 524 q 267 477 269 508 q 265 354 265 446 q 267 231 265 263 q 277 192 269 200 q 308 185 285 185 q 337 192 329 185 q 347 224 344 199 z "},"ḍ":{"ha":631,"x_min":35,"x_max":582,"o":"m 204 -11 q 104 19 140 -11 q 51 128 68 50 q 35 353 35 207 q 50 573 35 494 q 101 685 65 651 q 203 719 138 719 q 286 700 253 719 q 338 636 319 681 l 350 636 l 350 1032 l 582 1032 l 582 0 l 358 0 l 353 78 l 339 78 q 286 9 322 29 q 204 -11 250 -11 m 308 185 q 337 192 329 185 q 347 224 344 199 q 350 354 350 256 q 347 478 350 454 q 337 516 344 508 q 308 524 329 524 q 277 516 285 524 q 267 477 269 508 q 265 354 265 446 q 267 231 265 263 q 277 192 269 200 q 308 185 285 185 m 193 -297 l 193 -86 l 438 -86 l 438 -297 l 193 -297 z "},"ǳ":{"ha":1200,"x_min":35,"x_max":1161,"o":"m 204 -11 q 104 19 140 -11 q 51 128 68 50 q 35 353 35 207 q 50 573 35 494 q 101 685 65 651 q 203 719 138 719 q 286 700 253 719 q 338 636 319 681 l 350 636 l 350 1032 l 582 1032 l 582 0 l 358 0 l 353 78 l 339 78 q 286 9 322 29 q 204 -11 250 -11 m 308 185 q 337 192 329 185 q 347 224 344 199 q 350 354 350 256 q 347 478 350 454 q 337 516 344 508 q 308 524 329 524 q 277 516 285 524 q 267 477 269 508 q 265 354 265 446 q 267 231 265 263 q 277 192 269 200 q 308 185 285 185 m 669 0 l 669 169 l 886 526 l 679 526 l 679 708 l 1158 708 l 1158 539 l 942 182 l 1161 182 l 1161 0 l 669 0 z "},"ǆ":{"ha":1200,"x_min":35,"x_max":1161,"o":"m 204 -11 q 104 19 140 -11 q 51 128 68 50 q 35 353 35 207 q 50 573 35 494 q 101 685 65 651 q 203 719 138 719 q 286 700 253 719 q 338 636 319 681 l 350 636 l 350 1032 l 582 1032 l 582 0 l 358 0 l 353 78 l 339 78 q 286 9 322 29 q 204 -11 250 -11 m 308 185 q 337 192 329 185 q 347 224 344 199 q 350 354 350 256 q 347 478 350 454 q 337 516 344 508 q 308 524 329 524 q 277 516 285 524 q 267 477 269 508 q 265 354 265 446 q 267 231 265 263 q 277 192 269 200 q 308 185 285 185 m 669 0 l 669 169 l 886 526 l 679 526 l 679 708 l 1158 708 l 1158 539 l 942 182 l 1161 182 l 1161 0 l 669 0 m 796 850 l 694 1019 l 694 1032 l 847 1032 l 907 947 l 967 1032 l 1119 1032 l 1119 1019 l 1015 850 l 796 850 z "},"e":{"ha":599,"x_min":35,"x_max":563,"o":"m 563 296 l 264 296 q 269 208 264 231 q 297 178 275 185 q 376 171 318 171 q 546 176 432 171 l 546 11 q 445 -5 508 1 q 321 -11 382 -11 q 126 26 186 -11 q 50 135 65 64 q 35 353 35 207 q 50 570 35 497 q 123 681 65 643 q 306 719 181 719 q 485 685 431 719 q 551 581 539 650 q 563 353 563 513 l 563 296 m 306 544 q 278 538 286 544 q 267 508 269 532 q 264 424 264 483 l 347 424 q 345 509 347 486 q 335 538 343 532 q 306 544 328 544 z "},"é":{"ha":599,"x_min":35,"x_max":563,"o":"m 563 296 l 264 296 q 269 208 264 231 q 297 178 275 185 q 376 171 318 171 q 546 176 432 171 l 546 11 q 445 -5 508 1 q 321 -11 382 -11 q 126 26 186 -11 q 50 135 65 64 q 35 353 35 207 q 50 570 35 497 q 123 681 65 643 q 306 719 181 719 q 485 685 431 719 q 551 581 539 650 q 563 353 563 513 l 563 296 m 306 544 q 278 538 286 544 q 267 508 269 532 q 264 424 264 483 l 347 424 q 345 509 347 486 q 335 538 343 532 q 306 544 328 544 m 219 826 l 219 833 l 292 1032 l 513 1032 l 513 1025 l 397 826 l 219 826 z "},"ĕ":{"ha":599,"x_min":35,"x_max":563,"o":"m 563 296 l 264 296 q 269 208 264 231 q 297 178 275 185 q 376 171 318 171 q 546 176 432 171 l 546 11 q 445 -5 508 1 q 321 -11 382 -11 q 126 26 186 -11 q 50 135 65 64 q 35 353 35 207 q 50 570 35 497 q 123 681 65 643 q 306 719 181 719 q 485 685 431 719 q 551 581 539 650 q 563 353 563 513 l 563 296 m 306 544 q 278 538 286 544 q 267 508 269 532 q 264 424 264 483 l 347 424 q 345 509 347 486 q 335 538 343 532 q 306 544 328 544 m 492 1032 q 477 929 492 969 q 420 865 463 889 q 299 842 378 842 q 177 865 219 842 q 120 929 135 889 q 106 1032 106 969 l 238 1032 q 248 983 238 999 q 299 967 258 967 q 349 983 339 967 q 360 1032 360 999 l 492 1032 z "},"ě":{"ha":599,"x_min":35,"x_max":563,"o":"m 563 296 l 264 296 q 269 208 264 231 q 297 178 275 185 q 376 171 318 171 q 546 176 432 171 l 546 11 q 445 -5 508 1 q 321 -11 382 -11 q 126 26 186 -11 q 50 135 65 64 q 35 353 35 207 q 50 570 35 497 q 123 681 65 643 q 306 719 181 719 q 485 685 431 719 q 551 581 539 650 q 563 353 563 513 l 563 296 m 306 544 q 278 538 286 544 q 267 508 269 532 q 264 424 264 483 l 347 424 q 345 509 347 486 q 335 538 343 532 q 306 544 328 544 m 189 850 l 88 1019 l 88 1032 l 240 1032 l 300 947 l 360 1032 l 513 1032 l 513 1019 l 408 850 l 189 850 z "},"ê":{"ha":599,"x_min":35,"x_max":563,"o":"m 563 296 l 264 296 q 269 208 264 231 q 297 178 275 185 q 376 171 318 171 q 546 176 432 171 l 546 11 q 445 -5 508 1 q 321 -11 382 -11 q 126 26 186 -11 q 50 135 65 64 q 35 353 35 207 q 50 570 35 497 q 123 681 65 643 q 306 719 181 719 q 485 685 431 719 q 551 581 539 650 q 563 353 563 513 l 563 296 m 306 544 q 278 538 286 544 q 267 508 269 532 q 264 424 264 483 l 347 424 q 345 509 347 486 q 335 538 343 532 q 306 544 328 544 m 100 850 l 100 861 l 201 1032 l 421 1032 l 525 861 l 525 850 l 372 850 l 311 935 l 253 850 l 100 850 z "},"ế":{"ha":599,"x_min":35,"x_max":614,"o":"m 563 296 l 264 296 q 269 208 264 231 q 297 178 275 185 q 376 171 318 171 q 546 176 432 171 l 546 11 q 445 -5 508 1 q 321 -11 382 -11 q 126 26 186 -11 q 50 135 65 64 q 35 353 35 207 q 50 570 35 497 q 123 681 65 643 q 306 719 181 719 q 485 685 431 719 q 551 581 539 650 q 563 353 563 513 l 563 296 m 306 544 q 278 538 286 544 q 267 508 269 532 q 264 424 264 483 l 347 424 q 345 509 347 486 q 335 538 343 532 q 306 544 328 544 m 88 850 l 88 861 l 189 1032 l 408 1032 l 513 861 l 513 850 l 360 850 l 299 935 l 240 850 l 88 850 m 321 1067 l 321 1074 l 393 1272 l 614 1272 l 614 1265 l 499 1067 l 321 1067 z "},"ệ":{"ha":599,"x_min":35,"x_max":563,"o":"m 563 296 l 264 296 q 269 208 264 231 q 297 178 275 185 q 376 171 318 171 q 546 176 432 171 l 546 11 q 445 -5 508 1 q 321 -11 382 -11 q 126 26 186 -11 q 50 135 65 64 q 35 353 35 207 q 50 570 35 497 q 123 681 65 643 q 306 719 181 719 q 485 685 431 719 q 551 581 539 650 q 563 353 563 513 l 563 296 m 306 544 q 278 538 286 544 q 267 508 269 532 q 264 424 264 483 l 347 424 q 345 509 347 486 q 335 538 343 532 q 306 544 328 544 m 178 -297 l 178 -86 l 422 -86 l 422 -297 l 178 -297 m 88 850 l 88 861 l 189 1032 l 408 1032 l 513 861 l 513 850 l 360 850 l 299 935 l 240 850 l 88 850 z "},"ề":{"ha":599,"x_min":35,"x_max":563,"o":"m 563 296 l 264 296 q 269 208 264 231 q 297 178 275 185 q 376 171 318 171 q 546 176 432 171 l 546 11 q 445 -5 508 1 q 321 -11 382 -11 q 126 26 186 -11 q 50 135 65 64 q 35 353 35 207 q 50 570 35 497 q 123 681 65 643 q 306 719 181 719 q 485 685 431 719 q 551 581 539 650 q 563 353 563 513 l 563 296 m 306 544 q 278 538 286 544 q 267 508 269 532 q 264 424 264 483 l 347 424 q 345 509 347 486 q 335 538 343 532 q 306 544 328 544 m 71 850 l 71 861 l 172 1032 l 392 1032 l 496 861 l 496 850 l 343 850 l 282 935 l 224 850 l 71 850 m 350 1067 l 236 1265 l 236 1272 l 456 1272 l 529 1074 l 529 1067 l 350 1067 z "},"ể":{"ha":599,"x_min":35,"x_max":663,"o":"m 563 296 l 264 296 q 269 208 264 231 q 297 178 275 185 q 376 171 318 171 q 546 176 432 171 l 546 11 q 445 -5 508 1 q 321 -11 382 -11 q 126 26 186 -11 q 50 135 65 64 q 35 353 35 207 q 50 570 35 497 q 123 681 65 643 q 306 719 181 719 q 485 685 431 719 q 551 581 539 650 q 563 353 563 513 l 563 296 m 306 544 q 278 538 286 544 q 267 508 269 532 q 264 424 264 483 l 347 424 q 345 509 347 486 q 335 538 343 532 q 306 544 328 544 m 88 850 l 88 861 l 189 1032 l 408 1032 l 513 861 l 513 850 l 360 850 l 299 935 l 240 850 l 88 850 m 376 1089 q 388 1143 376 1126 q 431 1169 399 1160 l 446 1174 q 494 1192 483 1186 q 504 1214 504 1199 q 496 1231 504 1228 q 461 1235 488 1235 q 304 1232 399 1235 l 304 1347 q 479 1367 392 1367 q 576 1359 539 1367 q 638 1324 614 1351 q 663 1242 663 1297 q 646 1163 663 1186 q 581 1119 629 1139 l 567 1113 q 528 1096 539 1101 q 514 1083 517 1090 q 511 1061 511 1076 l 376 1061 l 376 1089 z "},"ễ":{"ha":599,"x_min":35,"x_max":563,"o":"m 563 296 l 264 296 q 269 208 264 231 q 297 178 275 185 q 376 171 318 171 q 546 176 432 171 l 546 11 q 445 -5 508 1 q 321 -11 382 -11 q 126 26 186 -11 q 50 135 65 64 q 35 353 35 207 q 50 570 35 497 q 123 681 65 643 q 306 719 181 719 q 485 685 431 719 q 551 581 539 650 q 563 353 563 513 l 563 296 m 306 544 q 278 538 286 544 q 267 508 269 532 q 264 424 264 483 l 347 424 q 345 509 347 486 q 335 538 343 532 q 306 544 328 544 m 85 850 l 85 861 l 186 1032 l 406 1032 l 510 861 l 510 850 l 357 850 l 296 935 l 238 850 l 85 850 m 526 1272 q 521 1158 526 1196 q 491 1097 515 1119 q 411 1075 467 1075 q 286 1094 358 1075 q 253 1101 276 1096 q 218 1106 231 1106 q 199 1097 203 1106 q 196 1058 196 1088 l 71 1058 q 76 1173 71 1135 q 107 1233 82 1211 q 188 1256 132 1256 q 249 1249 215 1256 q 313 1236 283 1243 q 345 1230 322 1235 q 381 1225 368 1225 q 399 1234 396 1225 q 403 1272 403 1243 l 526 1272 z "},"ȅ":{"ha":599,"x_min":35,"x_max":563,"o":"m 563 296 l 264 296 q 269 208 264 231 q 297 178 275 185 q 376 171 318 171 q 546 176 432 171 l 546 11 q 445 -5 508 1 q 321 -11 382 -11 q 126 26 186 -11 q 50 135 65 64 q 35 353 35 207 q 50 570 35 497 q 123 681 65 643 q 306 719 181 719 q 485 685 431 719 q 551 581 539 650 q 563 353 563 513 l 563 296 m 306 544 q 278 538 286 544 q 267 508 269 532 q 264 424 264 483 l 347 424 q 345 509 347 486 q 335 538 343 532 q 306 544 328 544 m 269 850 l 124 850 l 35 1006 l 35 1011 l 213 1011 l 269 856 l 269 850 m 479 850 l 333 850 l 246 1006 l 246 1011 l 424 1011 l 479 856 l 479 850 z "},"ë":{"ha":599,"x_min":35,"x_max":563,"o":"m 563 296 l 264 296 q 269 208 264 231 q 297 178 275 185 q 376 171 318 171 q 546 176 432 171 l 546 11 q 445 -5 508 1 q 321 -11 382 -11 q 126 26 186 -11 q 50 135 65 64 q 35 353 35 207 q 50 570 35 497 q 123 681 65 643 q 306 719 181 719 q 485 685 431 719 q 551 581 539 650 q 563 353 563 513 l 563 296 m 306 544 q 278 538 286 544 q 267 508 269 532 q 264 424 264 483 l 347 424 q 345 509 347 486 q 335 538 343 532 q 306 544 328 544 m 89 854 l 89 1014 l 278 1014 l 278 854 l 89 854 m 340 854 l 340 1014 l 529 1014 l 529 854 l 340 854 z "},"ė":{"ha":599,"x_min":35,"x_max":563,"o":"m 563 296 l 264 296 q 269 208 264 231 q 297 178 275 185 q 376 171 318 171 q 546 176 432 171 l 546 11 q 445 -5 508 1 q 321 -11 382 -11 q 126 26 186 -11 q 50 135 65 64 q 35 353 35 207 q 50 570 35 497 q 123 681 65 643 q 306 719 181 719 q 485 685 431 719 q 551 581 539 650 q 563 353 563 513 l 563 296 m 306 544 q 278 538 286 544 q 267 508 269 532 q 264 424 264 483 l 347 424 q 345 509 347 486 q 335 538 343 532 q 306 544 328 544 m 206 854 l 206 1014 l 394 1014 l 394 854 l 206 854 z "},"ẹ":{"ha":599,"x_min":35,"x_max":563,"o":"m 563 296 l 264 296 q 269 208 264 231 q 297 178 275 185 q 376 171 318 171 q 546 176 432 171 l 546 11 q 445 -5 508 1 q 321 -11 382 -11 q 126 26 186 -11 q 50 135 65 64 q 35 353 35 207 q 50 570 35 497 q 123 681 65 643 q 306 719 181 719 q 485 685 431 719 q 551 581 539 650 q 563 353 563 513 l 563 296 m 306 544 q 278 538 286 544 q 267 508 269 532 q 264 424 264 483 l 347 424 q 345 509 347 486 q 335 538 343 532 q 306 544 328 544 m 178 -297 l 178 -86 l 422 -86 l 422 -297 l 178 -297 z "},"è":{"ha":599,"x_min":35,"x_max":563,"o":"m 563 296 l 264 296 q 269 208 264 231 q 297 178 275 185 q 376 171 318 171 q 546 176 432 171 l 546 11 q 445 -5 508 1 q 321 -11 382 -11 q 126 26 186 -11 q 50 135 65 64 q 35 353 35 207 q 50 570 35 497 q 123 681 65 643 q 306 719 181 719 q 485 685 431 719 q 551 581 539 650 q 563 353 563 513 l 563 296 m 306 544 q 278 538 286 544 q 267 508 269 532 q 264 424 264 483 l 347 424 q 345 509 347 486 q 335 538 343 532 q 306 544 328 544 m 228 826 l 114 1025 l 114 1032 l 333 1032 l 407 833 l 407 826 l 228 826 z "},"ẻ":{"ha":599,"x_min":35,"x_max":563,"o":"m 563 296 l 264 296 q 269 208 264 231 q 297 178 275 185 q 376 171 318 171 q 546 176 432 171 l 546 11 q 445 -5 508 1 q 321 -11 382 -11 q 126 26 186 -11 q 50 135 65 64 q 35 353 35 207 q 50 570 35 497 q 123 681 65 643 q 306 719 181 719 q 485 685 431 719 q 551 581 539 650 q 563 353 563 513 l 563 296 m 306 544 q 278 538 286 544 q 267 508 269 532 q 264 424 264 483 l 347 424 q 345 509 347 486 q 335 538 343 532 q 306 544 328 544 m 193 881 q 204 935 193 918 q 247 961 215 951 l 263 965 q 310 984 300 978 q 321 1006 321 990 q 313 1023 321 1019 q 278 1026 304 1026 q 121 1024 215 1026 l 121 1139 q 296 1158 208 1158 q 393 1151 356 1158 q 455 1116 431 1143 q 479 1033 479 1089 q 463 954 479 978 q 397 911 446 931 l 383 904 q 344 888 356 893 q 331 875 333 882 q 328 853 328 868 l 193 853 l 193 881 z "},"ȇ":{"ha":599,"x_min":35,"x_max":563,"o":"m 563 296 l 264 296 q 269 208 264 231 q 297 178 275 185 q 376 171 318 171 q 546 176 432 171 l 546 11 q 445 -5 508 1 q 321 -11 382 -11 q 126 26 186 -11 q 50 135 65 64 q 35 353 35 207 q 50 570 35 497 q 123 681 65 643 q 306 719 181 719 q 485 685 431 719 q 551 581 539 650 q 563 353 563 513 l 563 296 m 306 544 q 278 538 286 544 q 267 508 269 532 q 264 424 264 483 l 347 424 q 345 509 347 486 q 335 538 343 532 q 306 544 328 544 m 106 850 q 120 953 106 913 q 177 1017 135 993 q 299 1040 219 1040 q 420 1017 378 1040 q 477 953 463 993 q 492 850 492 913 l 360 850 q 349 899 360 883 q 299 915 339 915 q 248 899 258 915 q 238 850 238 883 l 106 850 z "},"ē":{"ha":599,"x_min":35,"x_max":563,"o":"m 563 296 l 264 296 q 269 208 264 231 q 297 178 275 185 q 376 171 318 171 q 546 176 432 171 l 546 11 q 445 -5 508 1 q 321 -11 382 -11 q 126 26 186 -11 q 50 135 65 64 q 35 353 35 207 q 50 570 35 497 q 123 681 65 643 q 306 719 181 719 q 485 685 431 719 q 551 581 539 650 q 563 353 563 513 l 563 296 m 306 544 q 278 538 286 544 q 267 508 269 532 q 264 424 264 483 l 347 424 q 345 509 347 486 q 335 538 343 532 q 306 544 328 544 m 149 838 l 149 1032 l 450 1032 l 450 838 l 149 838 z "},"ę":{"ha":599,"x_min":35,"x_max":563,"o":"m 563 296 l 264 296 q 269 208 264 231 q 297 178 275 185 q 376 171 318 171 q 546 176 432 171 l 546 11 q 482 -42 511 -10 q 453 -110 453 -74 q 506 -156 453 -156 l 522 -154 l 522 -265 q 435 -272 485 -272 q 313 -237 350 -272 q 276 -151 276 -203 q 350 -11 276 -81 l 321 -11 q 126 26 186 -11 q 50 135 65 64 q 35 353 35 207 q 50 570 35 497 q 123 681 65 643 q 306 719 181 719 q 485 685 431 719 q 551 581 539 650 q 563 353 563 513 l 563 296 m 306 544 q 278 538 286 544 q 267 508 269 532 q 264 424 264 483 l 347 424 q 345 509 347 486 q 335 538 343 532 q 306 544 328 544 z "},"ẽ":{"ha":599,"x_min":35,"x_max":563,"o":"m 563 296 l 264 296 q 269 208 264 231 q 297 178 275 185 q 376 171 318 171 q 546 176 432 171 l 546 11 q 445 -5 508 1 q 321 -11 382 -11 q 126 26 186 -11 q 50 135 65 64 q 35 353 35 207 q 50 570 35 497 q 123 681 65 643 q 306 719 181 719 q 485 685 431 719 q 551 581 539 650 q 563 353 563 513 l 563 296 m 306 544 q 278 538 286 544 q 267 508 269 532 q 264 424 264 483 l 347 424 q 345 509 347 486 q 335 538 343 532 q 306 544 328 544 m 526 1032 q 521 917 526 956 q 491 857 515 879 q 411 835 467 835 q 286 854 358 835 q 253 860 276 856 q 218 865 231 865 q 199 856 203 865 q 196 818 196 847 l 71 818 q 76 933 71 894 q 107 993 82 971 q 188 1015 132 1015 q 249 1009 215 1015 q 313 996 283 1003 q 345 990 322 994 q 381 985 368 985 q 399 994 396 985 q 403 1032 403 1003 l 526 1032 z "},"ə":{"ha":599,"x_min":36,"x_max":564,"o":"m 278 719 q 473 682 413 719 q 549 573 533 644 q 564 356 564 501 q 549 138 564 211 q 476 27 533 65 q 293 -11 418 -11 q 114 24 168 -11 q 48 127 60 58 q 36 356 36 196 l 36 413 l 335 413 q 329 501 335 478 q 302 531 324 524 q 222 538 281 538 q 53 532 167 538 l 53 697 q 153 713 90 707 q 278 719 217 719 m 293 164 q 321 170 313 164 q 332 201 329 176 q 335 285 335 225 l 251 285 q 253 199 251 222 q 263 170 256 176 q 293 164 271 164 z "},"f":{"ha":469,"x_min":17,"x_max":444,"o":"m 99 526 l 17 526 l 17 708 l 99 708 l 99 721 q 122 935 99 874 q 213 1015 146 997 q 444 1032 279 1032 l 444 871 q 367 865 388 871 q 339 840 346 860 q 332 767 332 819 l 332 708 l 444 708 l 444 526 l 332 526 l 332 0 l 99 0 l 99 526 z "},"g":{"ha":631,"x_min":35,"x_max":582,"o":"m 294 -286 q 181 -281 239 -286 q 83 -269 122 -276 l 83 -104 l 235 -104 q 317 -97 296 -104 q 344 -67 339 -90 q 350 22 350 -44 l 350 92 l 338 92 q 286 29 319 49 q 203 10 253 10 q 101 42 138 10 q 50 151 65 75 q 35 367 35 228 q 51 584 35 508 q 104 690 68 660 q 204 719 140 719 q 286 699 250 719 q 339 631 322 679 l 353 631 l 358 708 l 582 708 l 582 78 q 567 -135 582 -64 q 490 -247 551 -207 q 294 -286 428 -286 m 308 206 q 335 211 328 206 q 346 239 343 217 q 350 365 350 261 q 347 481 350 458 q 337 516 344 508 q 308 524 329 524 q 277 516 285 524 q 267 479 269 508 q 265 365 265 450 q 267 250 265 279 q 277 213 269 221 q 308 206 285 206 z "},"ǵ":{"ha":631,"x_min":35,"x_max":582,"o":"m 294 -286 q 181 -281 239 -286 q 83 -269 122 -276 l 83 -104 l 235 -104 q 317 -97 296 -104 q 344 -67 339 -90 q 350 22 350 -44 l 350 92 l 338 92 q 286 29 319 49 q 203 10 253 10 q 101 42 138 10 q 50 151 65 75 q 35 367 35 228 q 51 584 35 508 q 104 690 68 660 q 204 719 140 719 q 286 699 250 719 q 339 631 322 679 l 353 631 l 358 708 l 582 708 l 582 78 q 567 -135 582 -64 q 490 -247 551 -207 q 294 -286 428 -286 m 308 206 q 335 211 328 206 q 346 239 343 217 q 350 365 350 261 q 347 481 350 458 q 337 516 344 508 q 308 524 329 524 q 277 516 285 524 q 267 479 269 508 q 265 365 265 450 q 267 250 265 279 q 277 213 269 221 q 308 206 285 206 m 225 826 l 225 833 l 297 1032 l 518 1032 l 518 1025 l 403 826 l 225 826 z "},"ğ":{"ha":631,"x_min":35,"x_max":582,"o":"m 294 -286 q 181 -281 239 -286 q 83 -269 122 -276 l 83 -104 l 235 -104 q 317 -97 296 -104 q 344 -67 339 -90 q 350 22 350 -44 l 350 92 l 338 92 q 286 29 319 49 q 203 10 253 10 q 101 42 138 10 q 50 151 65 75 q 35 367 35 228 q 51 584 35 508 q 104 690 68 660 q 204 719 140 719 q 286 699 250 719 q 339 631 322 679 l 353 631 l 358 708 l 582 708 l 582 78 q 567 -135 582 -64 q 490 -247 551 -207 q 294 -286 428 -286 m 308 206 q 335 211 328 206 q 346 239 343 217 q 350 365 350 261 q 347 481 350 458 q 337 516 344 508 q 308 524 329 524 q 277 516 285 524 q 267 479 269 508 q 265 365 265 450 q 267 250 265 279 q 277 213 269 221 q 308 206 285 206 m 507 1032 q 492 929 507 969 q 435 865 478 889 q 314 842 393 842 q 192 865 235 842 q 135 929 150 889 q 121 1032 121 969 l 253 1032 q 263 983 253 999 q 314 967 274 967 q 365 983 354 967 q 375 1032 375 999 l 507 1032 z "},"ǧ":{"ha":631,"x_min":35,"x_max":582,"o":"m 294 -286 q 181 -281 239 -286 q 83 -269 122 -276 l 83 -104 l 235 -104 q 317 -97 296 -104 q 344 -67 339 -90 q 350 22 350 -44 l 350 92 l 338 92 q 286 29 319 49 q 203 10 253 10 q 101 42 138 10 q 50 151 65 75 q 35 367 35 228 q 51 584 35 508 q 104 690 68 660 q 204 719 140 719 q 286 699 250 719 q 339 631 322 679 l 353 631 l 358 708 l 582 708 l 582 78 q 567 -135 582 -64 q 490 -247 551 -207 q 294 -286 428 -286 m 308 206 q 335 211 328 206 q 346 239 343 217 q 350 365 350 261 q 347 481 350 458 q 337 516 344 508 q 308 524 329 524 q 277 516 285 524 q 267 479 269 508 q 265 365 265 450 q 267 250 265 279 q 277 213 269 221 q 308 206 285 206 m 204 850 l 103 1019 l 103 1032 l 256 1032 l 315 947 l 375 1032 l 528 1032 l 528 1019 l 424 850 l 204 850 z "},"ĝ":{"ha":631,"x_min":35,"x_max":582,"o":"m 294 -286 q 181 -281 239 -286 q 83 -269 122 -276 l 83 -104 l 235 -104 q 317 -97 296 -104 q 344 -67 339 -90 q 350 22 350 -44 l 350 92 l 338 92 q 286 29 319 49 q 203 10 253 10 q 101 42 138 10 q 50 151 65 75 q 35 367 35 228 q 51 584 35 508 q 104 690 68 660 q 204 719 140 719 q 286 699 250 719 q 339 631 322 679 l 353 631 l 358 708 l 582 708 l 582 78 q 567 -135 582 -64 q 490 -247 551 -207 q 294 -286 428 -286 m 308 206 q 335 211 328 206 q 346 239 343 217 q 350 365 350 261 q 347 481 350 458 q 337 516 344 508 q 308 524 329 524 q 277 516 285 524 q 267 479 269 508 q 265 365 265 450 q 267 250 265 279 q 277 213 269 221 q 308 206 285 206 m 103 850 l 103 861 l 204 1032 l 424 1032 l 528 861 l 528 850 l 375 850 l 314 935 l 256 850 l 103 850 z "},"ģ":{"ha":631,"x_min":35,"x_max":582,"o":"m 294 -286 q 181 -281 239 -286 q 83 -269 122 -276 l 83 -104 l 235 -104 q 317 -97 296 -104 q 344 -67 339 -90 q 350 22 350 -44 l 350 92 l 338 92 q 286 29 319 49 q 203 10 253 10 q 101 42 138 10 q 50 151 65 75 q 35 367 35 228 q 51 584 35 508 q 104 690 68 660 q 204 719 140 719 q 286 699 250 719 q 339 631 322 679 l 353 631 l 358 708 l 582 708 l 582 78 q 567 -135 582 -64 q 490 -247 551 -207 q 294 -286 428 -286 m 308 206 q 335 211 328 206 q 346 239 343 217 q 350 365 350 261 q 347 481 350 458 q 337 516 344 508 q 308 524 329 524 q 277 516 285 524 q 267 479 269 508 q 265 365 265 450 q 267 250 265 279 q 277 213 269 221 q 308 206 285 206 m 426 1053 q 362 1041 376 1053 q 347 993 347 1029 l 347 979 l 429 979 l 429 828 l 200 828 l 200 917 q 215 1059 200 1013 q 278 1126 231 1106 q 426 1146 325 1146 l 426 1053 z "},"ġ":{"ha":631,"x_min":35,"x_max":582,"o":"m 294 -286 q 181 -281 239 -286 q 83 -269 122 -276 l 83 -104 l 235 -104 q 317 -97 296 -104 q 344 -67 339 -90 q 350 22 350 -44 l 350 92 l 338 92 q 286 29 319 49 q 203 10 253 10 q 101 42 138 10 q 50 151 65 75 q 35 367 35 228 q 51 584 35 508 q 104 690 68 660 q 204 719 140 719 q 286 699 250 719 q 339 631 322 679 l 353 631 l 358 708 l 582 708 l 582 78 q 567 -135 582 -64 q 490 -247 551 -207 q 294 -286 428 -286 m 308 206 q 335 211 328 206 q 346 239 343 217 q 350 365 350 261 q 347 481 350 458 q 337 516 344 508 q 308 524 329 524 q 277 516 285 524 q 267 479 269 508 q 265 365 265 450 q 267 250 265 279 q 277 213 269 221 q 308 206 285 206 m 221 854 l 221 1014 l 410 1014 l 410 854 l 221 854 z "},"h":{"ha":635,"x_min":49,"x_max":589,"o":"m 357 378 q 355 482 357 456 q 346 515 353 508 q 319 522 339 522 q 292 514 299 522 q 283 476 285 506 q 281 358 281 447 l 281 0 l 49 0 l 49 1032 l 281 1032 l 281 629 l 293 629 q 438 719 331 719 q 534 693 501 719 q 578 615 567 667 q 589 469 589 563 l 589 0 l 357 0 l 357 378 z "},"ħ":{"ha":635,"x_min":-6,"x_max":589,"o":"m 438 719 q 534 693 501 719 q 578 615 567 667 q 589 469 589 563 l 589 0 l 357 0 l 357 378 q 355 482 357 456 q 346 515 353 508 q 319 522 339 522 q 292 514 299 522 q 283 476 285 506 q 281 358 281 447 l 281 0 l 49 0 l 49 779 l -6 779 l -6 956 l 49 956 l 49 1032 l 281 1032 l 281 956 l 406 956 l 406 779 l 281 779 l 281 629 l 293 629 q 438 719 331 719 z "},"ĥ":{"ha":635,"x_min":-49,"x_max":589,"o":"m 357 378 q 355 482 357 456 q 346 515 353 508 q 319 522 339 522 q 292 514 299 522 q 283 476 285 506 q 281 358 281 447 l 281 0 l 49 0 l 49 1032 l 281 1032 l 281 629 l 293 629 q 438 719 331 719 q 534 693 501 719 q 578 615 567 667 q 589 469 589 563 l 589 0 l 357 0 l 357 378 m -49 1097 l -49 1108 l 53 1279 l 272 1279 l 376 1108 l 376 1097 l 224 1097 l 163 1182 l 104 1097 l -49 1097 z "},"ḥ":{"ha":635,"x_min":49,"x_max":589,"o":"m 357 378 q 355 482 357 456 q 346 515 353 508 q 319 522 339 522 q 292 514 299 522 q 283 476 285 506 q 281 358 281 447 l 281 0 l 49 0 l 49 1032 l 281 1032 l 281 629 l 293 629 q 438 719 331 719 q 534 693 501 719 q 578 615 567 667 q 589 469 589 563 l 589 0 l 357 0 l 357 378 m 196 -297 l 196 -86 l 440 -86 l 440 -297 l 196 -297 z "},"i":{"ha":331,"x_min":49,"x_max":282,"o":"m 49 839 l 49 1032 l 282 1032 l 282 839 l 49 839 m 49 0 l 49 708 l 282 708 l 282 0 l 49 0 z "},"ı":{"ha":331,"x_min":49,"x_max":282,"o":"m 49 0 l 49 708 l 282 708 l 282 0 l 49 0 z "},"í":{"ha":331,"x_min":49,"x_max":342,"o":"m 49 0 l 49 708 l 282 708 l 282 0 l 49 0 m 49 826 l 49 833 l 121 1032 l 342 1032 l 342 1025 l 226 826 l 49 826 z "},"ĭ":{"ha":331,"x_min":-29,"x_max":357,"o":"m 49 0 l 49 708 l 282 708 l 282 0 l 49 0 m 357 1032 q 342 929 357 969 q 285 865 328 889 q 164 842 243 842 q 42 865 85 842 q -15 929 0 889 q -29 1032 -29 969 l 103 1032 q 113 983 103 999 q 164 967 124 967 q 215 983 204 967 q 225 1032 225 999 l 357 1032 z "},"ǐ":{"ha":331,"x_min":-47,"x_max":378,"o":"m 49 0 l 49 708 l 282 708 l 282 0 l 49 0 m 54 850 l -47 1019 l -47 1032 l 106 1032 l 165 947 l 225 1032 l 378 1032 l 378 1019 l 274 850 l 54 850 z "},"î":{"ha":331,"x_min":-47,"x_max":378,"o":"m 49 0 l 49 708 l 282 708 l 282 0 l 49 0 m -47 850 l -47 861 l 54 1032 l 274 1032 l 378 861 l 378 850 l 225 850 l 164 935 l 106 850 l -47 850 z "},"ȉ":{"ha":331,"x_min":-100,"x_max":344,"o":"m 49 0 l 49 708 l 282 708 l 282 0 l 49 0 m 135 850 l -11 850 l -100 1006 l -100 1011 l 78 1011 l 135 856 l 135 850 m 344 850 l 199 850 l 111 1006 l 111 1011 l 289 1011 l 344 856 l 344 850 z "},"ï":{"ha":331,"x_min":-56,"x_max":385,"o":"m 49 0 l 49 708 l 282 708 l 282 0 l 49 0 m -56 854 l -56 1014 l 133 1014 l 133 854 l -56 854 m 196 854 l 196 1014 l 385 1014 l 385 854 l 196 854 z "},"ị":{"ha":331,"x_min":49,"x_max":315,"o":"m 49 839 l 49 1032 l 282 1032 l 282 839 l 49 839 m 49 0 l 49 708 l 282 708 l 282 0 l 49 0 m 71 -297 l 71 -86 l 315 -86 l 315 -297 l 71 -297 z "},"ì":{"ha":331,"x_min":-11,"x_max":282,"o":"m 49 0 l 49 708 l 282 708 l 282 0 l 49 0 m 103 826 l -11 1025 l -11 1032 l 208 1032 l 282 833 l 282 826 l 103 826 z "},"ỉ":{"ha":331,"x_min":-14,"x_max":344,"o":"m 49 0 l 49 708 l 282 708 l 282 0 l 49 0 m 58 881 q 69 935 58 918 q 113 961 81 951 l 128 965 q 176 984 165 978 q 186 1006 186 990 q 178 1023 186 1019 q 143 1026 169 1026 q -14 1024 81 1026 l -14 1139 q 161 1158 74 1158 q 258 1151 221 1158 q 320 1116 296 1143 q 344 1033 344 1089 q 328 954 344 978 q 263 911 311 931 l 249 904 q 210 888 221 893 q 196 875 199 882 q 193 853 193 868 l 58 853 l 58 881 z "},"ȋ":{"ha":331,"x_min":-29,"x_max":357,"o":"m 49 0 l 49 708 l 282 708 l 282 0 l 49 0 m -29 850 q -15 953 -29 913 q 42 1017 0 993 q 164 1040 85 1040 q 285 1017 243 1040 q 342 953 328 993 q 357 850 357 913 l 225 850 q 215 899 225 883 q 164 915 204 915 q 113 899 124 915 q 103 850 103 883 l -29 850 z "},"ĳ":{"ha":661,"x_min":49,"x_max":613,"o":"m 49 839 l 49 1032 l 282 1032 l 282 839 l 49 839 m 49 0 l 49 708 l 282 708 l 282 0 l 49 0 m 379 839 l 379 1032 l 613 1032 l 613 839 l 379 839 m 303 -111 q 355 -104 339 -111 q 375 -83 371 -97 q 379 -40 379 -69 l 379 708 l 613 708 l 613 49 q 588 -169 613 -103 q 503 -255 564 -235 q 303 -275 442 -275 l 303 -111 z "},"ī":{"ha":331,"x_min":14,"x_max":315,"o":"m 49 0 l 49 708 l 282 708 l 282 0 l 49 0 m 14 838 l 14 1032 l 315 1032 l 315 838 l 14 838 z "},"į":{"ha":331,"x_min":35,"x_max":282,"o":"m 260 1014 l 260 854 l 71 854 l 71 1014 l 260 1014 m 282 0 q 233 -47 254 -17 q 213 -110 213 -76 q 265 -156 213 -156 l 282 -154 l 282 -265 q 194 -272 244 -272 q 72 -238 110 -272 q 35 -151 35 -204 q 113 0 35 -71 l 49 0 l 49 708 l 282 708 l 282 0 z "},"ĩ":{"ha":331,"x_min":-64,"x_max":392,"o":"m 49 0 l 49 708 l 282 708 l 282 0 l 49 0 m 392 1032 q 386 917 392 956 q 356 857 381 879 q 276 835 332 835 q 151 854 224 835 q 119 860 142 856 q 83 865 96 865 q 65 856 68 865 q 61 818 61 847 l -64 818 q -58 933 -64 894 q -28 993 -53 971 q 53 1015 -3 1015 q 115 1009 81 1015 q 178 996 149 1003 q 210 990 188 994 q 246 985 233 985 q 265 994 261 985 q 268 1032 268 1003 l 392 1032 z "},"j":{"ha":331,"x_min":-28,"x_max":282,"o":"m 49 839 l 49 1032 l 282 1032 l 282 839 l 49 839 m -28 -111 q 24 -104 8 -111 q 44 -83 40 -97 q 49 -40 49 -69 l 49 708 l 282 708 l 282 49 q 258 -169 282 -103 q 172 -255 233 -235 q -28 -275 111 -275 l -28 -111 z "},"ȷ":{"ha":331,"x_min":-28,"x_max":282,"o":"m -28 -111 q 24 -104 8 -111 q 44 -83 40 -97 q 49 -40 49 -69 l 49 708 l 282 708 l 282 49 q 258 -169 282 -103 q 172 -255 233 -235 q -28 -275 111 -275 l -28 -111 z "},"ĵ":{"ha":331,"x_min":-47,"x_max":378,"o":"m -28 -111 q 24 -104 8 -111 q 44 -83 40 -97 q 49 -40 49 -69 l 49 708 l 282 708 l 282 49 q 258 -169 282 -103 q 172 -255 233 -235 q -28 -275 111 -275 l -28 -111 m -47 850 l -47 861 l 54 1032 l 274 1032 l 378 861 l 378 850 l 225 850 l 164 935 l 106 850 l -47 850 z "},"k":{"ha":632,"x_min":49,"x_max":629,"o":"m 386 0 l 297 258 l 281 258 l 281 0 l 49 0 l 49 1032 l 281 1032 l 281 442 l 297 442 l 393 708 l 628 708 l 490 374 l 629 0 l 386 0 z "},"ķ":{"ha":632,"x_min":49,"x_max":629,"o":"m 386 0 l 297 258 l 281 258 l 281 0 l 49 0 l 49 1032 l 281 1032 l 281 442 l 297 442 l 393 708 l 628 708 l 490 374 l 629 0 l 386 0 m 204 -308 q 269 -297 254 -308 q 283 -250 283 -285 l 283 -235 l 201 -235 l 201 -83 l 431 -83 l 431 -174 q 415 -315 431 -269 q 353 -381 400 -361 q 204 -401 306 -401 l 204 -308 z "},"ĸ":{"ha":632,"x_min":49,"x_max":629,"o":"m 386 0 l 297 258 l 281 258 l 281 0 l 49 0 l 49 708 l 281 708 l 281 442 l 297 442 l 393 708 l 628 708 l 490 374 l 629 0 l 386 0 z "},"l":{"ha":331,"x_min":49,"x_max":282,"o":"m 49 0 l 49 1032 l 282 1032 l 282 0 l 49 0 z "},"ĺ":{"ha":331,"x_min":49,"x_max":368,"o":"m 49 0 l 49 1032 l 282 1032 l 282 0 l 49 0 m 75 1074 l 75 1081 l 147 1279 l 368 1279 l 368 1272 l 253 1074 l 75 1074 z "},"ľ":{"ha":500,"x_min":49,"x_max":553,"o":"m 49 0 l 49 1032 l 282 1032 l 282 0 l 49 0 m 325 583 l 343 894 l 343 956 l 553 956 l 553 894 l 489 583 l 325 583 z "},"ļ":{"ha":331,"x_min":49,"x_max":282,"o":"m 49 0 l 49 1032 l 282 1032 l 282 0 l 49 0 m 54 -308 q 119 -297 104 -308 q 133 -250 133 -285 l 133 -235 l 51 -235 l 51 -83 l 281 -83 l 281 -174 q 265 -315 281 -269 q 203 -381 250 -361 q 54 -401 156 -401 l 54 -308 z "},"ŀ":{"ha":504,"x_min":49,"x_max":517,"o":"m 49 0 l 49 1032 l 282 1032 l 282 0 l 49 0 m 321 310 l 321 521 l 517 521 l 517 310 l 321 310 z "},"ǉ":{"ha":661,"x_min":49,"x_max":613,"o":"m 49 0 l 49 1032 l 282 1032 l 282 0 l 49 0 m 379 839 l 379 1032 l 613 1032 l 613 839 l 379 839 m 303 -111 q 355 -104 339 -111 q 375 -83 371 -97 q 379 -40 379 -69 l 379 708 l 613 708 l 613 49 q 588 -169 613 -103 q 503 -255 564 -235 q 303 -275 442 -275 l 303 -111 z "},"ł":{"ha":351,"x_min":4,"x_max":347,"o":"m 57 0 l 57 379 l 4 360 l 4 544 l 57 564 l 57 1032 l 292 1032 l 292 644 l 347 664 l 347 481 l 292 460 l 292 0 l 57 0 z "},"m":{"ha":938,"x_min":49,"x_max":890,"o":"m 658 378 q 656 482 658 456 q 648 515 654 508 q 622 522 642 522 q 594 514 601 522 q 586 476 588 506 q 585 358 585 447 l 585 0 l 354 0 l 354 378 q 352 481 354 454 q 343 515 350 508 q 317 522 336 522 q 290 514 297 522 q 282 476 283 506 q 281 358 281 447 l 281 0 l 49 0 l 49 708 l 272 708 l 278 629 l 290 629 q 439 719 333 719 q 531 697 497 719 q 576 629 564 675 l 589 629 q 651 700 613 681 q 739 719 690 719 q 834 694 801 719 q 878 617 867 668 q 890 478 890 565 l 890 0 l 658 0 l 658 378 z "},"n":{"ha":635,"x_min":49,"x_max":589,"o":"m 357 378 q 355 482 357 456 q 346 515 353 508 q 319 522 339 522 q 292 514 299 522 q 283 476 285 506 q 281 358 281 447 l 281 0 l 49 0 l 49 708 l 272 708 l 278 629 l 290 629 q 438 719 328 719 q 534 693 501 719 q 578 615 567 667 q 589 469 589 563 l 589 0 l 357 0 l 357 378 z "},"ń":{"ha":635,"x_min":49,"x_max":589,"o":"m 357 378 q 355 482 357 456 q 346 515 353 508 q 319 522 339 522 q 292 514 299 522 q 283 476 285 506 q 281 358 281 447 l 281 0 l 49 0 l 49 708 l 272 708 l 278 629 l 290 629 q 438 719 328 719 q 534 693 501 719 q 578 615 567 667 q 589 469 589 563 l 589 0 l 357 0 l 357 378 m 228 826 l 228 833 l 300 1032 l 521 1032 l 521 1025 l 406 826 l 228 826 z "},"ŉ":{"ha":847,"x_min":25,"x_max":801,"o":"m 29 756 q 93 776 78 756 q 108 857 108 797 l 108 875 l 25 875 l 25 1032 l 256 1032 l 256 933 q 240 766 256 821 q 178 688 225 711 q 29 664 131 664 l 29 756 m 569 378 q 567 482 569 456 q 558 515 565 508 q 532 522 551 522 q 504 514 511 522 q 495 476 497 506 q 493 358 493 447 l 493 0 l 261 0 l 261 708 l 485 708 l 490 629 l 503 629 q 650 719 540 719 q 747 693 714 719 q 790 615 779 667 q 801 469 801 563 l 801 0 l 569 0 l 569 378 z "},"ň":{"ha":635,"x_min":49,"x_max":589,"o":"m 357 378 q 355 482 357 456 q 346 515 353 508 q 319 522 339 522 q 292 514 299 522 q 283 476 285 506 q 281 358 281 447 l 281 0 l 49 0 l 49 708 l 272 708 l 278 629 l 290 629 q 438 719 328 719 q 534 693 501 719 q 578 615 567 667 q 589 469 589 563 l 589 0 l 357 0 l 357 378 m 207 850 l 106 1019 l 106 1032 l 258 1032 l 318 947 l 378 1032 l 531 1032 l 531 1019 l 426 850 l 207 850 z "},"ņ":{"ha":635,"x_min":49,"x_max":589,"o":"m 357 378 q 355 482 357 456 q 346 515 353 508 q 319 522 339 522 q 292 514 299 522 q 283 476 285 506 q 281 358 281 447 l 281 0 l 49 0 l 49 708 l 272 708 l 278 629 l 290 629 q 438 719 328 719 q 534 693 501 719 q 578 615 567 667 q 589 469 589 563 l 589 0 l 357 0 l 357 378 m 207 -308 q 272 -297 257 -308 q 286 -250 286 -285 l 286 -235 l 204 -235 l 204 -83 l 433 -83 l 433 -174 q 418 -315 433 -269 q 356 -381 403 -361 q 207 -401 308 -401 l 207 -308 z "},"ṅ":{"ha":635,"x_min":49,"x_max":589,"o":"m 357 378 q 355 482 357 456 q 346 515 353 508 q 319 522 339 522 q 292 514 299 522 q 283 476 285 506 q 281 358 281 447 l 281 0 l 49 0 l 49 708 l 272 708 l 278 629 l 290 629 q 438 719 328 719 q 534 693 501 719 q 578 615 567 667 q 589 469 589 563 l 589 0 l 357 0 l 357 378 m 224 854 l 224 1014 l 413 1014 l 413 854 l 224 854 z "},"ŋ":{"ha":635,"x_min":49,"x_max":589,"o":"m 438 719 q 534 693 501 719 q 578 615 567 667 q 589 469 589 563 l 589 49 q 565 -169 589 -103 q 480 -255 540 -235 q 281 -275 419 -275 l 281 -111 q 333 -104 317 -111 q 353 -83 349 -97 q 357 -40 357 -69 l 357 378 q 355 482 357 456 q 346 515 353 508 q 319 522 339 522 q 292 514 299 522 q 283 476 285 506 q 281 358 281 447 l 281 0 l 49 0 l 49 708 l 272 708 l 278 629 l 290 629 q 438 719 328 719 z "},"ɲ":{"ha":635,"x_min":-28,"x_max":589,"o":"m -28 -111 q 24 -104 8 -111 q 44 -83 40 -97 q 49 -40 49 -69 l 49 708 l 272 708 l 278 629 l 290 629 q 438 719 328 719 q 534 693 501 719 q 578 615 567 667 q 589 469 589 563 l 589 0 l 357 0 l 357 378 q 355 482 357 456 q 346 515 353 508 q 319 522 339 522 q 292 514 299 522 q 283 477 285 506 q 281 360 281 449 l 281 49 q 256 -169 281 -103 q 172 -255 232 -235 q -28 -275 111 -275 l -28 -111 z "},"ǌ":{"ha":965,"x_min":49,"x_max":917,"o":"m 357 378 q 355 482 357 456 q 346 515 353 508 q 319 522 339 522 q 292 514 299 522 q 283 476 285 506 q 281 358 281 447 l 281 0 l 49 0 l 49 708 l 272 708 l 278 629 l 290 629 q 438 719 328 719 q 534 693 501 719 q 578 615 567 667 q 589 469 589 563 l 589 0 l 357 0 l 357 378 m 683 839 l 683 1032 l 917 1032 l 917 839 l 683 839 m 607 -111 q 659 -104 643 -111 q 679 -83 675 -97 q 683 -40 683 -69 l 683 708 l 917 708 l 917 49 q 892 -169 917 -103 q 807 -255 868 -235 q 607 -275 746 -275 l 607 -111 z "},"ñ":{"ha":635,"x_min":49,"x_max":589,"o":"m 357 378 q 355 482 357 456 q 346 515 353 508 q 319 522 339 522 q 292 514 299 522 q 283 476 285 506 q 281 358 281 447 l 281 0 l 49 0 l 49 708 l 272 708 l 278 629 l 290 629 q 438 719 328 719 q 534 693 501 719 q 578 615 567 667 q 589 469 589 563 l 589 0 l 357 0 l 357 378 m 549 1032 q 543 917 549 956 q 513 857 538 879 q 433 835 489 835 q 308 854 381 835 q 276 860 299 856 q 240 865 253 865 q 222 856 225 865 q 218 818 218 847 l 93 818 q 99 933 93 894 q 129 993 104 971 q 210 1015 154 1015 q 272 1009 238 1015 q 335 996 306 1003 q 367 990 344 994 q 403 985 390 985 q 422 994 418 985 q 425 1032 425 1003 l 549 1032 z "},"o":{"ha":615,"x_min":35,"x_max":582,"o":"m 308 -11 q 124 20 181 -11 q 51 123 67 51 q 35 354 35 194 q 51 585 35 514 q 124 688 67 657 q 308 719 181 719 q 492 688 436 719 q 565 585 549 657 q 582 354 582 513 q 565 124 582 196 q 492 20 549 51 q 308 -11 436 -11 m 308 171 q 338 181 331 171 q 348 224 346 190 q 350 354 350 258 q 348 484 350 450 q 338 528 346 518 q 308 538 331 538 q 278 528 286 538 q 267 484 269 518 q 265 354 265 450 q 267 224 265 258 q 278 181 269 190 q 308 171 286 171 z "},"ó":{"ha":615,"x_min":35,"x_max":582,"o":"m 308 -11 q 124 20 181 -11 q 51 123 67 51 q 35 354 35 194 q 51 585 35 514 q 124 688 67 657 q 308 719 181 719 q 492 688 436 719 q 565 585 549 657 q 582 354 582 513 q 565 124 582 196 q 492 20 549 51 q 308 -11 436 -11 m 308 171 q 338 181 331 171 q 348 224 346 190 q 350 354 350 258 q 348 484 350 450 q 338 528 346 518 q 308 538 331 538 q 278 528 286 538 q 267 484 269 518 q 265 354 265 450 q 267 224 265 258 q 278 181 269 190 q 308 171 286 171 m 208 826 l 208 833 l 281 1032 l 501 1032 l 501 1025 l 386 826 l 208 826 z "},"ŏ":{"ha":615,"x_min":35,"x_max":582,"o":"m 308 -11 q 124 20 181 -11 q 51 123 67 51 q 35 354 35 194 q 51 585 35 514 q 124 688 67 657 q 308 719 181 719 q 492 688 436 719 q 565 585 549 657 q 582 354 582 513 q 565 124 582 196 q 492 20 549 51 q 308 -11 436 -11 m 308 171 q 338 181 331 171 q 348 224 346 190 q 350 354 350 258 q 348 484 350 450 q 338 528 346 518 q 308 538 331 538 q 278 528 286 538 q 267 484 269 518 q 265 354 265 450 q 267 224 265 258 q 278 181 269 190 q 308 171 286 171 m 500 1032 q 485 929 500 969 q 428 865 471 889 q 307 842 386 842 q 185 865 228 842 q 128 929 143 889 q 114 1032 114 969 l 246 1032 q 256 983 246 999 q 307 967 267 967 q 358 983 347 967 q 368 1032 368 999 l 500 1032 z "},"ǒ":{"ha":615,"x_min":35,"x_max":582,"o":"m 308 -11 q 124 20 181 -11 q 51 123 67 51 q 35 354 35 194 q 51 585 35 514 q 124 688 67 657 q 308 719 181 719 q 492 688 436 719 q 565 585 549 657 q 582 354 582 513 q 565 124 582 196 q 492 20 549 51 q 308 -11 436 -11 m 308 171 q 338 181 331 171 q 348 224 346 190 q 350 354 350 258 q 348 484 350 450 q 338 528 346 518 q 308 538 331 538 q 278 528 286 538 q 267 484 269 518 q 265 354 265 450 q 267 224 265 258 q 278 181 269 190 q 308 171 286 171 m 197 850 l 96 1019 l 96 1032 l 249 1032 l 308 947 l 368 1032 l 521 1032 l 521 1019 l 417 850 l 197 850 z "},"ô":{"ha":615,"x_min":35,"x_max":582,"o":"m 308 -11 q 124 20 181 -11 q 51 123 67 51 q 35 354 35 194 q 51 585 35 514 q 124 688 67 657 q 308 719 181 719 q 492 688 436 719 q 565 585 549 657 q 582 354 582 513 q 565 124 582 196 q 492 20 549 51 q 308 -11 436 -11 m 308 171 q 338 181 331 171 q 348 224 346 190 q 350 354 350 258 q 348 484 350 450 q 338 528 346 518 q 308 538 331 538 q 278 528 286 538 q 267 484 269 518 q 265 354 265 450 q 267 224 265 258 q 278 181 269 190 q 308 171 286 171 m 97 850 l 97 861 l 199 1032 l 418 1032 l 522 861 l 522 850 l 369 850 l 308 935 l 250 850 l 97 850 z "},"ố":{"ha":615,"x_min":35,"x_max":622,"o":"m 308 -11 q 124 20 181 -11 q 51 123 67 51 q 35 354 35 194 q 51 585 35 514 q 124 688 67 657 q 308 719 181 719 q 492 688 436 719 q 565 585 549 657 q 582 354 582 513 q 565 124 582 196 q 492 20 549 51 q 308 -11 436 -11 m 308 171 q 338 181 331 171 q 348 224 346 190 q 350 354 350 258 q 348 484 350 450 q 338 528 346 518 q 308 538 331 538 q 278 528 286 538 q 267 484 269 518 q 265 354 265 450 q 267 224 265 258 q 278 181 269 190 q 308 171 286 171 m 96 850 l 96 861 l 197 1032 l 417 1032 l 521 861 l 521 850 l 368 850 l 307 935 l 249 850 l 96 850 m 329 1067 l 329 1074 l 401 1272 l 622 1272 l 622 1265 l 507 1067 l 329 1067 z "},"ộ":{"ha":615,"x_min":35,"x_max":582,"o":"m 308 -11 q 124 20 181 -11 q 51 123 67 51 q 35 354 35 194 q 51 585 35 514 q 124 688 67 657 q 308 719 181 719 q 492 688 436 719 q 565 585 549 657 q 582 354 582 513 q 565 124 582 196 q 492 20 549 51 q 308 -11 436 -11 m 308 171 q 338 181 331 171 q 348 224 346 190 q 350 354 350 258 q 348 484 350 450 q 338 528 346 518 q 308 538 331 538 q 278 528 286 538 q 267 484 269 518 q 265 354 265 450 q 267 224 265 258 q 278 181 269 190 q 308 171 286 171 m 186 -297 l 186 -86 l 431 -86 l 431 -297 l 186 -297 m 96 850 l 96 861 l 197 1032 l 417 1032 l 521 861 l 521 850 l 368 850 l 307 935 l 249 850 l 96 850 z "},"ồ":{"ha":615,"x_min":35,"x_max":582,"o":"m 308 -11 q 124 20 181 -11 q 51 123 67 51 q 35 354 35 194 q 51 585 35 514 q 124 688 67 657 q 308 719 181 719 q 492 688 436 719 q 565 585 549 657 q 582 354 582 513 q 565 124 582 196 q 492 20 549 51 q 308 -11 436 -11 m 308 171 q 338 181 331 171 q 348 224 346 190 q 350 354 350 258 q 348 484 350 450 q 338 528 346 518 q 308 538 331 538 q 278 528 286 538 q 267 484 269 518 q 265 354 265 450 q 267 224 265 258 q 278 181 269 190 q 308 171 286 171 m 79 850 l 79 861 l 181 1032 l 400 1032 l 504 861 l 504 850 l 351 850 l 290 935 l 232 850 l 79 850 m 358 1067 l 244 1265 l 244 1272 l 464 1272 l 538 1074 l 538 1067 l 358 1067 z "},"ổ":{"ha":615,"x_min":35,"x_max":671,"o":"m 308 -11 q 124 20 181 -11 q 51 123 67 51 q 35 354 35 194 q 51 585 35 514 q 124 688 67 657 q 308 719 181 719 q 492 688 436 719 q 565 585 549 657 q 582 354 582 513 q 565 124 582 196 q 492 20 549 51 q 308 -11 436 -11 m 308 171 q 338 181 331 171 q 348 224 346 190 q 350 354 350 258 q 348 484 350 450 q 338 528 346 518 q 308 538 331 538 q 278 528 286 538 q 267 484 269 518 q 265 354 265 450 q 267 224 265 258 q 278 181 269 190 q 308 171 286 171 m 96 850 l 96 861 l 197 1032 l 417 1032 l 521 861 l 521 850 l 368 850 l 307 935 l 249 850 l 96 850 m 385 1089 q 396 1143 385 1126 q 439 1169 407 1160 l 454 1174 q 502 1192 492 1186 q 513 1214 513 1199 q 504 1231 513 1228 q 469 1235 496 1235 q 313 1232 407 1235 l 313 1347 q 488 1367 400 1367 q 585 1359 547 1367 q 647 1324 622 1351 q 671 1242 671 1297 q 654 1163 671 1186 q 589 1119 638 1139 l 575 1113 q 536 1096 547 1101 q 522 1083 525 1090 q 519 1061 519 1076 l 385 1061 l 385 1089 z "},"ỗ":{"ha":615,"x_min":35,"x_max":582,"o":"m 308 -11 q 124 20 181 -11 q 51 123 67 51 q 35 354 35 194 q 51 585 35 514 q 124 688 67 657 q 308 719 181 719 q 492 688 436 719 q 565 585 549 657 q 582 354 582 513 q 565 124 582 196 q 492 20 549 51 q 308 -11 436 -11 m 308 171 q 338 181 331 171 q 348 224 346 190 q 350 354 350 258 q 348 484 350 450 q 338 528 346 518 q 308 538 331 538 q 278 528 286 538 q 267 484 269 518 q 265 354 265 450 q 267 224 265 258 q 278 181 269 190 q 308 171 286 171 m 93 850 l 93 861 l 194 1032 l 414 1032 l 518 861 l 518 850 l 365 850 l 304 935 l 246 850 l 93 850 m 535 1272 q 529 1158 535 1196 q 499 1097 524 1119 q 419 1075 475 1075 q 294 1094 367 1075 q 262 1101 285 1096 q 226 1106 239 1106 q 208 1097 211 1106 q 204 1058 204 1088 l 79 1058 q 85 1173 79 1135 q 115 1233 90 1211 q 196 1256 140 1256 q 258 1249 224 1256 q 321 1236 292 1243 q 353 1230 331 1235 q 389 1225 376 1225 q 408 1234 404 1225 q 411 1272 411 1243 l 535 1272 z "},"ȍ":{"ha":615,"x_min":35,"x_max":582,"o":"m 308 -11 q 124 20 181 -11 q 51 123 67 51 q 35 354 35 194 q 51 585 35 514 q 124 688 67 657 q 308 719 181 719 q 492 688 436 719 q 565 585 549 657 q 582 354 582 513 q 565 124 582 196 q 492 20 549 51 q 308 -11 436 -11 m 308 171 q 338 181 331 171 q 348 224 346 190 q 350 354 350 258 q 348 484 350 450 q 338 528 346 518 q 308 538 331 538 q 278 528 286 538 q 267 484 269 518 q 265 354 265 450 q 267 224 265 258 q 278 181 269 190 q 308 171 286 171 m 278 850 l 132 850 l 43 1006 l 43 1011 l 221 1011 l 278 856 l 278 850 m 488 850 l 342 850 l 254 1006 l 254 1011 l 432 1011 l 488 856 l 488 850 z "},"ö":{"ha":615,"x_min":35,"x_max":582,"o":"m 308 -11 q 124 20 181 -11 q 51 123 67 51 q 35 354 35 194 q 51 585 35 514 q 124 688 67 657 q 308 719 181 719 q 492 688 436 719 q 565 585 549 657 q 582 354 582 513 q 565 124 582 196 q 492 20 549 51 q 308 -11 436 -11 m 308 171 q 338 181 331 171 q 348 224 346 190 q 350 354 350 258 q 348 484 350 450 q 338 528 346 518 q 308 538 331 538 q 278 528 286 538 q 267 484 269 518 q 265 354 265 450 q 267 224 265 258 q 278 181 269 190 q 308 171 286 171 m 89 854 l 89 1014 l 278 1014 l 278 854 l 89 854 m 340 854 l 340 1014 l 529 1014 l 529 854 l 340 854 z "},"ọ":{"ha":615,"x_min":35,"x_max":582,"o":"m 308 -11 q 124 20 181 -11 q 51 123 67 51 q 35 354 35 194 q 51 585 35 514 q 124 688 67 657 q 308 719 181 719 q 492 688 436 719 q 565 585 549 657 q 582 354 582 513 q 565 124 582 196 q 492 20 549 51 q 308 -11 436 -11 m 308 171 q 338 181 331 171 q 348 224 346 190 q 350 354 350 258 q 348 484 350 450 q 338 528 346 518 q 308 538 331 538 q 278 528 286 538 q 267 484 269 518 q 265 354 265 450 q 267 224 265 258 q 278 181 269 190 q 308 171 286 171 m 186 -297 l 186 -86 l 431 -86 l 431 -297 l 186 -297 z "},"ò":{"ha":615,"x_min":35,"x_max":582,"o":"m 308 -11 q 124 20 181 -11 q 51 123 67 51 q 35 354 35 194 q 51 585 35 514 q 124 688 67 657 q 308 719 181 719 q 492 688 436 719 q 565 585 549 657 q 582 354 582 513 q 565 124 582 196 q 492 20 549 51 q 308 -11 436 -11 m 308 171 q 338 181 331 171 q 348 224 346 190 q 350 354 350 258 q 348 484 350 450 q 338 528 346 518 q 308 538 331 538 q 278 528 286 538 q 267 484 269 518 q 265 354 265 450 q 267 224 265 258 q 278 181 269 190 q 308 171 286 171 m 222 826 l 108 1025 l 108 1032 l 328 1032 l 401 833 l 401 826 l 222 826 z "},"ỏ":{"ha":615,"x_min":35,"x_max":582,"o":"m 308 -11 q 124 20 181 -11 q 51 123 67 51 q 35 354 35 194 q 51 585 35 514 q 124 688 67 657 q 308 719 181 719 q 492 688 436 719 q 565 585 549 657 q 582 354 582 513 q 565 124 582 196 q 492 20 549 51 q 308 -11 436 -11 m 308 171 q 338 181 331 171 q 348 224 346 190 q 350 354 350 258 q 348 484 350 450 q 338 528 346 518 q 308 538 331 538 q 278 528 286 538 q 267 484 269 518 q 265 354 265 450 q 267 224 265 258 q 278 181 269 190 q 308 171 286 171 m 201 881 q 213 935 201 918 q 256 961 224 951 l 271 965 q 319 984 308 978 q 329 1006 329 990 q 321 1023 329 1019 q 286 1026 313 1026 q 129 1024 224 1026 l 129 1139 q 304 1158 217 1158 q 401 1151 364 1158 q 463 1116 439 1143 q 488 1033 488 1089 q 471 954 488 978 q 406 911 454 931 l 392 904 q 353 888 364 893 q 339 875 342 882 q 336 853 336 868 l 201 853 l 201 881 z "},"ơ":{"ha":615,"x_min":35,"x_max":649,"o":"m 649 831 l 649 811 q 630 681 649 721 q 551 626 611 642 q 576 524 569 586 q 582 354 582 463 q 565 124 582 196 q 492 20 549 51 q 308 -11 436 -11 q 124 20 181 -11 q 51 123 67 51 q 35 354 35 194 q 51 585 35 514 q 124 688 67 657 q 308 719 181 719 q 436 708 390 719 q 489 728 476 710 q 501 790 501 746 l 501 831 l 649 831 m 308 171 q 338 181 331 171 q 348 224 346 190 q 350 354 350 258 q 348 484 350 450 q 338 528 346 518 q 308 538 331 538 q 278 528 286 538 q 267 484 269 518 q 265 354 265 450 q 267 224 265 258 q 278 181 269 190 q 308 171 286 171 z "},"ớ":{"ha":615,"x_min":35,"x_max":649,"o":"m 649 831 l 649 811 q 630 681 649 721 q 551 626 611 642 q 576 524 569 586 q 582 354 582 463 q 565 124 582 196 q 492 20 549 51 q 308 -11 436 -11 q 124 20 181 -11 q 51 123 67 51 q 35 354 35 194 q 51 585 35 514 q 124 688 67 657 q 308 719 181 719 q 436 708 390 719 q 489 728 476 710 q 501 790 501 746 l 501 831 l 649 831 m 308 171 q 338 181 331 171 q 348 224 346 190 q 350 354 350 258 q 348 484 350 450 q 338 528 346 518 q 308 538 331 538 q 278 528 286 538 q 267 484 269 518 q 265 354 265 450 q 267 224 265 258 q 278 181 269 190 q 308 171 286 171 m 218 826 l 218 833 l 290 1032 l 511 1032 l 511 1025 l 396 826 l 218 826 z "},"ợ":{"ha":615,"x_min":35,"x_max":649,"o":"m 649 831 l 649 811 q 630 681 649 721 q 551 626 611 642 q 576 524 569 586 q 582 354 582 463 q 565 124 582 196 q 492 20 549 51 q 308 -11 436 -11 q 124 20 181 -11 q 51 123 67 51 q 35 354 35 194 q 51 585 35 514 q 124 688 67 657 q 308 719 181 719 q 436 708 390 719 q 489 728 476 710 q 501 790 501 746 l 501 831 l 649 831 m 308 171 q 338 181 331 171 q 348 224 346 190 q 350 354 350 258 q 348 484 350 450 q 338 528 346 518 q 308 538 331 538 q 278 528 286 538 q 267 484 269 518 q 265 354 265 450 q 267 224 265 258 q 278 181 269 190 q 308 171 286 171 m 186 -297 l 186 -86 l 431 -86 l 431 -297 l 186 -297 z "},"ờ":{"ha":615,"x_min":35,"x_max":649,"o":"m 649 831 l 649 811 q 630 681 649 721 q 551 626 611 642 q 576 524 569 586 q 582 354 582 463 q 565 124 582 196 q 492 20 549 51 q 308 -11 436 -11 q 124 20 181 -11 q 51 123 67 51 q 35 354 35 194 q 51 585 35 514 q 124 688 67 657 q 308 719 181 719 q 436 708 390 719 q 489 728 476 710 q 501 790 501 746 l 501 831 l 649 831 m 308 171 q 338 181 331 171 q 348 224 346 190 q 350 354 350 258 q 348 484 350 450 q 338 528 346 518 q 308 538 331 538 q 278 528 286 538 q 267 484 269 518 q 265 354 265 450 q 267 224 265 258 q 278 181 269 190 q 308 171 286 171 m 218 826 l 104 1025 l 104 1032 l 324 1032 l 397 833 l 397 826 l 218 826 z "},"ở":{"ha":615,"x_min":35,"x_max":649,"o":"m 649 831 l 649 811 q 630 681 649 721 q 551 626 611 642 q 576 524 569 586 q 582 354 582 463 q 565 124 582 196 q 492 20 549 51 q 308 -11 436 -11 q 124 20 181 -11 q 51 123 67 51 q 35 354 35 194 q 51 585 35 514 q 124 688 67 657 q 308 719 181 719 q 436 708 390 719 q 489 728 476 710 q 501 790 501 746 l 501 831 l 649 831 m 308 171 q 338 181 331 171 q 348 224 346 190 q 350 354 350 258 q 348 484 350 450 q 338 528 346 518 q 308 538 331 538 q 278 528 286 538 q 267 484 269 518 q 265 354 265 450 q 267 224 265 258 q 278 181 269 190 q 308 171 286 171 m 201 881 q 213 935 201 918 q 256 961 224 951 l 271 965 q 319 984 308 978 q 329 1006 329 990 q 321 1023 329 1019 q 286 1026 313 1026 q 129 1024 224 1026 l 129 1139 q 304 1158 217 1158 q 401 1151 364 1158 q 463 1116 439 1143 q 488 1033 488 1089 q 471 954 488 978 q 406 911 454 931 l 392 904 q 353 888 364 893 q 339 875 342 882 q 336 853 336 868 l 201 853 l 201 881 z "},"ỡ":{"ha":615,"x_min":35,"x_max":649,"o":"m 649 831 l 649 811 q 630 681 649 721 q 551 626 611 642 q 576 524 569 586 q 582 354 582 463 q 565 124 582 196 q 492 20 549 51 q 308 -11 436 -11 q 124 20 181 -11 q 51 123 67 51 q 35 354 35 194 q 51 585 35 514 q 124 688 67 657 q 308 719 181 719 q 436 708 390 719 q 489 728 476 710 q 501 790 501 746 l 501 831 l 649 831 m 308 171 q 338 181 331 171 q 348 224 346 190 q 350 354 350 258 q 348 484 350 450 q 338 528 346 518 q 308 538 331 538 q 278 528 286 538 q 267 484 269 518 q 265 354 265 450 q 267 224 265 258 q 278 181 269 190 q 308 171 286 171 m 535 1032 q 529 917 535 956 q 499 857 524 879 q 419 835 475 835 q 294 854 367 835 q 262 860 285 856 q 226 865 239 865 q 208 856 211 865 q 204 818 204 847 l 79 818 q 85 933 79 894 q 115 993 90 971 q 196 1015 140 1015 q 258 1009 224 1015 q 321 996 292 1003 q 353 990 331 994 q 389 985 376 985 q 408 994 404 985 q 411 1032 411 1003 l 535 1032 z "},"ő":{"ha":615,"x_min":35,"x_max":582,"o":"m 308 -11 q 124 20 181 -11 q 51 123 67 51 q 35 354 35 194 q 51 585 35 514 q 124 688 67 657 q 308 719 181 719 q 492 688 436 719 q 565 585 549 657 q 582 354 582 513 q 565 124 582 196 q 492 20 549 51 q 308 -11 436 -11 m 308 171 q 338 181 331 171 q 348 224 346 190 q 350 354 350 258 q 348 484 350 450 q 338 528 346 518 q 308 538 331 538 q 278 528 286 538 q 267 484 269 518 q 265 354 265 450 q 267 224 265 258 q 278 181 269 190 q 308 171 286 171 m 138 850 l 138 856 l 193 1011 l 371 1011 l 371 1006 l 283 850 l 138 850 m 347 850 l 347 856 l 404 1011 l 582 1011 l 582 1006 l 493 850 l 347 850 z "},"ȏ":{"ha":615,"x_min":35,"x_max":582,"o":"m 308 -11 q 124 20 181 -11 q 51 123 67 51 q 35 354 35 194 q 51 585 35 514 q 124 688 67 657 q 308 719 181 719 q 492 688 436 719 q 565 585 549 657 q 582 354 582 513 q 565 124 582 196 q 492 20 549 51 q 308 -11 436 -11 m 308 171 q 338 181 331 171 q 348 224 346 190 q 350 354 350 258 q 348 484 350 450 q 338 528 346 518 q 308 538 331 538 q 278 528 286 538 q 267 484 269 518 q 265 354 265 450 q 267 224 265 258 q 278 181 269 190 q 308 171 286 171 m 114 850 q 128 953 114 913 q 185 1017 143 993 q 307 1040 228 1040 q 428 1017 386 1040 q 485 953 471 993 q 500 850 500 913 l 368 850 q 358 899 368 883 q 307 915 347 915 q 256 899 267 915 q 246 850 246 883 l 114 850 z "},"ō":{"ha":615,"x_min":35,"x_max":582,"o":"m 308 -11 q 124 20 181 -11 q 51 123 67 51 q 35 354 35 194 q 51 585 35 514 q 124 688 67 657 q 308 719 181 719 q 492 688 436 719 q 565 585 549 657 q 582 354 582 513 q 565 124 582 196 q 492 20 549 51 q 308 -11 436 -11 m 308 171 q 338 181 331 171 q 348 224 346 190 q 350 354 350 258 q 348 484 350 450 q 338 528 346 518 q 308 538 331 538 q 278 528 286 538 q 267 484 269 518 q 265 354 265 450 q 267 224 265 258 q 278 181 269 190 q 308 171 286 171 m 157 838 l 157 1032 l 458 1032 l 458 838 l 157 838 z "},"ǫ":{"ha":615,"x_min":35,"x_max":582,"o":"m 308 719 q 492 688 436 719 q 565 585 549 657 q 582 354 582 513 q 568 134 582 204 q 506 29 554 64 q 435 -106 435 -31 q 445 -142 435 -129 q 486 -156 456 -156 l 504 -154 l 504 -265 q 417 -272 465 -272 q 294 -237 332 -272 q 257 -149 257 -203 q 270 -79 257 -115 q 307 -11 283 -43 l 304 -11 q 122 20 178 -10 q 51 122 67 50 q 35 354 35 194 q 51 585 35 514 q 124 688 67 657 q 308 719 181 719 m 265 354 q 267 224 265 258 q 278 181 269 190 q 308 171 286 171 q 338 181 331 171 q 348 224 346 190 q 350 354 350 258 q 348 484 350 450 q 338 528 346 518 q 308 538 331 538 q 278 528 286 538 q 267 484 269 518 q 265 354 265 450 z "},"ø":{"ha":615,"x_min":35,"x_max":582,"o":"m 86 50 q 44 153 53 86 q 35 354 35 221 q 51 585 35 514 q 124 688 67 657 q 308 719 181 719 q 356 718 340 719 l 383 785 l 582 785 l 531 657 q 572 551 563 619 q 582 354 582 483 q 565 124 582 196 q 492 20 549 51 q 308 -11 436 -11 q 260 -10 274 -11 l 233 -76 l 35 -76 l 86 50 m 308 171 q 338 181 331 171 q 348 224 346 190 q 350 354 350 258 q 348 484 350 450 q 338 528 346 518 q 308 538 331 538 q 278 528 286 538 q 267 484 269 518 q 265 354 265 450 q 267 224 265 258 q 278 181 269 190 q 308 171 286 171 z "},"ǿ":{"ha":615,"x_min":35,"x_max":582,"o":"m 86 50 q 44 153 53 86 q 35 354 35 221 q 51 585 35 514 q 124 688 67 657 q 308 719 181 719 q 356 718 340 719 l 383 785 l 582 785 l 531 657 q 572 551 563 619 q 582 354 582 483 q 565 124 582 196 q 492 20 549 51 q 308 -11 436 -11 q 260 -10 274 -11 l 233 -76 l 35 -76 l 86 50 m 308 171 q 338 181 331 171 q 348 224 346 190 q 350 354 350 258 q 348 484 350 450 q 338 528 346 518 q 308 538 331 538 q 278 528 286 538 q 267 484 269 518 q 265 354 265 450 q 267 224 265 258 q 278 181 269 190 q 308 171 286 171 m 218 826 l 218 833 l 290 1032 l 511 1032 l 511 1025 l 396 826 l 218 826 z "},"õ":{"ha":615,"x_min":35,"x_max":582,"o":"m 308 -11 q 124 20 181 -11 q 51 123 67 51 q 35 354 35 194 q 51 585 35 514 q 124 688 67 657 q 308 719 181 719 q 492 688 436 719 q 565 585 549 657 q 582 354 582 513 q 565 124 582 196 q 492 20 549 51 q 308 -11 436 -11 m 308 171 q 338 181 331 171 q 348 224 346 190 q 350 354 350 258 q 348 484 350 450 q 338 528 346 518 q 308 538 331 538 q 278 528 286 538 q 267 484 269 518 q 265 354 265 450 q 267 224 265 258 q 278 181 269 190 q 308 171 286 171 m 539 1032 q 533 917 539 956 q 503 857 528 879 q 424 835 479 835 q 299 854 371 835 q 266 860 289 856 q 231 865 243 865 q 212 856 215 865 q 208 818 208 847 l 83 818 q 89 933 83 894 q 119 993 94 971 q 200 1015 144 1015 q 262 1009 228 1015 q 325 996 296 1003 q 358 990 335 994 q 393 985 381 985 q 412 994 408 985 q 415 1032 415 1003 l 539 1032 z "},"œ":{"ha":917,"x_min":35,"x_max":879,"o":"m 879 296 l 582 296 q 588 208 582 231 q 615 178 593 185 q 694 171 636 171 q 863 176 776 171 l 863 11 q 765 -5 826 1 q 646 -11 704 -11 q 474 29 538 -11 q 304 -11 413 -11 q 122 20 178 -11 q 51 123 67 51 q 35 354 35 194 q 51 585 35 514 q 122 688 67 657 q 304 719 178 719 q 472 678 415 719 q 631 719 531 719 q 804 685 753 719 q 867 581 856 650 q 879 353 879 513 l 879 296 m 622 544 q 595 538 603 544 q 585 508 588 532 q 582 424 582 483 l 665 424 q 663 508 665 485 q 652 538 660 532 q 622 544 644 544 m 308 171 q 338 181 331 171 q 348 224 346 190 q 350 354 350 258 q 348 484 350 450 q 338 528 346 518 q 308 538 331 538 q 278 528 286 538 q 267 484 269 518 q 265 354 265 450 q 267 224 265 258 q 278 181 269 190 q 308 171 286 171 z "},"p":{"ha":631,"x_min":49,"x_max":596,"o":"m 49 708 l 272 708 l 278 631 l 292 631 q 344 699 307 678 q 426 719 381 719 q 526 688 490 719 q 579 579 563 657 q 596 356 596 501 q 581 135 596 214 q 528 23 565 57 q 426 -11 492 -11 q 344 9 378 -11 q 293 72 311 29 l 281 72 l 281 -276 l 49 -276 l 49 708 m 322 185 q 353 192 346 185 q 362 231 360 200 q 364 354 364 261 q 362 478 364 447 q 353 516 360 508 q 322 524 346 524 q 296 517 304 524 q 283 489 288 511 q 281 354 281 467 q 283 224 281 240 q 296 192 288 199 q 322 185 304 185 z "},"þ":{"ha":631,"x_min":49,"x_max":596,"o":"m 49 1032 l 281 1032 l 281 631 l 293 631 q 345 699 310 679 q 426 719 381 719 q 526 688 490 719 q 579 579 563 657 q 596 356 596 501 q 581 135 596 214 q 528 23 565 57 q 426 -11 492 -11 q 344 9 378 -11 q 293 72 311 29 l 281 72 l 281 -262 l 49 -262 l 49 1032 m 322 185 q 353 192 346 185 q 362 231 360 200 q 364 354 364 261 q 362 478 364 447 q 353 516 360 508 q 322 524 346 524 q 294 516 301 524 q 283 478 286 508 q 281 354 281 454 q 282 233 281 250 q 294 193 286 201 q 322 185 303 185 z "},"q":{"ha":631,"x_min":35,"x_max":582,"o":"m 350 72 l 338 72 q 286 8 319 28 q 203 -11 253 -11 q 101 23 138 -11 q 50 135 65 57 q 35 356 35 214 q 51 580 35 501 q 104 689 68 658 q 204 719 140 719 q 286 699 250 719 q 339 631 322 679 l 353 631 l 358 708 l 582 708 l 582 -276 l 350 -276 l 350 72 m 308 185 q 333 190 325 185 q 346 215 342 196 q 350 354 350 239 q 346 493 350 469 q 334 518 342 513 q 308 524 326 524 q 277 516 285 524 q 267 477 269 508 q 265 354 265 446 q 267 231 265 263 q 277 192 269 200 q 308 185 285 185 z "},"r":{"ha":467,"x_min":49,"x_max":450,"o":"m 49 708 l 272 708 l 278 596 l 290 596 q 349 692 314 665 q 450 719 385 719 l 450 490 q 352 477 388 490 q 299 424 317 464 q 281 306 281 383 l 281 0 l 49 0 l 49 708 z "},"ŕ":{"ha":467,"x_min":49,"x_max":450,"o":"m 49 708 l 272 708 l 278 596 l 290 596 q 349 692 314 665 q 450 719 385 719 l 450 490 q 352 477 388 490 q 299 424 317 464 q 281 306 281 383 l 281 0 l 49 0 l 49 708 m 143 826 l 143 833 l 215 1032 l 436 1032 l 436 1025 l 321 826 l 143 826 z "},"ř":{"ha":467,"x_min":21,"x_max":450,"o":"m 49 708 l 272 708 l 278 596 l 290 596 q 349 692 314 665 q 450 719 385 719 l 450 490 q 352 477 388 490 q 299 424 317 464 q 281 306 281 383 l 281 0 l 49 0 l 49 708 m 122 850 l 21 1019 l 21 1032 l 174 1032 l 233 947 l 293 1032 l 446 1032 l 446 1019 l 342 850 l 122 850 z "},"ŗ":{"ha":467,"x_min":49,"x_max":450,"o":"m 49 708 l 272 708 l 278 596 l 290 596 q 349 692 314 665 q 450 719 385 719 l 450 490 q 352 477 388 490 q 299 424 317 464 q 281 306 281 383 l 281 0 l 49 0 l 49 708 m 53 -308 q 117 -297 103 -308 q 132 -250 132 -285 l 132 -235 l 50 -235 l 50 -83 l 279 -83 l 279 -174 q 264 -315 279 -269 q 201 -381 249 -361 q 53 -401 154 -401 l 53 -308 z "},"ȑ":{"ha":467,"x_min":-32,"x_max":450,"o":"m 49 708 l 272 708 l 278 596 l 290 596 q 349 692 314 665 q 450 719 385 719 l 450 490 q 352 477 388 490 q 299 424 317 464 q 281 306 281 383 l 281 0 l 49 0 l 49 708 m 203 850 l 57 850 l -32 1006 l -32 1011 l 146 1011 l 203 856 l 203 850 m 413 850 l 267 850 l 179 1006 l 179 1011 l 357 1011 l 413 856 l 413 850 z "},"ṛ":{"ha":467,"x_min":42,"x_max":450,"o":"m 49 708 l 272 708 l 278 596 l 290 596 q 349 692 314 665 q 450 719 385 719 l 450 490 q 352 477 388 490 q 299 424 317 464 q 281 306 281 383 l 281 0 l 49 0 l 49 708 m 42 -297 l 42 -86 l 286 -86 l 286 -297 l 42 -297 z "},"ȓ":{"ha":467,"x_min":39,"x_max":450,"o":"m 49 708 l 272 708 l 278 596 l 290 596 q 349 692 314 665 q 450 719 385 719 l 450 490 q 352 477 388 490 q 299 424 317 464 q 281 306 281 383 l 281 0 l 49 0 l 49 708 m 39 850 q 53 953 39 913 q 110 1017 68 993 q 232 1040 153 1040 q 353 1017 311 1040 q 410 953 396 993 q 425 850 425 913 l 293 850 q 283 899 293 883 q 232 915 272 915 q 181 899 192 915 q 171 850 171 883 l 39 850 z "},"s":{"ha":522,"x_min":24,"x_max":500,"o":"m 267 -11 q 148 -4 213 -11 q 40 13 83 3 l 40 176 q 183 168 132 168 q 247 170 229 168 q 273 182 265 172 q 281 214 281 192 q 273 251 281 243 q 231 265 265 258 l 117 283 q 44 343 65 293 q 24 501 24 393 q 86 670 24 621 q 268 719 149 719 q 375 713 318 719 q 467 697 432 707 l 467 531 q 329 540 374 540 q 274 538 290 540 q 252 526 257 535 q 247 501 247 518 q 249 472 247 479 q 258 460 251 464 q 288 453 265 457 l 379 436 q 442 415 417 431 q 483 354 467 399 q 500 228 500 310 q 472 80 500 132 q 394 8 444 28 q 267 -11 343 -11 z "},"ś":{"ha":522,"x_min":24,"x_max":500,"o":"m 267 -11 q 148 -4 213 -11 q 40 13 83 3 l 40 176 q 183 168 132 168 q 247 170 229 168 q 273 182 265 172 q 281 214 281 192 q 273 251 281 243 q 231 265 265 258 l 117 283 q 44 343 65 293 q 24 501 24 393 q 86 670 24 621 q 268 719 149 719 q 375 713 318 719 q 467 697 432 707 l 467 531 q 329 540 374 540 q 274 538 290 540 q 252 526 257 535 q 247 501 247 518 q 249 472 247 479 q 258 460 251 464 q 288 453 265 457 l 379 436 q 442 415 417 431 q 483 354 467 399 q 500 228 500 310 q 472 80 500 132 q 394 8 444 28 q 267 -11 343 -11 m 171 826 l 171 833 l 243 1032 l 464 1032 l 464 1025 l 349 826 l 171 826 z "},"ꞌ":{"ha":278,"x_min":33,"x_max":243,"o":"m 33 361 l 33 1032 l 243 1032 l 243 728 l 199 361 l 33 361 z "},"š":{"ha":522,"x_min":24,"x_max":500,"o":"m 267 -11 q 148 -4 213 -11 q 40 13 83 3 l 40 176 q 183 168 132 168 q 247 170 229 168 q 273 182 265 172 q 281 214 281 192 q 273 251 281 243 q 231 265 265 258 l 117 283 q 44 343 65 293 q 24 501 24 393 q 86 670 24 621 q 268 719 149 719 q 375 713 318 719 q 467 697 432 707 l 467 531 q 329 540 374 540 q 274 538 290 540 q 252 526 257 535 q 247 501 247 518 q 249 472 247 479 q 258 460 251 464 q 288 453 265 457 l 379 436 q 442 415 417 431 q 483 354 467 399 q 500 228 500 310 q 472 80 500 132 q 394 8 444 28 q 267 -11 343 -11 m 154 850 l 53 1019 l 53 1032 l 206 1032 l 265 947 l 325 1032 l 478 1032 l 478 1019 l 374 850 l 154 850 z "},"ş":{"ha":522,"x_min":24,"x_max":500,"o":"m 500 228 q 458 57 500 110 q 336 -7 417 4 l 292 -261 l 94 -261 l 94 -254 l 183 -8 q 40 13 107 -3 l 40 176 q 183 168 132 168 q 247 170 229 168 q 273 182 265 172 q 281 214 281 192 q 273 251 281 243 q 231 265 265 258 l 117 283 q 44 343 65 293 q 24 501 24 393 q 86 670 24 621 q 268 719 149 719 q 375 713 318 719 q 467 697 432 707 l 467 531 q 329 540 374 540 q 274 538 290 540 q 252 526 257 535 q 247 501 247 518 q 249 472 247 479 q 258 460 251 464 q 288 453 265 457 l 379 436 q 442 415 417 431 q 483 354 467 399 q 500 228 500 310 z "},"ŝ":{"ha":522,"x_min":24,"x_max":500,"o":"m 267 -11 q 148 -4 213 -11 q 40 13 83 3 l 40 176 q 183 168 132 168 q 247 170 229 168 q 273 182 265 172 q 281 214 281 192 q 273 251 281 243 q 231 265 265 258 l 117 283 q 44 343 65 293 q 24 501 24 393 q 86 670 24 621 q 268 719 149 719 q 375 713 318 719 q 467 697 432 707 l 467 531 q 329 540 374 540 q 274 538 290 540 q 252 526 257 535 q 247 501 247 518 q 249 472 247 479 q 258 460 251 464 q 288 453 265 457 l 379 436 q 442 415 417 431 q 483 354 467 399 q 500 228 500 310 q 472 80 500 132 q 394 8 444 28 q 267 -11 343 -11 m 49 850 l 49 861 l 150 1032 l 369 1032 l 474 861 l 474 850 l 321 850 l 260 935 l 201 850 l 49 850 z "},"ș":{"ha":522,"x_min":24,"x_max":500,"o":"m 267 -11 q 148 -4 213 -11 q 40 13 83 3 l 40 176 q 183 168 132 168 q 247 170 229 168 q 273 182 265 172 q 281 214 281 192 q 273 251 281 243 q 231 265 265 258 l 117 283 q 44 343 65 293 q 24 501 24 393 q 86 670 24 621 q 268 719 149 719 q 375 713 318 719 q 467 697 432 707 l 467 531 q 329 540 374 540 q 274 538 290 540 q 252 526 257 535 q 247 501 247 518 q 249 472 247 479 q 258 460 251 464 q 288 453 265 457 l 379 436 q 442 415 417 431 q 483 354 467 399 q 500 228 500 310 q 472 80 500 132 q 394 8 444 28 q 267 -11 343 -11 m 150 -308 q 215 -297 200 -308 q 229 -250 229 -285 l 229 -235 l 147 -235 l 147 -83 l 376 -83 l 376 -174 q 361 -315 376 -269 q 299 -381 346 -361 q 150 -401 251 -401 l 150 -308 z "},"ṣ":{"ha":522,"x_min":24,"x_max":500,"o":"m 267 -11 q 148 -4 213 -11 q 40 13 83 3 l 40 176 q 183 168 132 168 q 247 170 229 168 q 273 182 265 172 q 281 214 281 192 q 273 251 281 243 q 231 265 265 258 l 117 283 q 44 343 65 293 q 24 501 24 393 q 86 670 24 621 q 268 719 149 719 q 375 713 318 719 q 467 697 432 707 l 467 531 q 329 540 374 540 q 274 538 290 540 q 252 526 257 535 q 247 501 247 518 q 249 472 247 479 q 258 460 251 464 q 288 453 265 457 l 379 436 q 442 415 417 431 q 483 354 467 399 q 500 228 500 310 q 472 80 500 132 q 394 8 444 28 q 267 -11 343 -11 m 139 -297 l 139 -86 l 383 -86 l 383 -297 l 139 -297 z "},"ß":{"ha":643,"x_min":49,"x_max":610,"o":"m 326 0 l 326 182 l 331 182 q 362 191 353 182 q 374 235 371 200 q 376 358 376 269 q 373 471 376 439 q 360 511 369 503 q 326 519 351 519 l 322 519 l 322 701 l 326 701 q 356 706 349 701 q 366 725 364 710 q 368 782 368 740 q 365 833 368 817 q 353 855 361 850 q 326 860 344 860 q 297 853 306 860 q 284 825 288 847 q 281 750 281 803 l 281 0 l 49 0 l 49 757 q 74 919 49 857 q 158 1011 99 981 q 325 1042 218 1042 q 539 987 475 1042 q 603 815 603 932 q 571 682 603 729 q 471 619 539 635 l 471 614 q 577 536 544 597 q 610 340 610 475 q 590 143 610 215 q 513 35 569 71 q 346 0 456 0 l 326 0 z "},"ſ":{"ha":447,"x_min":17,"x_max":444,"o":"m 99 526 l 17 526 l 17 708 l 99 708 l 99 721 q 122 935 99 874 q 213 1015 146 997 q 444 1032 279 1032 l 444 871 q 367 865 388 871 q 339 840 346 860 q 332 767 332 819 l 332 0 l 99 0 l 99 526 z "},"t":{"ha":456,"x_min":17,"x_max":440,"o":"m 97 0 l 97 526 l 17 526 l 17 708 l 97 708 l 97 914 l 332 914 l 332 708 l 440 708 l 440 526 l 332 526 l 332 0 l 97 0 z "},"ŧ":{"ha":456,"x_min":17,"x_max":440,"o":"m 440 526 l 332 526 l 332 435 l 439 435 l 439 258 l 332 258 l 332 0 l 97 0 l 97 258 l 17 258 l 17 435 l 97 435 l 97 526 l 17 526 l 17 708 l 97 708 l 97 914 l 332 914 l 332 708 l 440 708 l 440 526 z "},"ť":{"ha":654,"x_min":17,"x_max":708,"o":"m 97 0 l 97 526 l 17 526 l 17 708 l 97 708 l 97 914 l 332 914 l 332 708 l 440 708 l 440 526 l 332 526 l 332 0 l 97 0 m 481 583 l 499 894 l 499 956 l 708 956 l 708 894 l 644 583 l 481 583 z "},"ţ":{"ha":456,"x_min":17,"x_max":440,"o":"m 332 708 l 440 708 l 440 526 l 332 526 l 332 0 l 290 0 l 246 -261 l 49 -261 l 49 -254 l 140 0 l 97 0 l 97 526 l 17 526 l 17 708 l 97 708 l 97 914 l 332 914 l 332 708 z "},"ț":{"ha":456,"x_min":17,"x_max":440,"o":"m 97 0 l 97 526 l 17 526 l 17 708 l 97 708 l 97 914 l 332 914 l 332 708 l 440 708 l 440 526 l 332 526 l 332 0 l 97 0 m 104 -308 q 169 -297 154 -308 q 183 -250 183 -285 l 183 -235 l 101 -235 l 101 -83 l 331 -83 l 331 -174 q 315 -315 331 -269 q 253 -381 300 -361 q 104 -401 206 -401 l 104 -308 z "},"ṭ":{"ha":456,"x_min":17,"x_max":440,"o":"m 97 0 l 97 526 l 17 526 l 17 708 l 97 708 l 97 914 l 332 914 l 332 708 l 440 708 l 440 526 l 332 526 l 332 0 l 97 0 m 93 -297 l 93 -86 l 338 -86 l 338 -297 l 93 -297 z "},"u":{"ha":635,"x_min":46,"x_max":586,"o":"m 357 79 l 344 79 q 197 -11 307 -11 q 101 15 133 -11 q 57 94 68 42 q 46 239 46 146 l 46 708 l 278 708 l 278 331 q 280 226 278 253 q 289 193 282 200 q 317 186 296 186 q 344 194 338 186 q 353 232 351 203 q 354 350 354 261 l 354 708 l 586 708 l 586 0 l 363 0 l 357 79 z "},"ú":{"ha":635,"x_min":46,"x_max":586,"o":"m 357 79 l 344 79 q 197 -11 307 -11 q 101 15 133 -11 q 57 94 68 42 q 46 239 46 146 l 46 708 l 278 708 l 278 331 q 280 226 278 253 q 289 193 282 200 q 317 186 296 186 q 344 194 338 186 q 353 232 351 203 q 354 350 354 261 l 354 708 l 586 708 l 586 0 l 363 0 l 357 79 m 225 826 l 225 833 l 297 1032 l 518 1032 l 518 1025 l 403 826 l 225 826 z "},"ŭ":{"ha":635,"x_min":46,"x_max":586,"o":"m 357 79 l 344 79 q 197 -11 307 -11 q 101 15 133 -11 q 57 94 68 42 q 46 239 46 146 l 46 708 l 278 708 l 278 331 q 280 226 278 253 q 289 193 282 200 q 317 186 296 186 q 344 194 338 186 q 353 232 351 203 q 354 350 354 261 l 354 708 l 586 708 l 586 0 l 363 0 l 357 79 m 510 1032 q 495 929 510 969 q 438 865 481 889 q 317 842 396 842 q 195 865 238 842 q 138 929 153 889 q 124 1032 124 969 l 256 1032 q 266 983 256 999 q 317 967 276 967 q 367 983 357 967 q 378 1032 378 999 l 510 1032 z "},"ǔ":{"ha":635,"x_min":46,"x_max":586,"o":"m 357 79 l 344 79 q 197 -11 307 -11 q 101 15 133 -11 q 57 94 68 42 q 46 239 46 146 l 46 708 l 278 708 l 278 331 q 280 226 278 253 q 289 193 282 200 q 317 186 296 186 q 344 194 338 186 q 353 232 351 203 q 354 350 354 261 l 354 708 l 586 708 l 586 0 l 363 0 l 357 79 m 207 850 l 106 1019 l 106 1032 l 258 1032 l 318 947 l 378 1032 l 531 1032 l 531 1019 l 426 850 l 207 850 z "},"û":{"ha":635,"x_min":46,"x_max":586,"o":"m 357 79 l 344 79 q 197 -11 307 -11 q 101 15 133 -11 q 57 94 68 42 q 46 239 46 146 l 46 708 l 278 708 l 278 331 q 280 226 278 253 q 289 193 282 200 q 317 186 296 186 q 344 194 338 186 q 353 232 351 203 q 354 350 354 261 l 354 708 l 586 708 l 586 0 l 363 0 l 357 79 m 106 850 l 106 861 l 207 1032 l 426 1032 l 531 861 l 531 850 l 378 850 l 317 935 l 258 850 l 106 850 z "},"ȕ":{"ha":635,"x_min":46,"x_max":586,"o":"m 357 79 l 344 79 q 197 -11 307 -11 q 101 15 133 -11 q 57 94 68 42 q 46 239 46 146 l 46 708 l 278 708 l 278 331 q 280 226 278 253 q 289 193 282 200 q 317 186 296 186 q 344 194 338 186 q 353 232 351 203 q 354 350 354 261 l 354 708 l 586 708 l 586 0 l 363 0 l 357 79 m 288 850 l 142 850 l 53 1006 l 53 1011 l 231 1011 l 288 856 l 288 850 m 497 850 l 351 850 l 264 1006 l 264 1011 l 442 1011 l 497 856 l 497 850 z "},"ü":{"ha":635,"x_min":46,"x_max":586,"o":"m 357 79 l 344 79 q 197 -11 307 -11 q 101 15 133 -11 q 57 94 68 42 q 46 239 46 146 l 46 708 l 278 708 l 278 331 q 280 226 278 253 q 289 193 282 200 q 317 186 296 186 q 344 194 338 186 q 353 232 351 203 q 354 350 354 261 l 354 708 l 586 708 l 586 0 l 363 0 l 357 79 m 97 854 l 97 1014 l 286 1014 l 286 854 l 97 854 m 349 854 l 349 1014 l 538 1014 l 538 854 l 349 854 z "},"ǘ":{"ha":635,"x_min":46,"x_max":586,"o":"m 357 79 l 344 79 q 197 -11 307 -11 q 101 15 133 -11 q 57 94 68 42 q 46 239 46 146 l 46 708 l 278 708 l 278 331 q 280 226 278 253 q 289 193 282 200 q 317 186 296 186 q 344 194 338 186 q 353 232 351 203 q 354 350 354 261 l 354 708 l 586 708 l 586 0 l 363 0 l 357 79 m 97 854 l 97 1014 l 286 1014 l 286 854 l 97 854 m 349 854 l 349 1014 l 538 1014 l 538 854 l 349 854 m 231 1049 l 231 1056 l 303 1254 l 524 1254 l 524 1247 l 408 1049 l 231 1049 z "},"ǚ":{"ha":635,"x_min":46,"x_max":586,"o":"m 357 79 l 344 79 q 197 -11 307 -11 q 101 15 133 -11 q 57 94 68 42 q 46 239 46 146 l 46 708 l 278 708 l 278 331 q 280 226 278 253 q 289 193 282 200 q 317 186 296 186 q 344 194 338 186 q 353 232 351 203 q 354 350 354 261 l 354 708 l 586 708 l 586 0 l 363 0 l 357 79 m 97 854 l 97 1014 l 286 1014 l 286 854 l 97 854 m 349 854 l 349 1014 l 538 1014 l 538 854 l 349 854 m 210 1072 l 108 1242 l 108 1254 l 261 1254 l 321 1169 l 381 1254 l 533 1254 l 533 1242 l 429 1072 l 210 1072 z "},"ǜ":{"ha":635,"x_min":46,"x_max":586,"o":"m 357 79 l 344 79 q 197 -11 307 -11 q 101 15 133 -11 q 57 94 68 42 q 46 239 46 146 l 46 708 l 278 708 l 278 331 q 280 226 278 253 q 289 193 282 200 q 317 186 296 186 q 344 194 338 186 q 353 232 351 203 q 354 350 354 261 l 354 708 l 586 708 l 586 0 l 363 0 l 357 79 m 97 854 l 97 1014 l 286 1014 l 286 854 l 97 854 m 349 854 l 349 1014 l 538 1014 l 538 854 l 349 854 m 231 1049 l 117 1247 l 117 1254 l 336 1254 l 410 1056 l 410 1049 l 231 1049 z "},"ǖ":{"ha":635,"x_min":46,"x_max":586,"o":"m 357 79 l 344 79 q 197 -11 307 -11 q 101 15 133 -11 q 57 94 68 42 q 46 239 46 146 l 46 708 l 278 708 l 278 331 q 280 226 278 253 q 289 193 282 200 q 317 186 296 186 q 344 194 338 186 q 353 232 351 203 q 354 350 354 261 l 354 708 l 586 708 l 586 0 l 363 0 l 357 79 m 97 854 l 97 1014 l 286 1014 l 286 854 l 97 854 m 349 854 l 349 1014 l 538 1014 l 538 854 l 349 854 m 169 1060 l 169 1254 l 471 1254 l 471 1060 l 169 1060 z "},"ụ":{"ha":635,"x_min":46,"x_max":586,"o":"m 357 79 l 344 79 q 197 -11 307 -11 q 101 15 133 -11 q 57 94 68 42 q 46 239 46 146 l 46 708 l 278 708 l 278 331 q 280 226 278 253 q 289 193 282 200 q 317 186 296 186 q 344 194 338 186 q 353 232 351 203 q 354 350 354 261 l 354 708 l 586 708 l 586 0 l 363 0 l 357 79 m 190 -297 l 190 -86 l 435 -86 l 435 -297 l 190 -297 z "},"ù":{"ha":635,"x_min":46,"x_max":586,"o":"m 357 79 l 344 79 q 197 -11 307 -11 q 101 15 133 -11 q 57 94 68 42 q 46 239 46 146 l 46 708 l 278 708 l 278 331 q 280 226 278 253 q 289 193 282 200 q 317 186 296 186 q 344 194 338 186 q 353 232 351 203 q 354 350 354 261 l 354 708 l 586 708 l 586 0 l 363 0 l 357 79 m 233 826 l 119 1025 l 119 1032 l 339 1032 l 413 833 l 413 826 l 233 826 z "},"ủ":{"ha":635,"x_min":46,"x_max":586,"o":"m 357 79 l 344 79 q 197 -11 307 -11 q 101 15 133 -11 q 57 94 68 42 q 46 239 46 146 l 46 708 l 278 708 l 278 331 q 280 226 278 253 q 289 193 282 200 q 317 186 296 186 q 344 194 338 186 q 353 232 351 203 q 354 350 354 261 l 354 708 l 586 708 l 586 0 l 363 0 l 357 79 m 211 881 q 222 935 211 918 q 265 961 233 951 l 281 965 q 328 984 318 978 q 339 1006 339 990 q 331 1023 339 1019 q 296 1026 322 1026 q 139 1024 233 1026 l 139 1139 q 314 1158 226 1158 q 411 1151 374 1158 q 473 1116 449 1143 q 497 1033 497 1089 q 481 954 497 978 q 415 911 464 931 l 401 904 q 363 888 374 893 q 349 875 351 882 q 346 853 346 868 l 211 853 l 211 881 z "},"ư":{"ha":635,"x_min":46,"x_max":668,"o":"m 668 831 l 668 811 q 653 687 668 726 q 586 631 638 647 l 586 0 l 363 0 l 357 79 l 344 79 q 197 -11 307 -11 q 101 15 133 -11 q 57 94 68 42 q 46 239 46 146 l 46 708 l 278 708 l 278 331 q 280 226 278 253 q 289 193 282 200 q 317 186 296 186 q 344 194 338 186 q 353 232 351 203 q 354 350 354 261 l 354 708 l 442 708 q 506 726 490 708 q 521 790 521 743 l 521 831 l 668 831 z "},"ứ":{"ha":635,"x_min":46,"x_max":668,"o":"m 668 831 l 668 811 q 653 687 668 726 q 586 631 638 647 l 586 0 l 363 0 l 357 79 l 344 79 q 197 -11 307 -11 q 101 15 133 -11 q 57 94 68 42 q 46 239 46 146 l 46 708 l 278 708 l 278 331 q 280 226 278 253 q 289 193 282 200 q 317 186 296 186 q 344 194 338 186 q 353 232 351 203 q 354 350 354 261 l 354 708 l 442 708 q 506 726 490 708 q 521 790 521 743 l 521 831 l 668 831 m 228 826 l 228 833 l 300 1032 l 521 1032 l 521 1025 l 406 826 l 228 826 z "},"ự":{"ha":635,"x_min":46,"x_max":668,"o":"m 668 831 l 668 811 q 653 687 668 726 q 586 631 638 647 l 586 0 l 363 0 l 357 79 l 344 79 q 197 -11 307 -11 q 101 15 133 -11 q 57 94 68 42 q 46 239 46 146 l 46 708 l 278 708 l 278 331 q 280 226 278 253 q 289 193 282 200 q 317 186 296 186 q 344 194 338 186 q 353 232 351 203 q 354 350 354 261 l 354 708 l 442 708 q 506 726 490 708 q 521 790 521 743 l 521 831 l 668 831 m 190 -297 l 190 -86 l 435 -86 l 435 -297 l 190 -297 z "},"ừ":{"ha":635,"x_min":46,"x_max":668,"o":"m 668 831 l 668 811 q 653 687 668 726 q 586 631 638 647 l 586 0 l 363 0 l 357 79 l 344 79 q 197 -11 307 -11 q 101 15 133 -11 q 57 94 68 42 q 46 239 46 146 l 46 708 l 278 708 l 278 331 q 280 226 278 253 q 289 193 282 200 q 317 186 296 186 q 344 194 338 186 q 353 232 351 203 q 354 350 354 261 l 354 708 l 442 708 q 506 726 490 708 q 521 790 521 743 l 521 831 l 668 831 m 228 826 l 114 1025 l 114 1032 l 333 1032 l 407 833 l 407 826 l 228 826 z "},"ử":{"ha":635,"x_min":46,"x_max":668,"o":"m 668 831 l 668 811 q 653 687 668 726 q 586 631 638 647 l 586 0 l 363 0 l 357 79 l 344 79 q 197 -11 307 -11 q 101 15 133 -11 q 57 94 68 42 q 46 239 46 146 l 46 708 l 278 708 l 278 331 q 280 226 278 253 q 289 193 282 200 q 317 186 296 186 q 344 194 338 186 q 353 232 351 203 q 354 350 354 261 l 354 708 l 442 708 q 506 726 490 708 q 521 790 521 743 l 521 831 l 668 831 m 211 881 q 222 935 211 918 q 265 961 233 951 l 281 965 q 328 984 318 978 q 339 1006 339 990 q 331 1023 339 1019 q 296 1026 322 1026 q 139 1024 233 1026 l 139 1139 q 314 1158 226 1158 q 411 1151 374 1158 q 473 1116 449 1143 q 497 1033 497 1089 q 481 954 497 978 q 415 911 464 931 l 401 904 q 363 888 374 893 q 349 875 351 882 q 346 853 346 868 l 211 853 l 211 881 z "},"ữ":{"ha":635,"x_min":46,"x_max":668,"o":"m 668 831 l 668 811 q 653 687 668 726 q 586 631 638 647 l 586 0 l 363 0 l 357 79 l 344 79 q 197 -11 307 -11 q 101 15 133 -11 q 57 94 68 42 q 46 239 46 146 l 46 708 l 278 708 l 278 331 q 280 226 278 253 q 289 193 282 200 q 317 186 296 186 q 344 194 338 186 q 353 232 351 203 q 354 350 354 261 l 354 708 l 442 708 q 506 726 490 708 q 521 790 521 743 l 521 831 l 668 831 m 544 1032 q 539 917 544 956 q 509 857 533 879 q 429 835 485 835 q 304 854 376 835 q 272 860 294 856 q 236 865 249 865 q 217 856 221 865 q 214 818 214 847 l 89 818 q 94 933 89 894 q 125 993 100 971 q 206 1015 150 1015 q 267 1009 233 1015 q 331 996 301 1003 q 363 990 340 994 q 399 985 386 985 q 417 994 414 985 q 421 1032 421 1003 l 544 1032 z "},"ű":{"ha":635,"x_min":46,"x_max":592,"o":"m 357 79 l 344 79 q 197 -11 307 -11 q 101 15 133 -11 q 57 94 68 42 q 46 239 46 146 l 46 708 l 278 708 l 278 331 q 280 226 278 253 q 289 193 282 200 q 317 186 296 186 q 344 194 338 186 q 353 232 351 203 q 354 350 354 261 l 354 708 l 586 708 l 586 0 l 363 0 l 357 79 m 147 850 l 147 856 l 203 1011 l 381 1011 l 381 1006 l 293 850 l 147 850 m 357 850 l 357 856 l 414 1011 l 592 1011 l 592 1006 l 503 850 l 357 850 z "},"ȗ":{"ha":635,"x_min":46,"x_max":586,"o":"m 357 79 l 344 79 q 197 -11 307 -11 q 101 15 133 -11 q 57 94 68 42 q 46 239 46 146 l 46 708 l 278 708 l 278 331 q 280 226 278 253 q 289 193 282 200 q 317 186 296 186 q 344 194 338 186 q 353 232 351 203 q 354 350 354 261 l 354 708 l 586 708 l 586 0 l 363 0 l 357 79 m 124 850 q 138 953 124 913 q 195 1017 153 993 q 317 1040 238 1040 q 438 1017 396 1040 q 495 953 481 993 q 510 850 510 913 l 378 850 q 367 899 378 883 q 317 915 357 915 q 266 899 276 915 q 256 850 256 883 l 124 850 z "},"ū":{"ha":635,"x_min":46,"x_max":586,"o":"m 357 79 l 344 79 q 197 -11 307 -11 q 101 15 133 -11 q 57 94 68 42 q 46 239 46 146 l 46 708 l 278 708 l 278 331 q 280 226 278 253 q 289 193 282 200 q 317 186 296 186 q 344 194 338 186 q 353 232 351 203 q 354 350 354 261 l 354 708 l 586 708 l 586 0 l 363 0 l 357 79 m 167 838 l 167 1032 l 468 1032 l 468 838 l 167 838 z "},"ų":{"ha":635,"x_min":46,"x_max":586,"o":"m 586 0 q 533 -49 557 -19 q 508 -111 508 -78 q 561 -156 508 -156 l 578 -154 l 578 -265 q 490 -272 540 -272 q 368 -238 406 -272 q 331 -153 331 -204 q 418 0 331 -72 l 363 0 l 357 79 l 344 79 q 197 -11 307 -11 q 101 15 133 -11 q 57 94 68 42 q 46 239 46 146 l 46 708 l 278 708 l 278 331 q 280 226 278 253 q 289 193 282 200 q 317 186 296 186 q 344 194 338 186 q 353 232 351 203 q 354 350 354 261 l 354 708 l 586 708 l 586 0 z "}}}
